<?xml version="1.0" standalone="no"?>
<!DOCTYPE svg PUBLIC "-//W3C//DTD SVG 1.1//EN" "http://www.w3.org/Graphics/SVG/1.1/DTD/svg11.dtd" >
<svg xmlns="http://www.w3.org/2000/svg">
<metadata></metadata>
<defs>
<font id="lhf_confection_regularregular" horiz-adv-x="1171" >
<font-face units-per-em="2048" ascent="1536" descent="-512" />
<missing-glyph horiz-adv-x="782" />
<glyph unicode="&#xfb01;" horiz-adv-x="903" d="M53 0v35h94q9 351 3 692q-2 41 -23.5 71.5t-58.5 30.5h-15v31h99q0 16 1 46t1 44q-2 152 101.5 261.5t254.5 109.5q111 0 188 -51v43h35v-217h-35v16q-1 74 -55.5 125t-130.5 51q-61 0 -107.5 -31t-71.5 -82.5t-37 -107.5t-13 -117v-90h186v-31h-186q-3 -387 2 -696 q0 -39 23 -68.5t61 -29.5h12v-35h-328zM524 0v35h92q7 415 0 692q0 40 -21.5 71t-57.5 31h-13v31h232q-7 -423 -2 -727q0 -39 22.5 -68.5t59.5 -29.5h12v-35h-324z" />
<glyph unicode="&#xfb02;" horiz-adv-x="983" d="M53 0v35h94q10 409 3 692q0 40 -22 71t-60 31h-15v31h101v92q0 75 25 145.5t69.5 125t110.5 87t143 31.5q63 0 127 -28h190q-16 -739 -4 -1178q2 -40 24.5 -70t59.5 -30h12v-35h-323v35h92q13 576 4 1100q-2 74 -54.5 125t-127.5 51q-53 0 -93.5 -23.5t-63.5 -59 t-37.5 -85.5t-19.5 -95.5t-5 -95.5v-92h315v-31h-315q-3 -386 2 -694q0 -39 23 -69.5t61 -30.5h12v-35h-328z" />
<glyph horiz-adv-x="2048" />
<glyph horiz-adv-x="2048" />
<glyph unicode="&#xd;" horiz-adv-x="2048" />
<glyph unicode=" "  horiz-adv-x="782" />
<glyph unicode="&#x09;" horiz-adv-x="782" />
<glyph unicode="&#xa0;" horiz-adv-x="782" />
<glyph unicode="!" horiz-adv-x="454" d="M236 76q0 34 24.5 59t58.5 25q35 0 59.5 -25t24.5 -59q0 -35 -24.5 -59.5t-59.5 -24.5q-34 0 -58.5 24.5t-24.5 59.5zM238 965q0 102 23.5 166.5t60.5 64.5q38 0 61 -64t23 -167t-15 -195q-11 -67 -22 -171.5t-11 -125.5q-8 -91 -8 -201v-22h-55v22q0 110 -8 201l-35 297 q-14 129 -14 195z" />
<glyph unicode="&#x22;" horiz-adv-x="632" d="M160 1133q-1 31 15.5 47t43.5 16q27 2 46 -14.5t16 -48.5l-45 -410h-31zM346 1133q-3 30 14 46.5t43 16.5q27 2 46 -14.5t16 -48.5l-43 -410h-33z" />
<glyph unicode="#" horiz-adv-x="1937" d="M61 0v37h125v969q0 53 -28.5 92t-77.5 39h-19v37h289v-37h-114q10 -75 51.5 -142t103.5 -116q43 -33 107.5 -62t118 -47t114 -51t100.5 -76q66 -69 93 -184v547q0 53 -29 92t-80 39h-14v37h289v-37h-125v-971q0 -51 28.5 -90t77.5 -39h19v-37h-166v211q0 90 -43 169 t-117 136q-52 40 -139 74.5t-167 72t-130 91.5q-82 87 -101 219v-807q0 -51 29.5 -90t77.5 -39h16v-37h-289zM1058 825q45 135 171 207q83 47 176 51.5t176 -37t131 -124.5q69 -127 24.5 -263t-171.5 -208q-82 -47 -175 -52t-176.5 36.5t-130.5 123.5q-70 131 -25 266z M1132.5 754q9.5 -73 47.5 -138q38 -66 97.5 -111t130 -55.5t140.5 29.5q67 39 96 108t19.5 142t-47.5 139t-98 110.5t-131 54.5t-142 -29q-66 -39 -94 -108t-18.5 -142zM1315 76q0 34 24 59t58 25q35 0 59.5 -25t24.5 -59q0 -35 -24.5 -59.5t-59.5 -24.5q-34 0 -58 24.5 t-24 59.5z" />
<glyph unicode="$" horiz-adv-x="927" d="M29 303q0 78 50 136.5t126 58.5q61 0 105.5 -34.5t47.5 -92.5q0 -53 -30 -74q-28 45 -88 45q-42 0 -70.5 -32.5t-28.5 -76.5q0 -77 80 -143q72 -59 168 -72v629q-26 11 -55 31q-160 99 -160 248q0 96 60.5 163t154.5 93v147h39v-139q35 6 68 6v133h39v-135 q97 -10 166 -66t69 -147q0 -47 -33.5 -85t-79.5 -38q-38 0 -65.5 23t-28.5 59q0 23 17 37q18 -25 47 -25q27 0 46 19t19 45q0 62 -45.5 98.5t-111.5 44.5v-420q142 -68 180 -90q84 -48 131.5 -129.5t46.5 -177.5t-52.5 -174t-130.5 -123t-175 -61v-140h-39v136 q-40 -3 -68 -3v-133h-39v136q-125 17 -203 67q-71 43 -114 110t-43 146zM295 981q0 -94 94 -164v318q-43 -24 -68.5 -64.5t-25.5 -89.5zM430 14q23 -2 66 4v580q-34 12 -66 31v-615zM430 791q7 -4 66 -35v405q-33 0 -66 -10v-360zM535 25q101 26 168 98t67 172 q0 130 -137 227q-60 38 -98 56v-553z" />
<glyph unicode="%" horiz-adv-x="997" d="M53 907q0 118 72 199q67 76 166 76q101 0 168 -76q69 -78 69 -199q0 -122 -69 -200q-67 -76 -168 -76q-99 0 -166 76q-72 81 -72 200zM102 12l721 1149h70l-721 -1149h-70zM141 907q0 -116 38.5 -176.5t113.5 -60.5q72 0 110.5 61t38.5 176q0 114 -38.5 175t-110.5 61 q-75 0 -113.5 -60.5t-38.5 -175.5zM465 266q0 120 72 201q67 76 165 76q101 0 168 -76q70 -79 70 -201q0 -119 -70 -198q-67 -76 -168 -76q-98 0 -165 76q-72 81 -72 198zM555 266q0 -235 150 -235q72 0 110.5 60.5t38.5 174.5q0 117 -38.5 177.5t-110.5 60.5 q-150 0 -150 -238z" />
<glyph unicode="&#x26;" horiz-adv-x="1275" d="M112.5 506q46.5 147 182.5 248q-51 84 -51 170q1 82 49.5 145.5t121 95t154.5 31.5q118 0 197 -51v67h35v-290h-35v55q0 81 -63 130.5t-146 49.5q-78 0 -135 -51t-57 -127q0 -70 34.5 -132.5t96.5 -135.5l305 -359q69 -84 149 -174q133 130 133 287q0 70 -35.5 124 t-101.5 54q-42 0 -71 -29t-29 -71q0 -17 2 -29q-48 -3 -81.5 31t-33.5 88q0 67 52.5 112.5t121.5 45.5q106 1 182 -75.5t76 -183.5q0 -209 -192 -382q105 -117 209 -117q29 0 59 10v-31q-56 -35 -143 -35q-103 0 -221 99q-160 -99 -332 -99q-134 0 -243 61t-171 185 q-65 136 -18.5 283zM221.5 526q-17.5 -109 34.5 -225q58 -116 163 -182t226 -66q113 0 201 49q-47 44 -146 160l-299 350q-62 71 -84 103l-10 -10q-68 -70 -85.5 -179z" />
<glyph unicode="'" horiz-adv-x="317" d="M72 1110q0 35 24.5 60.5t59.5 25.5q39 0 64.5 -32.5t25.5 -73.5q0 -64 -47 -121q-34 -43 -80 -62l-21 29q56 25 78 94q-6 -2 -20 -2q-35 0 -59.5 24t-24.5 58z" />
<glyph unicode="(" horiz-adv-x="522" d="M23 588q0 234 87 431.5t234 313.5l31 -30q-114 -115 -180 -304t-66 -411q0 -221 66 -410.5t180 -306.5l-31 -31q-147 118 -234 316t-87 432z" />
<glyph unicode=")" horiz-adv-x="600" d="M221 -129q116 117 183 306.5t67 410.5t-67 410t-183 305l31 30q149 -116 236 -313.5t87 -431.5t-87 -432.5t-236 -315.5z" />
<glyph unicode="*" horiz-adv-x="1515" d="M47 0v35h137l600 1186l551 -1078q56 -106 142 -106h16v-37h-401v37h133l-203 405h-588l-121 -237q-12 -24 -12 -55q-2 -46 28.5 -80.5t78.5 -34.5h18v-35h-379zM182 1196q0 19 2 27h17q-3 -40 26.5 -62t67.5 -22q40 1 114 41.5t117 40.5q53 0 92 -36t33 -93h-14 q3 29 -19.5 45t-54.5 16q-38 -1 -81 -26t-86 -49.5t-81 -24.5q-57 0 -95 42.5t-38 100.5zM451 477h553l-277 541z" />
<glyph unicode="+" horiz-adv-x="1091" d="M72 0v37h125q11 460 2 969q-2 53 -30.5 92t-78.5 39h-18v37h825v38h35v-225h-35v29q0 55 -43 88t-100 33h-408q-4 -125 -4 -381v-68q50 41 121 41q53 1 150.5 -37.5t148.5 -38.5q38 0 70 24t32 62q0 9 -8 25l10 8q41 -30 41 -80q0 -56 -43 -91.5t-100 -35.5 q-60 0 -165 54.5t-165 54.5q-53 0 -92 -23q0 -81 1 -243.5t1 -245.5q0 -49 29.5 -87t77.5 -38h327q85 0 150.5 49.5t66.5 130.5v35h33v-293h-33v41h-923z" />
<glyph unicode="," horiz-adv-x="409" d="M184 74q0 35 24.5 60.5t59.5 25.5q40 0 65 -33t25 -74q0 -55 -36.5 -107t-90.5 -75l-20 29q55 24 78 94q-36 -11 -70.5 13.5t-34.5 66.5z" />
<glyph unicode="-" horiz-adv-x="792" d="M154 547v84h430v-84h-430z" />
<glyph unicode="." horiz-adv-x="448" d="M221 76q0 34 24 59t58 25q35 0 59.5 -25t24.5 -59q0 -35 -24.5 -59.5t-59.5 -24.5q-34 0 -58 24.5t-24 59.5z" />
<glyph unicode="/" horiz-adv-x="550" d="M6 -78l455 1331h84l-457 -1331h-82z" />
<glyph unicode="0" horiz-adv-x="1196" d="M72 588q0 263 155 440q149 168 371 168q225 0 371 -168q153 -178 153 -440q0 -268 -153 -443q-149 -168 -371 -168q-220 0 -371 168q-155 177 -155 443zM236 588q0 -279 92 -424.5t270 -145.5q177 0 268.5 145.5t91.5 424.5q0 280 -91.5 424.5t-268.5 144.5 q-178 0 -270 -144.5t-92 -424.5z" />
<glyph unicode="1" horiz-adv-x="600" d="M109 0v37h122q10 495 5 878q0 23 -17 38.5t-41 15.5q-22 0 -35 -13l-8 -6l-20 25l266 221l20 -27l-32 -26q-12 -465 -2 -977q2 -52 30 -90.5t78 -38.5h17v-37h-383z" />
<glyph unicode="2" horiz-adv-x="1011" d="M92 0q-12 168 144 328q50 53 176 132.5t149 96.5q86 61 133 129.5t47 163.5q0 125 -82.5 215t-205.5 90q-62 0 -118.5 -19.5t-96 -64.5t-37.5 -108q1 -29 21 -48.5t46 -19.5q46 0 62 39q26 -22 26 -49q0 -41 -31 -70t-73 -29q-54 0 -88.5 40.5t-34.5 95.5q0 87 54 151.5 t132 93.5t166 29q77 0 150 -24t131 -67.5t93.5 -110.5t35.5 -146q0 -66 -21.5 -120.5t-64 -97t-88 -72.5t-109.5 -62q-22 -11 -75 -36t-81.5 -40t-69.5 -38t-72 -46t-56 -49q-80 -80 -107 -172h607q52 0 91.5 28.5t39.5 77.5v29h37v-291h-37v41h-793z" />
<glyph unicode="3" horiz-adv-x="1062" d="M84 313q0 65 42.5 114.5t106.5 49.5q51 0 89 -34.5t38 -84.5q0 -38 -30 -61q-20 45 -76 45q-34 0 -58.5 -23t-25.5 -57q-3 -75 59 -137q103 -109 271 -109q131 -1 227 93.5t96 224.5q0 124 -82.5 218.5t-203.5 94.5h-35v39h35q91 0 149.5 71t58.5 165q0 98 -76 165.5 t-177 69.5q-63 0 -119 -19.5t-95.5 -63.5t-39.5 -105q0 -30 19.5 -51t49.5 -21q44 0 62 37q24 -17 24 -47q0 -42 -31.5 -70.5t-72.5 -28.5q-54 0 -88.5 41.5t-34.5 96.5q1 86 53 149t128.5 92t162.5 29q68 0 133 -16t121.5 -47.5t90.5 -86t34 -124.5q0 -84 -59 -152.5 t-154 -101.5q130 -31 213.5 -117t83.5 -217q0 -85 -40 -154.5t-105.5 -113t-144.5 -66.5t-161 -23q-210 0 -338 117q-103 93 -100 219z" />
<glyph unicode="4" horiz-adv-x="1075" d="M18 291l660 883h110q-7 -430 -4 -797h25q51 0 91 29t40 77v27h35v-289h-35v41h-156v-96q0 -50 30 -89.5t79 -39.5h18v-37h-385v37h125q0 141 2 225h-610zM133 375h520q3 336 -4 692z" />
<glyph unicode="5" horiz-adv-x="1071" d="M90 313q0 65 43 114.5t107 49.5q54 0 92.5 -34t38.5 -85q0 -37 -31 -61q-23 45 -76 45q-34 0 -59.5 -23t-26.5 -57q-3 -71 60 -137q105 -111 288 -111q91 1 165.5 51.5t114.5 131t40 170.5q0 138 -91.5 240t-228.5 102q-67 0 -133 -28.5t-108 -78.5l-37 19l67 553h521v40 h36v-290h-36v28q0 48 -40 77.5t-91 29.5h-363l-47 -395q49 43 118.5 66.5t135.5 23.5q112 0 211.5 -45.5t164 -134.5t64.5 -201q0 -116 -65 -207.5t-166.5 -139.5t-216.5 -49q-220 0 -348 117q-103 90 -103 219z" />
<glyph unicode="6" horiz-adv-x="1099" d="M82 569q0 144 46.5 273.5t139.5 224.5q62 62 145 95.5t173 33.5q85 0 160 -30.5t125.5 -94.5t50.5 -149q0 -55 -34 -96.5t-87 -41.5q-42 0 -74 28.5t-31 68.5q0 31 25 49q20 -39 61 -39q29 0 48.5 22t19.5 52q0 64 -41.5 108.5t-98 63t-120.5 18.5q-84 0 -156 -43.5 t-112 -116.5q-42 -78 -67.5 -188t-25.5 -217q0 -18 4 -84q37 111 134 179.5t219 68.5q186 0 309 -108.5t123 -272.5q0 -170 -123.5 -283t-310.5 -113q-99 0 -189.5 35t-154.5 103q-158 172 -158 454zM254 360q0 -155 87 -249.5t230 -94.5q134 0 215.5 96.5t81.5 254.5 q0 151 -86 246.5t-219 95.5q-135 0 -222 -98t-87 -251z" />
<glyph unicode="7" horiz-adv-x="890" d="M72 924v290h34v-40h719q16 0 19 8h28q3 -41 -26 -86q-20 -28 -47 -52q-169 -173 -260 -372q-107 -228 -107 -469q0 -43 8 -77.5t34 -61.5t67 -27h16v-37h-289q-18 45 -18 119q0 120 56.5 273t154.5 306q60 95 146 196.5t155 164.5h-524q-50 0 -91 -29.5t-41 -77.5v-28 h-34z" />
<glyph unicode="8" horiz-adv-x="1089" d="M90 313q0 207 285 322q-56 24 -94 59q-99 80 -99 205q0 71 33 129t87 94t120 55t135 19q62 0 121.5 -14.5t112 -43t84.5 -79t32 -115.5q0 -53 -21.5 -96t-61 -74.5t-80.5 -52.5t-95 -41l21 -6q110 -43 147 -62q82 -44 132 -112t50 -152q0 -165 -118 -265t-320 -103 q-84 -2 -164 16t-150.5 56t-113.5 105.5t-43 155.5zM221 317q0 -133 102.5 -219t237.5 -86q125 0 218 78.5t93 200.5q0 90 -63.5 152t-200.5 108l-70 23q-71 24 -104 38q-93 -28 -153 -110.5t-60 -184.5zM295 954q0 -57 32 -105.5t91 -80.5q32 -22 168 -63q211 83 211 237 q0 97 -74.5 159t-175.5 62q-113 0 -182.5 -57.5t-69.5 -151.5z" />
<glyph unicode="9" horiz-adv-x="1101" d="M82 801q0 170 123.5 282.5t310.5 112.5q218 0 344 -137q81 -87 120.5 -205.5t39.5 -249.5q0 -143 -46.5 -272.5t-139.5 -222.5q-132 -132 -320 -132q-194 0 -303 101q-91 81 -88 184q2 56 37.5 98.5t89.5 42.5q43 0 75.5 -30t32.5 -74q0 -32 -24 -49q-19 39 -66 39 q-28 0 -49 -20.5t-22 -49.5q-3 -58 53 -117q86 -92 231 -92q94 0 174.5 45t122.5 125q41 79 67.5 189.5t26.5 214.5q0 16 -4 86l-16 -39q-12 -31 -38.5 -65t-67.5 -68t-102 -56t-130 -22q-186 0 -309 109t-123 272zM233 809q0 -152 85.5 -248t218.5 -96q136 0 222.5 98 t86.5 252t-88 249t-232 95q-131 0 -212 -96t-81 -254z" />
<glyph unicode=":" horiz-adv-x="294" d="M63 76q0 35 24 59.5t58 24.5q35 0 59.5 -24.5t24.5 -59.5q0 -34 -24.5 -59t-59.5 -25q-34 0 -58 25t-24 59zM63 788q0 34 24 59t58 25q35 0 59.5 -25t24.5 -59q0 -35 -24 -58t-60 -23q-34 0 -58 23t-24 58z" />
<glyph unicode=";" horiz-adv-x="505" d="M285 76q0 35 25 59.5t59 24.5q41 0 66.5 -32.5t25.5 -74.5q0 -62 -49 -121q-34 -40 -80 -61l-19 29q54 28 76 96q-12 -4 -20 -4q-34 0 -59 25t-25 59zM285 788q0 34 25.5 59t60.5 25q34 0 58 -25t24 -59q0 -35 -24 -58t-58 -23q-36 0 -61 23t-25 58z" />
<glyph unicode="&#x3c;" horiz-adv-x="970" d="M45 0v37h125q9 486 0 975q0 49 -30 87t-77 38h-18v37h873v38h34v-225h-34v29q0 56 -43.5 88.5t-102.5 32.5h-453q-6 -231 -6 -459q27 -6 60 -6q48 -1 102.5 19t96 44.5t96 45t102.5 20.5q66 0 115 -38.5t49 -103.5q0 -61 -45 -98l-12 10q14 17 14 31q0 47 -37.5 75 t-85.5 28q-63 0 -178.5 -45.5t-177.5 -45.5q-52 0 -99 21q0 -153 4 -469q0 -51 29.5 -90t79.5 -39h16v-37h-397z" />
<glyph unicode="=" horiz-adv-x="1640" d="M51 0v35h125l135 934q2 12 2 45q0 49 -29 86t-77 37h-17v37h377v-37h-108q139 -286 375 -748l348 680q-13 30 -38 49t-57 19h-18v37h377v-37h-121q59 -497 135 -977q8 -51 36.5 -87t74.5 -36h18v-37h-377v37h121q-65 513 -137 971l-418 -818q-315 622 -422 822l-120 -858 q-6 -45 26 -82t84 -37h16v-35h-311z" />
<glyph unicode="&#x3e;" horiz-adv-x="1302" d="M51 397q0 126 73 225t191 146q-51 33 -79.5 80.5t-28.5 101.5q0 61 29.5 109.5t78 77.5t105 44t115.5 15q130 0 200 -51v67h35v-290h-35v55q0 80 -63.5 130t-145.5 50q-78 0 -135 -51t-57 -127q0 -75 57.5 -126.5t134.5 -51.5h4v-33h-4q-96 0 -174.5 -54t-120 -139 t-41.5 -180q0 -160 120 -267.5t282 -107.5q103 0 194.5 37t154 115t63.5 182q0 74 -42.5 129t-113.5 54q-47 0 -80 -33t-35 -80q0 -21 4 -33h-16q-51 6 -83 44.5t-32 90.5q0 64 43 118.5t107 84.5q42 19 108.5 36t117.5 27.5t107 38.5t91 70q37 47 37 105q0 57 -46 100 l21 20q68 -62 68 -157q0 -84 -54 -144q-19 -21 -44 -38.5t-45 -28t-56 -22t-53 -16t-60.5 -14t-56.5 -12.5q93 -31 149.5 -111.5t55.5 -179.5q-1 -80 -31 -149.5t-80.5 -119.5t-116.5 -86t-141 -53.5t-152 -17.5q-96 0 -188.5 27.5t-168 78.5t-121.5 132.5t-46 181.5z" />
<glyph unicode="?" horiz-adv-x="909" d="M170 942q1 83 53 142.5t126 85.5t157 26q71 0 138.5 -20t123 -57t89.5 -96.5t34 -131.5q0 -51 -19 -96.5t-56.5 -84.5t-70 -65.5t-83.5 -60.5q-64 -44 -107 -107.5t-55 -136.5q-8 -62 -8 -92h-58q-4 62 -4 90q-3 169 154 315q49 45 80 80t57.5 89t26.5 108q0 95 -71 159 t-167 64q-61 0 -114 -15.5t-93 -55.5t-41 -99q0 -31 22.5 -53t51.5 -21q33 0 55 29q19 -19 19 -45q0 -41 -32 -67.5t-75 -26.5q-56 1 -94.5 44.5t-38.5 98.5zM379 76q0 34 25 59t59 25q35 0 59.5 -25t24.5 -59q0 -35 -24.5 -59.5t-59.5 -24.5q-34 0 -59 24.5t-25 59.5z" />
<glyph unicode="@" horiz-adv-x="1406" d="M72 588q0 129 54.5 243t145 192.5t210 124.5t247.5 46q162 0 300.5 -75.5t221 -210t82.5 -296.5q0 -67 -11 -127.5t-36.5 -118.5t-75 -93.5t-118.5 -36.5q-40 0 -75 21t-48 56l-19 52q-31 -64 -101 -100t-151 -36q-58 0 -113 13t-104 39t-78.5 72.5t-29.5 107.5 q0 101 106 164q51 30 154 49.5t137 32.5q35 11 60.5 36.5t25.5 57.5q0 63 -49 102t-113 39q-86 0 -127 -29q-52 -36 -55 -84q-2 -22 13.5 -38t37.5 -15q25 0 39 21q14 -14 14 -31q-1 -31 -23 -49.5t-52 -18.5q-38 0 -63 29.5t-25 69.5q0 59 38.5 100.5t91.5 58t111 15.5 q143 0 228 -94q21 -22 36 -54.5t21 -56.5t14 -64l64 -294q19 -109 71 -111q21 0 37.5 7.5t28 25t20 35t13.5 46t8 49.5t4 54t1.5 50t0.5 48q0 143 -66 266.5t-184.5 198t-261.5 74.5q-152 0 -280.5 -76.5t-202.5 -205.5t-76 -281q-2 -154 72.5 -284t204 -205.5t282.5 -75.5 q201 0 324 106l26 -35q-140 -117 -350 -117q-172 0 -322 77.5t-242.5 219t-92.5 314.5zM494 457q0 -83 61 -137t145 -56q90 -2 160.5 47.5t69.5 134.5q0 20 -6 41l-35 183l-15 71q-30 -43 -57 -57q-34 -18 -92.5 -29.5t-106.5 -28t-79 -51.5q-45 -51 -45 -118z" />
<glyph unicode="A" horiz-adv-x="1550" d="M51 0v35h137l603 1186q405 -808 550 -1078q56 -106 142 -106h16v-37h-401v37h131l-203 405h-588l-119 -237q-12 -24 -12 -55v-6q0 -42 28 -74q30 -34 79 -35h18v-35h-381zM457 477h553l-277 541z" />
<glyph unicode="B" horiz-adv-x="1302" d="M113 0v37h125q4 292 4 535.5t-4 439.5q0 50 -30 87.5t-77 37.5h-18v37h299q110 22 221 22q472 0 481 -274v-9q0 -101 -68 -163q-71 -64 -186 -93q59 -9 111 -25t100.5 -43t83 -62.5t55.5 -87t21 -113.5q0 -81 -35 -144.5t-89.5 -101t-129.5 -61.5t-146.5 -33t-148.5 -9 q-120 0 -258 23h-311zM382 586q-1 -56 -2 -116q0 -140 5 -302q1 -49 26 -82t69.5 -47.5t85 -19.5t91.5 -5q60 0 119 11t114.5 35.5t98 60t68 88.5t26.5 117q0 98 -59.5 169.5t-147 104.5t-186.5 33h-308v-47zM382 674h308q134 0 208 66q71 64 71 173v9q-1 66 -35 115 t-88.5 75t-114 38.5t-123.5 12.5q-101 0 -221 -30q-5 -231 -5 -459z" />
<glyph unicode="C" horiz-adv-x="1300" d="M82 582q0 130 54 245.5t144 195.5t210 126.5t249 46.5q125 0 230 -41q100 -41 151 -41q57 0 78 41l10 14l31 -16l-119 -217l-30 16l30 62q-12 13 -63 49q-145 94 -297 94h-4q-148 0 -266 -81q-120 -82 -184 -213t-64 -279q0 -107 34.5 -206.5t96.5 -177t154.5 -125 t201.5 -50.5h15q134 1 247 69q119 72 191 201l20 47l37 -23q-8 -18 -12 -24q-71 -145 -207 -231.5t-297 -86.5q-175 0 -322.5 80.5t-233 220t-85.5 304.5z" />
<glyph unicode="D" horiz-adv-x="1417" d="M113 0v37h123q6 300 6 568q0 214 -4 407q0 50 -30 87.5t-77 37.5h-18v37h299q110 22 221 22q258 0 434 -119q124 -86 196 -215t72 -284q0 -140 -62.5 -259t-172.5 -204q-185 -138 -418 -138q-120 0 -258 23h-311zM377 580q0 -166 6 -412q1 -49 27 -82t70.5 -47.5 t85 -19.5t91.5 -5q111 0 206 45.5t165 124.5q69 78 107.5 182t38.5 214q0 123 -47.5 235t-131.5 195q-76 74 -177 113.5t-210 39.5q-102 0 -221 -33v-24q-10 -245 -10 -526z" />
<glyph unicode="E" d="M113 0v37h125q4 292 4 535.5t-4 439.5q0 50 -30 87.5t-77 37.5h-18v37h921v40h35v-292h-35v34q-1 81 -64.5 131t-144.5 50h-438q-6 -231 -5 -461h382q48 0 84.5 29.5t36.5 76.5v19h35v-291h-35v18q-1 46 -38 75.5t-83 29.5h-382q-1 -90 -2 -172q0 -163 5 -293 q2 -53 30.5 -92t78.5 -39h331q81 0 144.5 49.5t64.5 130.5v35h35v-291h-35v39h-921z" />
<glyph unicode="F" horiz-adv-x="1148" d="M113 0v37h123q4 243 4 487t-4 488q0 50 -29 87.5t-78 37.5h-16v37h919v38h35v-290h-35v34q0 81 -63.5 131t-145.5 50h-438q-6 -231 -7 -463h384q48 0 84.5 29.5t36.5 76.5v19h35v-289h-35v18q-1 46 -37.5 75.5t-83.5 29.5h-384q0 -309 5 -467q2 -52 31 -90.5t78 -38.5h16 v-37h-395z" />
<glyph unicode="G" horiz-adv-x="1406" d="M82 582q0 130 54 245.5t144.5 195.5t210 126.5t248.5 46.5q128 0 230 -41q100 -41 153 -41q57 0 78 41l8 14l33 -16l-121 -217l-30 16l32 62q-24 22 -63 49q-148 94 -297 94h-4q-147 0 -267 -81q-121 -82 -185 -213t-64 -279q0 -145 58.5 -270t171.5 -205t259 -84h18 q174 0 306 114v348q0 50 -30 88.5t-79 38.5h-16v35h395v-35h-123q0 -18 -1 -52t-1 -50q-2 -62 -2 -190q-1 -18 -1 -34q0 -99 3 -132q5 -48 33.5 -83.5t75.5 -35.5h16v-37h-274l4 86q-151 -109 -330 -109q-175 0 -323 80.5t-234 220t-86 304.5z" />
<glyph unicode="H" horiz-adv-x="1411" d="M113 0v37h123q4 243 4 487t-4 488q0 50 -29 88.5t-78 38.5h-16v35h395v-35h-123q-6 -243 -7 -488h654q0 119 -4 361q0 50 -29.5 88.5t-78.5 38.5h-17v35h395v-35h-122q-5 -259 -5 -539q0 -210 3 -432q0 -53 29 -92t79 -39h16v-37h-395v37h123q6 289 6 579h-654 q0 -301 5 -448q2 -52 31 -91.5t78 -39.5h16v-37h-395z" />
<glyph unicode="I" horiz-adv-x="620" d="M113 0v37h123q4 243 4 487t-4 488q0 50 -29 87.5t-78 37.5h-16v37h395v-37h-123q-6 -253 -7 -521q0 -219 5 -448q0 -53 29.5 -92t79.5 -39h16v-37h-395z" />
<glyph unicode="J" horiz-adv-x="638" d="M-41 -92q30 -10 59 -10q84 0 149.5 48t98 121t33.5 156q1 170 1 323q0 256 -3 466q-2 51 -31.5 88t-77.5 37h-16v37h395v-37h-123q-5 -256 -5 -602l1 -317q0 -96 -40 -181q-41 -87 -120 -142t-178 -55q-87 0 -143 35v33z" />
<glyph unicode="K" horiz-adv-x="1282" d="M113 0v35h123q4 292 4 536.5t-4 440.5q0 49 -30 87t-77 38h-16v37h395v-37h-123q-6 -318 -6 -511v-89l510 477q31 27 31 57q0 31 -25.5 48.5t-58.5 17.5h-19v37h381v-37h-117l-424 -396q112 -249 189 -376q23 -39 38 -64t41 -64t47 -63.5t50 -54t55.5 -46.5t59 -28.5 t65.5 -11.5q20 0 60 10v-31q-53 -35 -142 -35h-5q-63 0 -121 24q-60 25 -109 71t-86 94t-74 110q-47 76 -182 357l-164 -152q0 -107 4 -315q0 -51 29.5 -91t79.5 -40h16v-35h-395z" />
<glyph unicode="L" horiz-adv-x="1138" d="M113 0v37h123q5 258 5 537q0 210 -3 432q0 53 -29.5 92t-79.5 39h-16v37h395v-37h-123q-6 -300 -5 -568q0 -214 3 -407q2 -49 30.5 -87t73.5 -38h336q78 0 143.5 50t65.5 130v35h35v-293h-35v41h-919z" />
<glyph unicode="M" horiz-adv-x="1574" d="M102 0v37h125v969q0 53 -28 92t-78 39h-19v37h361v-37h-109q99 -128 439 -551l352 444q22 31 22 49q0 29 -25.5 43.5t-58.5 14.5h-18v37h397v-37h-123q-6 -298 -6 -565q0 -213 4 -406q0 -51 29.5 -90t77.5 -39h18v-37h-397v37h123q6 253 6 526q0 223 -4 459l-459 -582 q-147 193 -463 584v-862q0 -50 29.5 -87.5t79.5 -37.5h16v-37h-291z" />
<glyph unicode="N" horiz-adv-x="1404" d="M102 0v37h123v969q0 54 -27.5 92.5t-78.5 38.5h-17v37h224q457 -530 831 -951v783q0 53 -28 92t-78 39h-19v37h291v-37h-123v-1137h-43q-344 408 -889 1018v-852q0 -51 28.5 -90t78.5 -39h18v-37h-291z" />
<glyph unicode="O" horiz-adv-x="1478" d="M82 588q0 165 87.5 304.5t239 221.5t330.5 82q178 0 329.5 -81.5t240 -222t88.5 -304.5q0 -166 -88.5 -307t-240 -222.5t-329.5 -81.5q-179 0 -330.5 81.5t-239 222.5t-87.5 307zM240 588q0 -154 67 -284t182 -205.5t250 -75.5t249.5 75.5t181.5 205.5t67 284 q0 153 -67 282.5t-181.5 205t-249.5 75.5t-250 -75.5t-182 -205t-67 -282.5z" />
<glyph unicode="P" horiz-adv-x="1241" d="M113 0v37h125q4 292 4 535.5t-4 439.5q0 49 -30 87t-77 38h-18v37h297q110 22 223 22q78 0 153.5 -11.5t149.5 -40t129.5 -71t90 -109t34.5 -149.5t-34.5 -150.5t-90 -111t-129.5 -72.5t-149.5 -41t-153.5 -12q-142 0 -252 29q0 -95 4 -291q0 -51 29.5 -90t77.5 -39h18 v-37h-397zM381 492q93 -29 225 -29q109 0 206 39t162.5 121.5t65.5 191.5q0 82 -38 149.5t-100 110t-138 65.5t-156 23q-109 0 -221 -28v-21q-6 -339 -6 -561v-61z" />
<glyph unicode="Q" horiz-adv-x="1478" d="M82 588q0 165 87.5 304.5t239 221.5t330.5 82t331 -82t239.5 -222t87.5 -304q0 -210 -137.5 -373.5t-350.5 -216.5q29 -12 80.5 -40.5t95 -45.5t86.5 -18q60 0 105 34q40 29 40 79q0 8 -1 16h22q3 -21 3 -40q0 -81 -47 -143q-58 -78 -158 -78q-46 0 -96.5 24t-89 52.5 t-90 52.5t-97.5 25q-46 0 -80.5 -22.5t-34.5 -69.5h-20q-2 12 -2 24q0 74 69 129q-169 11 -309.5 95t-221.5 220.5t-81 295.5zM240 588q0 -154 67 -284t182 -205.5t250 -75.5t250 75.5t182.5 205.5t67.5 284q0 153 -67.5 282.5t-182.5 205t-250 75.5t-250 -75.5t-182 -205 t-67 -282.5z" />
<glyph unicode="R" horiz-adv-x="1290" d="M113 0v35h123q5 260 5 542q0 211 -3 435q0 49 -30 87t-77 38h-18v37h297q110 22 223 22q78 0 153.5 -11.5t149.5 -40t129.5 -71t90 -109t34.5 -149.5t-34 -150.5t-93 -112t-128.5 -72t-150.5 -40.5q48 -106 80 -161q138 -244 295 -244q30 0 60 10v-33q-56 -35 -142 -35 q-203 0 -342 226q-43 70 -108 225q-128 0 -244 29v-291q0 -51 30.5 -91t78.5 -40h18v-35h-397zM379 492q102 -31 227 -31q109 0 206 39.5t162.5 122.5t65.5 192q0 82 -38 149.5t-100.5 110t-139 65.5t-156.5 23q-107 0 -219 -28l-2 -91q-6 -462 -6 -552z" />
<glyph unicode="S" horiz-adv-x="980" d="M51 303q0 78 50 137t126 60q59 0 102.5 -35.5t49.5 -93.5q1 -6 1 -12q0 -35 -32 -62q-31 45 -86 45q-43 0 -72.5 -32t-29.5 -74q0 -60 55 -119q100 -103 250 -103q85 0 161 34t126 100.5t51 152.5q0 128 -123 215q-51 37 -159 86.5t-150 75.5q-162 97 -162 248 q0 122 98.5 196t227.5 74q117 0 196 -51v67h35v-290h-35v55q0 81 -63 131.5t-146 50.5q-78 0 -135 -51.5t-57 -128.5q0 -57 31 -98.5t88 -77.5q49 -32 156.5 -80.5t156.5 -79.5q78 -49 122 -123q44 -73 44 -164q0 -118 -70 -206q-68 -88 -169.5 -130.5t-213.5 -42.5 q-183 0 -307 101q-55 42 -86 100.5t-31 124.5z" />
<glyph unicode="T" horiz-adv-x="1232" d="M82 922v290h35v-38h999v38h35v-290h-35v34q-1 79 -70 130t-151 51h-203l-2 -58q-4 -105 -4 -477q0 -72 2 -217t2 -219q0 -52 29 -91.5t80 -39.5h16v-35h-395v35h121q0 22 1 63.5t1 61.5q4 300 4 442q0 372 -4 477l-2 58h-203q-84 0 -152.5 -51t-68.5 -130v-34h-35z" />
<glyph unicode="U" horiz-adv-x="1277" d="M92 1137v37h397v-37h-122q-7 -303 -7 -779q0 -138 101 -236.5t241 -98.5q138 0 240 93t102 228v662q0 53 -28.5 92t-77.5 39h-18v37h286v-37h-123v-793q0 -110 -63.5 -195.5t-161 -128.5t-207.5 -43q-111 0 -209 46.5t-160 135.5q-61 88 -61 196l1 264q0 209 -3 391 q-2 51 -31 89t-77 38h-19z" />
<glyph unicode="V" horiz-adv-x="1310" d="M51 1137v37h375v-37h-107q153 -382 388 -947l329 795q8 19 8 43q0 46 -32 77.5t-78 31.5h-43v37h369v-37h-117l-475 -1151h-31q-275 688 -438 1063q-17 40 -52 64t-77 24h-19z" />
<glyph unicode="W" horiz-adv-x="1722" d="M41 1139v35h375v-35h-109q207 -511 389 -949l140 342q-44 103 -117.5 281t-97.5 236q-17 40 -53.5 65t-78.5 25h-16v35h375v-35h-107q70 -184 170 -422l113 270q8 16 8 41q0 46 -33 78.5t-77 32.5h-17v35h350v-35h-127l-194 -475l194 -474l330 797q6 18 6 41 q0 46 -32 78.5t-78 32.5h-41v35h368v-35h-118l-476 -1153h-28l-201 493l-205 -493h-30q-207 526 -437 1063q-18 40 -52.5 65t-76.5 25h-16z" />
<glyph unicode="X" horiz-adv-x="1273" d="M51 0v37h115l418 553q-56 83 -320 467q-59 82 -129 82h-18v35h391v-35h-123l287 -430l207 274q20 26 20 59q-2 38 -30.5 67.5t-69.5 29.5h-17v35h377v-35h-115l-350 -465q151 -222 379 -549q58 -88 133 -88h17v-37h-392v37h123q-196 296 -348 520l-270 -360 q-25 -32 -25 -62q0 -39 30.5 -68.5t72.5 -29.5h18v-37h-381z" />
<glyph unicode="Y" horiz-adv-x="1343" d="M51 1139v35h393v-35h-122q273 -415 378 -568l312 412q18 23 18 59q0 38 -29 67.5t-71 29.5h-17v35h379v-35h-112l-439 -580q0 -133 4 -391q0 -53 29 -92t80 -39h16v-37h-395v37h123q4 286 4 430q-220 326 -401 590q-59 82 -131 82h-19z" />
<glyph unicode="Z" horiz-adv-x="1001" d="M61 0v37q168 253 707 1102h-463q-57 0 -101 -33.5t-44 -87.5v-31h-33v227h33v-40h780v-35q-187 -285 -707 -1102h527q57 0 101 33.5t44 87.5v30h35v-227h-35v39h-844z" />
<glyph unicode="[" horiz-adv-x="475" d="M78 -174v1524h227v-37h-125v-1450h125v-37h-227z" />
<glyph unicode="\" horiz-adv-x="550" d="M6 1253h84l455 -1331h-84z" />
<glyph unicode="]" horiz-adv-x="460" d="M150 -137h122v1450h-122v37h227v-1524h-227v37z" />
<glyph unicode="^" horiz-adv-x="997" d="M55 307q-1 98 57 172.5t145.5 110t186.5 35.5q111 0 203 -58q-26 119 -35 140q-28 58 -75.5 94.5t-106.5 36.5q-84 0 -147.5 -53t-63.5 -136v-18h-35v229h35v-43q80 53 221 53q158 0 260 -114q56 -61 84 -207l95 -449q7 -27 26.5 -47t46.5 -20h9v-27q-32 -14 -84 -14 q-47 0 -85 27t-47 71l-14 78q-43 -84 -131.5 -130t-191.5 -46q-90 0 -170 39t-131 112t-52 164zM193 309q0 -111 75 -190.5t183 -79.5q95 0 170 57.5t94 147.5l-53 264q-75 69 -183 72q-116 2 -201 -77t-85 -194z" />
<glyph unicode="`" horiz-adv-x="374" d="M14 1483q0 22 15.5 35.5t38.5 13.5q18 0 33 -8t40 -35l221 -232h-34l-222 134q-53 31 -72.5 50.5t-19.5 41.5z" />
<glyph unicode="a" horiz-adv-x="1064" d="M104 310q0 96 58 170q59 74 146.5 109.5t185.5 35.5q146 0 249 -95q-3 109 -53 187q-34 55 -89.5 87t-117.5 32h-6q-83 0 -145 -51q-64 -53 -64 -138v-18h-37v231h37v-45q80 53 221 53q177 0 277 -92q106 -95 106 -246q0 -90 5 -397q0 -40 21.5 -70t57.5 -30h17v-33h-234 q0 72 2 113q-51 -60 -126 -90.5t-158 -30.5q-90 0 -170 39t-131 112q-52 74 -52 167zM318.5 119q74.5 -80 181.5 -80q78 0 143.5 38t97.5 105l2 287q-36 52 -92.5 80.5t-120.5 30.5h-6q-113 0 -196 -77q-84 -78 -84 -191t74.5 -193z" />
<glyph unicode="b" d="M113 1278v35h233q-6 -261 -6 -533q116 90 268 90q126 0 236 -56t178 -159t68 -229q0 -123 -67 -224t-174.5 -155.5t-230.5 -54.5q-159 0 -278 110q-9 -48 -45.5 -79t-85.5 -31q-69 0 -92 14v29h10q37 0 58.5 29t23.5 69q3 247 3 478q0 297 -5 569q0 39 -21.5 68.5 t-60.5 29.5h-12zM340 666q0 -338 4 -506q48 -60 120 -94q67 -31 139 -31h13q99 2 176.5 60t117.5 146t40 187q0 104 -42.5 195t-125 149.5t-186.5 58.5q-148 0 -256 -108v-57z" />
<glyph unicode="c" horiz-adv-x="1005" d="M82 428q0 127 68.5 229.5t179 157.5t237.5 55q176 0 273 -65v55h37v-229h-37v12q0 64 -41 110t-99 65.5t-122 19.5q-105 -1 -188 -60.5t-126 -152t-43 -197.5q0 -163 89 -277t245 -120h10q103 -1 192 57q93 60 136 162l31 -19q-49 -110 -150 -174.5t-221 -64.5 q-194 0 -332.5 127t-138.5 309z" />
<glyph unicode="d" d="M82 426q0 126 67.5 229t177 159t234.5 56q151 0 273 -92q0 70 -5 402q-2 39 -23 68.5t-58 29.5h-13v35h234q-7 -346 -7 -663q0 -269 5 -517q0 -39 22 -68.5t58 -29.5h12v-35h-232q2 35 2 102q-119 -110 -276 -110q-124 0 -231.5 54.5t-173.5 155.5t-66 224zM221 428 q0 -99 39 -187t117 -146.5t178 -61.5h4q79 0 149 34q72 35 123 99v151q3 282 3 404q-49 52 -118 81t-143 29q-104 0 -186 -58.5t-124 -149.5t-42 -195z" />
<glyph unicode="e" horiz-adv-x="1034" d="M82 426q0 125 68 228t178 159.5t235 56.5q157 0 273 -103t116 -257q0 -11 -4 -31h-725q-2 -16 -2 -51q0 -106 38.5 -195t117.5 -145.5t184 -56.5q122 0 218.5 72t131.5 190l33 -12q-40 -129 -148 -209t-243 -80q-127 0 -235.5 57.5t-172 157.5t-63.5 219zM227 510h576 q4 16 4 53q0 106 -67.5 188.5t-170.5 82.5h-3q-137 0 -225 -90q-89 -92 -114 -234z" />
<glyph unicode="f" horiz-adv-x="821" d="M113 0v35h94q3 173 3 346t-3 346q0 40 -21.5 71t-58.5 31h-14v31h96q0 16 1 46t1 44v6q0 148 101 256q104 109 255 109q111 0 191 -51v43h33v-217h-33v16q-1 74 -56.5 125t-130.5 51q-62 0 -108.5 -31t-71 -82.5t-36.5 -107.5t-13 -117q0 -14 -1 -44t-1 -46h188v-31h-188 q-1 -93 -1 -193q0 -233 5 -503q2 -40 24 -69t58 -29h12v-35h-325z" />
<glyph unicode="g" horiz-adv-x="1159" d="M92 426q0 126 67.5 229t177.5 159t236 56q156 0 275 -96q12 42 47.5 69t79.5 27q57 0 92 -14v-29h-10q-37 0 -59.5 -30.5t-22.5 -69.5q-2 -138 -2 -862q0 -150 -123 -238q-120 -86 -288 -86h-11q-149 0 -260 80q-101 74 -101 174v6q0 55 34 96t89 42q40 0 73 -25.5 t34 -65.5q0 -35 -23 -53q-22 33 -59 33q-30 0 -51 -22.5t-21 -53.5q0 -71 88 -125q82 -51 181 -51q73 2 137 28.5t106 76.5q64 67 64 159q2 88 2 266q-55 -55 -128.5 -84.5t-152.5 -29.5q-124 0 -231.5 54.5t-173.5 155.5t-66 224zM231 428q0 -99 40 -188.5t119.5 -148 t180.5 -58.5q81 0 152 35.5t121 99.5v80q0 319 -4 475q-105 108 -254 108q-105 0 -187.5 -58.5t-125 -149.5t-42.5 -195z" />
<glyph unicode="h" d="M113 0v35h94q6 353 6 667q0 251 -4 478q0 38 -22 68t-60 30h-14v35h233q-6 -279 -6 -574q46 64 115 98.5t151 34.5q168 0 271 -92q106 -95 106 -248q0 -276 2 -399q2 -40 24 -69t58 -29h12v-35h-323v35h92q4 320 4 493q0 108 -51 191q-34 53 -87 85t-118 32 q-88 0 -160.5 -55t-95.5 -140q0 -344 4 -508q2 -40 24 -69t58 -29h12v-35h-325z" />
<glyph unicode="i" horiz-adv-x="540" d="M113 0v35h92q4 237 4 433q0 140 -2 259q0 40 -22 71t-60 31h-12v31h233q-6 -242 -6 -465q0 -134 2 -262q2 -40 24 -69t58 -29h14v-35h-325zM164 1044q0 38 27 65.5t65 27.5t65 -27.5t27 -65.5t-27 -65t-65 -27t-65 27t-27 65z" />
<glyph unicode="j" horiz-adv-x="491" d="M10 -420q47 14 81 49t52.5 83t27 97.5t9.5 102.5q2 145 2 311q0 232 -4 506q0 38 -23 69t-59 31h-12v31h326v-31h-95q-3 -147 -3 -344v-155q1 -100 1 -179q0 -159 -2 -239q-3 -137 -87 -242t-214 -125v35zM135 1044q0 38 27.5 65.5t64.5 27.5q40 0 67.5 -27.5t27.5 -65.5 t-27.5 -65t-67.5 -27q-37 0 -64.5 27t-27.5 65z" />
<glyph unicode="k" horiz-adv-x="1095" d="M113 0v35h94q6 390 6 697q0 251 -4 448q-2 39 -23.5 68.5t-60.5 29.5h-12v35h233q-7 -321 -7 -654q0 -111 1 -223l334 269q39 27 39 59q0 29 -24 46t-54 17h-17v33h373v-33h-98l-277 -221q105 -191 308 -524q29 -47 84 -47h16v-35h-336v35h103q-136 241 -285 485 l-166 -131l4 -256q0 -39 22 -68.5t60 -29.5h12v-35h-325z" />
<glyph unicode="l" horiz-adv-x="550" d="M113 0v35h94q6 353 6 667q0 251 -4 478q0 38 -22 68t-60 30h-14v35h233q-8 -375 -8 -687q0 -270 6 -493q2 -40 24 -69t58 -29h12v-35h-325z" />
<glyph unicode="m" horiz-adv-x="1683" d="M113 0v35h94q4 237 4 433q0 140 -2 259q0 40 -23 71t-61 31h-12v31h233q-2 -29 -2 -88q87 100 244 100q91 0 169.5 -44t121.5 -119q38 82 113 122.5t171 40.5q133 0 231.5 -90t98.5 -221q0 -307 2 -428q2 -40 24 -69t60 -29h12v-35h-325v35h92q6 240 6 522 q0 110 -60.5 194.5t-164.5 84.5q-80 0 -146.5 -50.5t-91.5 -126.5q17 -53 17 -98q0 -307 2 -428q2 -40 23.5 -69t57.5 -29h15v-35h-328v35h94q5 200 5 376q0 75 -1 146q0 70 -24.5 132.5t-77 104.5t-121.5 42t-128.5 -38t-92.5 -100q-1 -116 -1 -225q0 -181 3 -340 q0 -39 22 -68.5t58 -29.5h14v-35h-325z" />
<glyph unicode="n" d="M113 0v35h94q3 195 3 417q0 133 -1 275q0 40 -23 71t-61 31h-12v31h233q-2 -37 -2 -115q44 61 113 94t149 33q168 0 271 -92q106 -95 106 -248q0 -276 2 -399q2 -40 24 -69t58 -29h12v-35h-325v35h94q3 221 3 367q0 73 -1 126q0 52 -16.5 105.5t-47 99t-80.5 74.5 t-110 29q-86 0 -157 -52t-97 -135q-1 -106 -1 -205q0 -165 3 -311q0 -39 22 -68.5t58 -29.5h14v-35h-325z" />
<glyph unicode="o" horiz-adv-x="1112" d="M82 432q0 93 39.5 176t105 139.5t152 89.5t178.5 33t178.5 -33t151.5 -89.5t104 -139.5t39 -176q0 -124 -66.5 -226t-174.5 -158t-232 -56q-92 0 -178.5 33t-152 90.5t-105 140.5t-39.5 176zM221 434q0 -102 38 -194t116.5 -153.5t181.5 -61.5t181 61q78 62 116 154 q37 90 37 189v5q0 75 -22.5 146.5t-63.5 129.5t-105.5 93t-142.5 35q-103 0 -181.5 -60.5t-116.5 -151.5t-38 -192z" />
<glyph unicode="p" horiz-adv-x="1142" d="M82 -418h94q5 326 5 612.5t-5 532.5q0 39 -22 69.5t-58 30.5h-14v33h233q-2 -27 -2 -78q115 86 267 86q126 0 235.5 -55.5t177.5 -158t68 -228.5q0 -123 -66.5 -224t-174 -155.5t-230.5 -54.5q-167 0 -281 114q0 -149 4 -423q0 -40 22 -70.5t60 -30.5h13v-33h-326v33z M309 168q47 -65 121 -100q73 -35 153 -35h5q100 3 177.5 61.5t117 146.5t39.5 187q0 161 -99 282q-98 119 -251 119h-3q-153 0 -256 -106v-59q-4 -328 -4 -496z" />
<glyph unicode="q" horiz-adv-x="1155" d="M90 426q0 126 68 228.5t177.5 158t235.5 55.5q159 0 275 -94q12 42 46.5 69t78.5 27q57 0 92 -14v-29h-10q-38 0 -60 -30t-22 -70q-3 -313 -3 -574t3 -470q0 -40 22 -70.5t60 -30.5h12v-33h-326v33h92q6 232 9 520q-55 -52 -128.5 -81t-150.5 -29q-124 0 -231.5 54.5 t-173.5 155.5t-66 224zM229 428q0 -100 39.5 -188t117 -146t177.5 -61h5q78 0 148 33q73 34 124 98v65q0 342 -4 496q-101 104 -252 104h-4q-102 0 -184 -57q-82 -58 -124.5 -149t-42.5 -195z" />
<glyph unicode="r" horiz-adv-x="849" d="M113 0v35h92q4 237 4 433q0 140 -2 259q0 40 -22 71t-60 31h-12v31h233q-2 -29 -2 -90q37 46 95 73t122 27q116 0 201 -55v45h37v-231h-37v20q0 81 -62 133t-145 52q-75 0 -135.5 -46.5t-77.5 -119.5q-1 -111 -1 -214q0 -172 3 -321q0 -39 22 -68.5t58 -29.5h14v-35h-325 z" />
<glyph unicode="s" horiz-adv-x="911" d="M92 276q0 66 42.5 116.5t107.5 51.5q52 0 91 -30.5t42 -81.5q0 -41 -29 -64q-9 18 -30.5 29.5t-43.5 11.5q-36 0 -61 -27.5t-25 -64.5q0 -76 82.5 -133t190.5 -57q95 0 168 54t73 144q0 134 -202 189q-51 14 -84 25t-79.5 33t-73.5 46t-47 62q-19 36 -19 80q1 71 45 120 q44 48 103.5 68t127.5 20q141 0 221 -53v45h35v-231h-35v18q0 83 -64 136t-149 53q-63 0 -112 -38t-50 -98q-1 -32 14.5 -59t35.5 -43.5t56.5 -32t58.5 -22.5t61 -17q56 -15 103 -36.5t90.5 -53.5t68 -78t24.5 -102q0 -67 -32.5 -120t-86 -83t-115 -45.5t-126.5 -15.5 q-164 0 -270.5 81t-106.5 203z" />
<glyph unicode="t" horiz-adv-x="577" d="M51 829v31h31q100 0 159.5 83.5t59.5 191.5v16h33v-291h203v-31h-205q0 -471 4 -696q2 -40 24 -70t58 -30h10v-29q-28 -12 -90 -12q-58 0 -97.5 40.5t-39.5 98.5q3 306 3 514q0 104 -1 184h-152z" />
<glyph unicode="u" horiz-adv-x="1163" d="M92 827v33h328v-33h-94q-5 -194 -5 -358q0 -70 1 -135q0 -107 53 -189q77 -120 200 -120q87 0 158.5 51.5t97.5 134.5q1 107 1 206q0 165 -3 310q0 40 -22.5 70t-61.5 30h-12v33h328v-33h-94q-5 -187 -5 -387q0 -150 3 -307q2 -40 23.5 -70t58.5 -30h14v-33h-234 q2 39 2 115q-94 -123 -264 -123t-268 90q-107 94 -107 246q0 276 -2 399q-2 40 -24.5 70t-59.5 30h-12z" />
<glyph unicode="v" horiz-adv-x="1062" d="M51 827v33h309v-33h-88q155 -347 303 -653l252 543q7 17 7 35q0 31 -23.5 53t-58.5 22h-13v33h273v-33h-90l-385 -827h-27q-210 471 -350 758q-32 69 -94 69h-15z" />
<glyph unicode="w" horiz-adv-x="1409" d="M51 827v33h301v-33h-80q156 -349 301 -657l111 227l-168 361q-14 31 -39.5 50t-56.5 19h-12v33h288v-33h-69l127 -282l86 172q6 15 6 35q-2 32 -24 53.5t-56 21.5h-14v33h278v-33h-96l-158 -327q14 -30 69.5 -150t82.5 -176l243 543q9 15 9 35q0 31 -23.5 53t-58.5 22 h-13v33h273v-33h-90l-377 -827h-25q-26 56 -81 177t-80 175l-170 -352h-25q-210 471 -350 758q-32 69 -94 69h-15z" />
<glyph unicode="x" horiz-adv-x="962" d="M51 0v33h92l281 370q-48 69 -139.5 196t-120.5 167q-39 61 -90 61h-23v33h318v-33h-86l223 -319l141 186q27 35 27 60q-2 30 -21 51.5t-49 21.5h-20v33h307v-33h-92l-271 -354l271 -377q47 -63 92 -63h20v-33h-315v33h84q-43 63 -122.5 177t-108.5 157l-154 -201 q-25 -32 -25 -60q0 -30 19 -51.5t49 -21.5h20v-33h-307z" />
<glyph unicode="y" horiz-adv-x="1120" d="M-10 -219h35v-21q0 -82 62.5 -133t145.5 -51q50 0 92 20.5t74 58.5t54 76.5t43 88.5l84 194q-222 495 -344 744q-33 71 -95 71h-14v31h309v-31h-88q136 -303 301 -653l232 533q10 23 10 43q0 30 -23 52.5t-57 22.5h-12v33h270v-33h-90l-447 -1026q-23 -53 -48 -94.5 t-59.5 -81.5t-80 -62t-98.5 -22q-144 0 -221 51v-43h-35v232z" />
<glyph unicode="z" horiz-adv-x="899" d="M82 0v35q179 243 565 792h-342q-56 0 -98.5 -26.5t-42.5 -77.5v-25h-35v193h35v-31h653v-33q-19 -27 -157.5 -219t-235 -327t-172.5 -246h387q57 0 100 25.5t43 76.5v25h35v-193h-35v31h-700z" />
<glyph unicode="{" horiz-adv-x="526" d="M10 571v31q59 14 97 61.5t38 110.5q0 40 -13 122t-13 128q0 96 48 182t136 115q38 12 70 12v-28q-39 -3 -70 -23q-40 -25 -61 -69.5t-21 -94.5q0 -41 13.5 -124.5t13.5 -129.5q0 -86 -47 -160.5t-127 -115.5q79 -42 126.5 -116t47.5 -163q0 -53 -12 -123 q-8 -51 -10.5 -81t0 -75t22 -78.5t55.5 -57.5q41 -23 70 -23v-31q-31 2 -70 15q-85 38 -134.5 118.5t-49.5 178.5q0 41 13 122.5t13 124.5q0 62 -36 110.5t-99 61.5z" />
<glyph unicode="|" horiz-adv-x="1492" d="M41 801q0 185 94 424h98v102q63 -17 135 -4.5t123.5 34.5t123.5 43t135 21q57 0 126 -20.5t120 -40.5t125 -30.5t139 9.5v-114h96q96 -236 96 -424q0 -71 -18.5 -130t-44.5 -94.5t-52 -61t-44.5 -42.5t-18.5 -27q0 -62 98 -135q-77 -28 -152 -58.5t-181.5 -78t-186.5 -99 t-109 -95.5q-30 50 -108 103t-179.5 97.5t-177.5 73t-151 53.5q2 2 15 14.5t18 18t16.5 18t17 21.5t12.5 21t10 23.5t3 22.5q0 10 -18.5 27.5t-44.5 44t-52 62t-44.5 94t-18.5 127.5zM131 801q0 -170 102 -230q78 -49 78 -125q0 -42 -30 -96q326 -114 469 -241 q117 107 462 239q-30 46 -30 98q0 76 78 125q102 64 102 230q0 165 -70 334h-125v100q-130 5 -313 76q-53 20 -104 20q-58 0 -111 -20q-183 -71 -315 -76v-100h-123q-70 -191 -70 -334zM158 801q0 143 59 309h133v102q157 15 301 74q53 19 99 19t96 -19q139 -59 295 -74 v-102h135q59 -166 59 -309q0 -155 -90 -209q-88 -52 -88 -146q0 -34 17 -86q-206 -74 -424 -221q-142 109 -437 223q4 16 10.5 34.5t9.5 29t3 20.5q0 94 -88 146q-90 54 -90 209zM399 623h131q-11 5 -18.5 11t-10.5 10.5t-3 6.5v156h90v-291q0 -24 -53 -51h450l96 127 q-68 -47 -133 -47h-239v262h92v-156q0 -3 -9 -12t-22 -16h135q-14 7 -24.5 16t-10.5 12v156h117q42 0 60 -27v105q-24 -27 -60 -27h-117v135h199q42 0 74 -18l-35 74h-336q29 -20 29 -35v-156h-92v250q0 10 10.5 20.5t36.5 30.5q5 4 8 6h-225q49 -38 49 -57v-250h-90v156 q0 16 32 35h-131q18 -11 24.5 -18t6.5 -17v-363q0 -2 -2.5 -6.5t-10 -10.5t-18.5 -11zM702 330q15 -22 27 -51t17 -47l4 -19q12 68 47 117q-9 3 -17 2t-13 -4l-5 -4q0 22 -12 45q-4 -10 -7 -21.5t-3 -17.5l-1 -6q-2 2 -5 3.5t-13.5 4.5t-18.5 -2z" />
<glyph unicode="}" horiz-adv-x="544" d="M174 -129q30 0 68 23q36 24 56 58t23 78t0.5 75.5t-10.5 80.5q-14 66 -14 123q0 89 47.5 163t126.5 116q-80 41 -127 115.5t-47 160.5q0 46 14.5 129.5t14.5 124.5q0 49 -22 94t-62 70q-28 20 -68 23v28q34 0 68 -12q88 -29 136 -115t48 -182q0 -46 -13.5 -128 t-13.5 -122q0 -62 38.5 -110t97.5 -62v-31q-62 -13 -99 -62t-37 -110q0 -43 13.5 -125t13.5 -122q0 -99 -49 -179t-135 -118q-35 -12 -68 -15v31z" />
<glyph unicode="~" horiz-adv-x="632" d="M59 1317q15 64 55 107.5t101 43.5q42 0 121 -32.5t121 -32.5q31 0 57 18.5t33 48.5h31q-15 -63 -55.5 -107t-100.5 -44q-42 0 -120.5 32.5t-121.5 32.5q-31 0 -57 -18.5t-33 -48.5h-31z" />
<glyph unicode="&#xa1;" horiz-adv-x="266" d="M47 1114q0 34 24 58t58 24q35 0 59.5 -24t24.5 -58q0 -35 -24.5 -59.5t-59.5 -24.5q-34 0 -58 24.5t-24 59.5zM49 225q0 62 14 195q4 41 12.5 114.5t14.5 125t6 57.5q6 198 6 201v22h58v-22q0 -69 8 -201l35 -297q14 -133 14 -195q0 -104 -24 -168.5t-62 -64.5 q-36 0 -59 65t-23 168z" />
<glyph unicode="&#xa2;" horiz-adv-x="1075" d="M45 428q0 125 68 227.5t178 158.5t235 56q152 0 271 -90q0 14 -1 40t-1 40h231v-31h-92q-12 -458 -4 -964q3 -135 -127 -236q-109 -88 -293 -88q-151 0 -262 80q-103 78 -103 180q0 55 35.5 96.5t89.5 41.5q42 0 74.5 -25.5t32.5 -65.5q0 -35 -21 -53q-23 33 -61 33 q-32 0 -52 -22t-20 -54q0 -68 88 -125q87 -49 183 -49q70 0 134 25.5t105 74.5q59 72 62 162q4 180 4 266q-120 -114 -283 -114q-123 0 -230.5 54.5t-174 156t-66.5 225.5zM186 428q0 -153 92 -270t240 -123q85 -3 157.5 33t123.5 102v70q0 317 -2 483q-105 108 -256 108 q-105 0 -187.5 -58.5t-125 -149.5t-42.5 -195z" />
<glyph unicode="&#xa3;" horiz-adv-x="1089" d="M41 168q-1 80 65.5 124t151.5 42q103 0 291 -96q0 7 1 20.5t1 20.5q0 144 -117 278h-239l28 61h150q-65 71 -101 133.5t-36 137.5q-1 73 32.5 133t89 97t122.5 57t138 20q61 0 119 -15.5t107 -46t79 -81t31 -113.5q0 -54 -39 -97.5t-94 -43.5q-42 0 -74.5 26.5 t-33.5 67.5q0 25 20 45q21 -31 55 -31q31 0 52.5 22t21.5 54q-1 59 -41 99t-92.5 55.5t-112.5 15.5q-98 0 -169 -64t-70 -159q0 -31 9 -62.5t18 -53t33 -55t34 -46.5t42.5 -50t39.5 -45h289l-29 -61h-213q65 -105 68 -219q3 -78 -33 -148q158 -81 227 -81q104 0 154 67 l20 -8q-16 -81 -75 -136t-140 -55q-61 0 -119.5 28t-128.5 79q-47 -51 -115.5 -79t-142.5 -28q-121 0 -200 64q-74 53 -74 127zM113 154q0 -43 34 -82q60 -60 166 -60q60 2 116.5 34t82.5 83q-162 127 -270 127q-51 0 -90.5 -27t-38.5 -75z" />
<glyph unicode="&#xa5;" horiz-adv-x="1288" d="M23 1139v35h393v-35h-123q250 -380 379 -568l311 412q18 23 18 59q0 38 -29 67.5t-71 29.5h-16v35h379v-35h-113l-434 -574h258l-39 -61h-223v-53h262l-39 -62h-223l4 -221q0 -54 28.5 -92.5t79.5 -38.5h17v-37h-396v37h123l4 352h-290l41 62h249v16l-24 37h-266l41 61 h184l-336 492q-59 82 -131 82h-18z" />
<glyph unicode="&#xa7;" horiz-adv-x="837" d="M68 109q-12 64 17.5 119.5t90.5 68.5q46 11 89.5 -10.5t56.5 -67.5q6 -35 -13 -65q-32 32 -78 22q-34 -7 -51.5 -38t-11.5 -66q13 -60 90 -103q73 -39 156 -39q99 2 174.5 59t75.5 152q0 31 -10.5 57t-33 47.5t-43.5 36.5t-57 31t-57 24t-60 21q-55 18 -92.5 33.5t-84 42 t-75 55.5t-48 72.5t-19.5 95.5q0 57 29.5 111t76.5 92l-8 8q-63 63 -63 150q-1 118 94 191t219 73q73 0 138.5 -24t111.5 -78t47 -127q0 -51 -34.5 -90t-84.5 -39q-38 0 -67.5 24t-30.5 62q0 19 16 39q19 -25 52 -25q28 -1 47.5 18.5t19.5 47.5q0 40 -19.5 70.5t-51.5 48 t-68.5 26t-75.5 8.5q-87 -2 -152.5 -54t-64.5 -134q1 -34 16 -62t42 -48.5t53 -34t61 -27.5q24 -9 95.5 -31.5t109.5 -38.5q80 -35 132.5 -95.5t55.5 -139.5q1 -63 -29.5 -117t-86.5 -88q50 -35 76.5 -88t25.5 -113q-1 -86 -53.5 -150.5t-129.5 -95.5t-163 -32 q-103 0 -205 45q-127 58 -147 170zM176 709q0 -46 19 -83t55.5 -64t71 -44t84.5 -35q164 -57 223 -90l10 8q24 16 40.5 50.5t16.5 74.5q0 63 -46.5 111t-114.5 72q-76 22 -205 67q-55 19 -101 53q-53 -47 -53 -120z" />
<glyph unicode="&#xa8;" horiz-adv-x="714" d="M70 1372q0 39 27.5 66.5t66.5 27.5q38 0 65 -27t27 -67q0 -38 -27 -65t-65 -27t-66 27t-28 65zM459 1372q0 40 27 67t67 27q37 0 64.5 -27.5t27.5 -66.5q0 -38 -27.5 -65t-64.5 -27q-40 0 -67 27t-27 65z" />
<glyph unicode="&#xa9;" horiz-adv-x="1286" d="M53 582q0 120 46.5 229t126 188t189 125.5t230.5 46.5q159 0 294 -78.5t213.5 -214.5t78.5 -296t-78.5 -296t-214 -215t-295.5 -79t-296 79t-215 215t-79 296zM113 584q0 -147 71 -271t193 -196t266 -72q145 0 268 72t194 196t71 271q0 145 -71 268.5t-193.5 195.5 t-266.5 72q-145 0 -267.5 -72t-193.5 -195.5t-71 -268.5zM295 584q0 149 102.5 253.5t259.5 104.5q54 0 116.5 -19.5t103.5 -52.5q44 -35 70 -86.5t26 -109.5q0 -54 -31 -93.5t-76 -39.5q-37 0 -64.5 28.5t-27.5 67.5q0 32 23 47q8 -15 23 -26t30 -11q24 0 41.5 19.5 t17.5 46.5q3 71 -59 129q-67 61 -172 61q-119 0 -198 -97t-79 -222t78 -221.5t191 -96.5q199 0 297 219l26 -20q-45 -108 -133 -176t-190 -68q-89 0 -162 31t-118.5 83t-70 116t-24.5 133z" />
<glyph unicode="&#xab;" horiz-adv-x="643" d="M35 586l203 340h96l-201 -340l201 -336h-96zM276 586l205 340h97l-201 -340l201 -336h-97z" />
<glyph unicode="&#xad;" horiz-adv-x="792" d="M154 547v84h430v-84h-430z" />
<glyph unicode="&#xae;" horiz-adv-x="1286" d="M670 891q0 116 82.5 198t199.5 82q115 0 197 -82t82 -198q0 -117 -81.5 -199t-197.5 -82q-117 0 -199.5 82t-82.5 199zM698 891q0 -106 75 -181t179 -75q103 0 177.5 75.5t74.5 180.5t-74.5 180.5t-177.5 75.5q-106 0 -180 -75t-74 -181zM795 723v16h34q3 135 0 269 q0 13 -8.5 23.5t-21.5 10.5h-4v15h84q60 6 69 6q53 0 96 -28.5t43 -80.5q0 -41 -31.5 -68t-74.5 -34q21 -13 39 -49q29 -64 76 -64q10 0 16 2v-14q-16 -8 -43 -8q-30 0 -55.5 21t-38.5 51q-24 57 -60 57q-19 0 -30 -8v14q20 10 41 10q20 0 28 -4q37 8 61.5 33.5t24.5 60.5 q0 41 -32 68t-74 27q-28 0 -60 -7q-4 -179 0 -266q0 -15 7.5 -26t21.5 -11h4v-16h-112z" />
<glyph unicode="&#xb0;" horiz-adv-x="550" d="M53 905q0 92 65.5 156.5t157.5 64.5q91 0 155.5 -64.5t64.5 -156.5q0 -94 -64.5 -159.5t-155.5 -65.5q-92 0 -157.5 65.5t-65.5 159.5zM115 905q0 -67 46.5 -115.5t114.5 -48.5q66 0 113 49t47 115t-47 114t-113 48q-68 0 -114.5 -47.5t-46.5 -114.5z" />
<glyph unicode="&#xb4;" horiz-adv-x="374" d="M12 1257l224 232q26 26 40 34.5t31 8.5q23 0 38 -13.5t15 -35.5q0 -21 -19 -40t-73 -52l-219 -134h-37z" />
<glyph unicode="&#xb6;" horiz-adv-x="915" d="M25 885q0 85 48.5 152t123.5 102t159 35h506v-37h-16q-50 0 -78.5 -39t-28.5 -92v-971q0 -52 29 -92.5t78 -40.5h16v-33h-194v1270h-138v-1270h-194v33h18q48 0 77.5 41t29.5 92v563h-88q-87 0 -165.5 33t-130.5 100t-52 154zM178 885q0 -98 53.5 -175t145.5 -77h84v506 h-84q-92 0 -145.5 -77.5t-53.5 -176.5z" />
<glyph unicode="&#xb7;" horiz-adv-x="274" d="M53 633q0 34 25 59t59 25q35 0 59.5 -25t24.5 -59t-24.5 -59t-59.5 -25q-34 0 -59 25t-25 59z" />
<glyph unicode="&#xb8;" horiz-adv-x="321" d="M25 -233l18 40q41 -26 82 -26q31 0 55.5 17t24.5 46q0 24 -19 40t-43 16q-15 0 -39 -9l-10 11l64 127h37l-41 -92q6 2 26 2q41 0 72 -24t31 -62q0 -56 -47.5 -85.5t-108.5 -29.5q-49 0 -102 29z" />
<glyph unicode="&#xbb;" horiz-adv-x="643" d="M66 250l200 336l-200 342h94l205 -342l-205 -336h-94zM307 250l203 336l-203 342h96l205 -342l-205 -336h-96z" />
<glyph unicode="&#xbf;" horiz-adv-x="770" d="M23 297q0 51 19 96.5t56.5 84.5t70 65.5t83.5 60.5q63 43 105 106.5t55 137.5q8 41 8 92h57q4 -62 4 -90q3 -173 -153 -315q-49 -45 -80 -80t-57.5 -89t-26.5 -108q-1 -95 70 -159t167 -64q60 0 113 15.5t93.5 55.5t41.5 99q0 32 -22 54t-54 22q-30 0 -55 -29 q-18 18 -18 43q1 41 33.5 67.5t74.5 26.5q54 0 92.5 -43.5t38.5 -97.5q0 -63 -30 -113.5t-78.5 -81t-106 -46t-118.5 -15.5q-71 0 -138 20t-123 57t-89.5 96.5t-32.5 131.5zM365 1114q0 34 25 58t59 24q35 0 59 -24t24 -58q0 -36 -24 -61t-59 -25q-34 0 -59 25.5t-25 60.5z " />
<glyph unicode="&#xc0;" horiz-adv-x="1548" d="M51 0v35h135l602 1186q432 -853 551 -1078q56 -106 142 -106h16v-37h-401v37h133l-205 405h-588l-119 -237q-12 -24 -12 -55q-2 -46 28.5 -80.5t78.5 -34.5h18v-35h-379zM455 477h553l-277 541zM487 1475q0 22 15.5 35.5t38.5 13.5q18 0 33 -8t40 -33l222 -232h-35 l-221 131q-54 33 -73.5 52.5t-19.5 40.5z" />
<glyph unicode="&#xc1;" horiz-adv-x="1548" d="M51 0v35h135l602 1186q432 -853 551 -1078q56 -106 142 -106h16v-37h-401v37h133l-205 405h-588l-119 -237q-12 -24 -12 -55q-2 -46 28.5 -80.5t78.5 -34.5h18v-35h-379zM455 477h553l-277 541zM692 1251l221 232q41 41 72 41q24 0 39.5 -13.5t15.5 -35.5 q0 -21 -19.5 -40.5t-72.5 -52.5l-221 -131h-35z" />
<glyph unicode="&#xc2;" horiz-adv-x="1548" d="M51 0v35h135l602 1186q432 -853 551 -1078q56 -106 142 -106h16v-37h-401v37h133l-205 405h-588l-119 -237q-12 -24 -12 -55q-2 -46 28.5 -80.5t78.5 -34.5h18v-35h-379zM455 477h553l-277 541zM559 1257l186 213q17 17 35 17t35 -17l189 -213h-35l-189 127l-186 -127 h-35z" />
<glyph unicode="&#xc3;" horiz-adv-x="1548" d="M51 0v35h135l602 1186q432 -853 551 -1078q56 -106 142 -106h16v-37h-401v37h133l-205 405h-588l-119 -237q-12 -24 -12 -55q-2 -46 28.5 -80.5t78.5 -34.5h18v-35h-379zM455 477h553l-277 541zM514 1274q15 64 56 107.5t100 43.5q43 0 121 -31.5t120 -31.5 q32 0 57.5 18.5t32.5 49.5h31q-13 -64 -53.5 -108t-99.5 -44q-43 0 -122 32.5t-122 32.5q-31 0 -56 -18.5t-34 -50.5h-31z" />
<glyph unicode="&#xc4;" horiz-adv-x="1548" d="M51 0v35h135l602 1186q432 -853 551 -1078q56 -106 142 -106h16v-37h-401v37h133l-205 405h-588l-119 -237q-12 -24 -12 -55q-2 -46 28.5 -80.5t78.5 -34.5h18v-35h-379zM455 477h553l-277 541zM496 1350q0 40 27 67t67 27q37 0 63.5 -27.5t26.5 -66.5q0 -37 -27 -65 t-63 -28q-39 0 -66.5 28t-27.5 65zM883 1350q0 40 27 67t67 27q38 0 65 -27t27 -67q0 -37 -27 -65t-65 -28q-39 0 -66.5 28t-27.5 65z" />
<glyph unicode="&#xc5;" horiz-adv-x="1548" d="M51 0v35h135l602 1186q432 -853 551 -1078q56 -106 142 -106h16v-37h-401v37h133l-205 405h-588l-119 -237q-12 -24 -12 -55q-2 -46 28.5 -80.5t78.5 -34.5h18v-35h-379zM455 477h553l-277 541zM657 1393q0 55 39 94t95 39q55 0 94 -39t39 -94q0 -56 -39 -96t-94 -40 t-94.5 40t-39.5 96zM713 1393q0 -33 22.5 -56.5t55.5 -23.5t55 23.5t22 56.5t-22 55t-55 22t-55.5 -22t-22.5 -55z" />
<glyph unicode="&#xc6;" horiz-adv-x="1781" d="M20 0v37h115l666 1100h-53v37h944v38h37v-290h-37v34q0 80 -66.5 130.5t-148.5 50.5h-433l-6 -461h379q48 0 86.5 29t38.5 77v19h35v-291h-35v18q0 45 -39 75t-86 30h-379q0 -151 4 -467q2 -52 31 -90.5t78 -38.5h326q83 0 149 50t66 130v35h37v-293h-37v41h-922v37h123 q6 203 6 405h-471l-125 -206q-29 -49 -29 -84q0 -47 30 -81t79 -34h18v-37h-381zM451 477h448q3 236 -4 535q0 76 -55 110z" />
<glyph unicode="&#xc7;" horiz-adv-x="1300" d="M82 582q0 130 54 245.5t144.5 195.5t210 126.5t248.5 46.5q127 0 232 -41q100 -41 151 -41q57 0 78 41l8 14l31 -16l-119 -217l-30 16l32 62q-24 24 -65 49q-145 94 -297 94q-149 1 -269.5 -81t-184.5 -213t-64 -279q0 -144 58.5 -269t172 -206t258.5 -86q143 -3 261 70 t190 202l20 47l37 -23q-6 -18 -10 -24q-72 -143 -205.5 -229t-292.5 -89l-20 -49q6 2 26 2q40 0 70.5 -24.5t30.5 -63.5q0 -54 -46.5 -83t-107.5 -29q-51 0 -102 28l18 39q38 -24 82 -24q30 0 54 17t24 46q0 24 -18 38.5t-42 14.5q-14 0 -38 -6l-11 8l43 89q-170 7 -310 88 t-221 217t-81 297z" />
<glyph unicode="&#xc8;" d="M113 0v37h125q10 540 2 975q-2 50 -32 87.5t-77 37.5h-18v37h923v40h33v-292h-33v34q-1 81 -65 131t-146 50h-438q-6 -231 -6 -461h383q48 0 84.5 29.5t36.5 76.5v19h35v-291h-35v18q-1 46 -38 75.5t-83 29.5h-383q0 -309 4 -465q2 -53 30.5 -92t78.5 -39h331 q82 0 146 49.5t65 130.5v35h33v-291h-33v39h-923zM336 1440q0 23 14.5 36t38.5 13q19 0 34.5 -7.5t39.5 -33.5l221 -231h-35l-221 133q-53 31 -72.5 50t-19.5 40z" />
<glyph unicode="&#xc9;" d="M113 0v37h125q10 540 2 975q-2 50 -32 87.5t-77 37.5h-18v37h923v40h33v-292h-33v34q-1 81 -65 131t-146 50h-438q-6 -231 -6 -461h383q48 0 84.5 29.5t36.5 76.5v19h35v-291h-35v18q-1 46 -38 75.5t-83 29.5h-383q0 -309 4 -465q2 -53 30.5 -92t78.5 -39h331 q82 0 146 49.5t65 130.5v35h33v-291h-33v39h-923zM502 1217l223 231q39 41 72 41q24 0 39.5 -13t15.5 -36q0 -21 -19.5 -40t-72.5 -50l-221 -133h-37z" />
<glyph unicode="&#xca;" d="M113 0v37h125q10 540 2 975q-2 50 -32 87.5t-77 37.5h-18v37h923v40h33v-292h-33v34q-1 81 -65 131t-146 50h-438q-6 -231 -6 -461h383q48 0 84.5 29.5t36.5 76.5v19h35v-291h-35v18q-1 46 -38 75.5t-83 29.5h-383q0 -309 4 -465q2 -53 30.5 -92t78.5 -39h331 q82 0 146 49.5t65 130.5v35h33v-291h-33v39h-923zM365 1239l186 213q16 16 35 16t35 -16l188 -213h-35l-188 127l-187 -127h-34z" />
<glyph unicode="&#xcb;" d="M113 0v37h125q10 540 2 975q-2 50 -32 87.5t-77 37.5h-18v37h923v40h33v-292h-33v34q-1 81 -65 131t-146 50h-438q-6 -231 -6 -461h383q48 0 84.5 29.5t36.5 76.5v19h35v-291h-35v18q-1 46 -38 75.5t-83 29.5h-383q0 -309 4 -465q2 -53 30.5 -92t78.5 -39h331 q82 0 146 49.5t65 130.5v35h33v-291h-33v39h-923zM309 1350q0 38 27 65t67 27q38 0 65.5 -27t27.5 -65t-27.5 -65.5t-65.5 -27.5q-39 0 -66.5 27.5t-27.5 65.5zM698 1350q0 38 27.5 65t65.5 27t65 -27t27 -65t-27 -65.5t-65 -27.5t-65.5 27.5t-27.5 65.5z" />
<glyph unicode="&#xcc;" horiz-adv-x="620" d="M113 0v37h123q11 463 2 975q-2 51 -30.5 88t-78.5 37h-16v37h395v-37h-121q-11 -460 -2 -969q0 -53 29 -92t80 -39h14v-37h-395zM145 1440q0 23 15 36t39 13q19 0 33.5 -7.5t39.5 -33.5l222 -231h-35l-221 133q-54 31 -73.5 50t-19.5 40z" />
<glyph unicode="&#xcd;" horiz-adv-x="620" d="M113 0v37h123q11 463 2 975q-2 51 -30.5 88t-78.5 37h-16v37h395v-37h-123q-8 -451 -2 -969q0 -53 29.5 -92t79.5 -39h16v-37h-395zM129 1219l223 231q25 25 39.5 33t32.5 8q23 0 38 -13.5t15 -35.5t-19 -41t-73 -51l-219 -131h-37z" />
<glyph unicode="&#xce;" horiz-adv-x="620" d="M82 1239l188 213q13 16 33 16q22 0 35 -16l190 -213h-36l-189 127l-184 -127h-37zM113 0v37h123q11 463 2 975q-2 51 -30.5 88t-78.5 37h-16v37h395v-37h-123q-8 -451 -2 -969q0 -53 29.5 -92t79.5 -39h16v-37h-395z" />
<glyph unicode="&#xcf;" horiz-adv-x="620" d="M76 1352q0 40 27 67t67 27q38 0 65 -27t27 -67q0 -37 -27 -64.5t-65 -27.5q-39 0 -66.5 27.5t-27.5 64.5zM113 0v37h123q11 463 2 975q-2 51 -30.5 88t-78.5 37h-16v37h395v-37h-123q-8 -451 -2 -969q0 -53 29.5 -92t79.5 -39h16v-37h-395zM344 1352q0 40 27 67t65 27 t65 -27t27 -67q0 -37 -27 -64.5t-65 -27.5t-65 27.5t-27 64.5z" />
<glyph unicode="&#xd0;" horiz-adv-x="1331" d="M55 0v37h123q4 172 8 520h-131l29 61h102q-6 393 -6 394q0 51 -29 89t-77 38h-19v35h301q93 22 219 22q260 0 435 -121q123 -85 195.5 -213.5t72.5 -283.5q0 -139 -63 -259t-171 -202q-186 -140 -417 -140q-122 0 -260 23h-312zM324 557q0 -131 4 -389q1 -49 26.5 -82 t70.5 -47.5t85.5 -19.5t91.5 -5q109 0 204 45.5t165 126.5q69 78 108 182t39 212q0 124 -47.5 237t-132.5 195q-154 151 -387 151q-99 0 -221 -33l-6 -512h378l-26 -61h-352z" />
<glyph unicode="&#xd1;" horiz-adv-x="1333" d="M59 0v37h123v969q0 53 -28 92t-78 39h-17v37h224q457 -530 831 -951v783q0 53 -28.5 92t-77.5 39h-19v37h289v-37h-123v-1137h-41q-404 473 -891 1018v-852q0 -51 29.5 -90t77.5 -39h18v-37h-289zM424 1276q15 64 56 107.5t100 43.5q42 0 120.5 -31.5t120.5 -31.5 q31 0 57 19t33 49h31q-15 -64 -55.5 -108t-100.5 -44q-42 0 -120 33t-121 33q-32 0 -57.5 -19t-32.5 -51h-31z" />
<glyph unicode="&#xd2;" horiz-adv-x="1425" d="M53 588q0 164 88.5 304.5t240 222t329.5 81.5q179 0 331 -82t240 -222t88 -304q0 -125 -52 -238t-140 -194.5t-210.5 -130t-256.5 -48.5q-178 0 -329.5 81.5t-240 222.5t-88.5 307zM213 588q0 -154 67 -284t181.5 -205.5t249.5 -75.5q136 0 251 75.5t181.5 205.5 t66.5 284q0 153 -66.5 282.5t-181.5 205t-251 75.5q-135 0 -249.5 -75.5t-181.5 -205t-67 -282.5zM492 1440q0 23 14 36t37 13q19 0 33 -7.5t40 -33.5l224 -231h-37l-219 133q-55 34 -73.5 51.5t-18.5 38.5z" />
<glyph unicode="&#xd3;" horiz-adv-x="1425" d="M53 588q0 164 88.5 304.5t240 222t329.5 81.5q179 0 331 -82t240 -222t88 -304q0 -125 -52 -238t-140 -194.5t-210.5 -130t-256.5 -48.5q-178 0 -329.5 81.5t-240 222.5t-88.5 307zM213 588q0 -154 67 -284t181.5 -205.5t249.5 -75.5q136 0 251 75.5t181.5 205.5 t66.5 284q0 153 -66.5 282.5t-181.5 205t-251 75.5q-135 0 -249.5 -75.5t-181.5 -205t-67 -282.5zM588 1217l221 231q39 41 72 41q24 0 39.5 -13t15.5 -36q0 -21 -19.5 -40t-72.5 -50l-221 -133h-35z" />
<glyph unicode="&#xd4;" horiz-adv-x="1425" d="M53 588q0 164 88.5 304.5t240 222t329.5 81.5q179 0 331 -82t240 -222t88 -304q0 -125 -52 -238t-140 -194.5t-210.5 -130t-256.5 -48.5q-178 0 -329.5 81.5t-240 222.5t-88.5 307zM213 588q0 -154 67 -284t181.5 -205.5t249.5 -75.5q136 0 251 75.5t181.5 205.5 t66.5 284q0 153 -66.5 282.5t-181.5 205t-251 75.5q-135 0 -249.5 -75.5t-181.5 -205t-67 -282.5zM489 1237l189 213q13 16 33 16q21 0 34 -16l191 -213h-37l-188 127l-185 -127h-37z" />
<glyph unicode="&#xd5;" horiz-adv-x="1425" d="M53 588q0 164 88.5 304.5t240 222t329.5 81.5q179 0 331 -82t240 -222t88 -304q0 -125 -52 -238t-140 -194.5t-210.5 -130t-256.5 -48.5q-178 0 -329.5 81.5t-240 222.5t-88.5 307zM213 588q0 -154 67 -284t181.5 -205.5t249.5 -75.5q136 0 251 75.5t181.5 205.5 t66.5 284q0 153 -66.5 282.5t-181.5 205t-251 75.5q-135 0 -249.5 -75.5t-181.5 -205t-67 -282.5zM455 1276q15 64 55.5 107.5t99.5 43.5q42 0 121 -31.5t121 -31.5q31 0 57 19t33 49h31q-15 -64 -55.5 -108t-100.5 -44q-42 0 -120.5 33t-121.5 33q-32 0 -57.5 -19 t-32.5 -51h-30z" />
<glyph unicode="&#xd6;" horiz-adv-x="1425" d="M53 588q0 164 88.5 304.5t240 222t329.5 81.5q179 0 331 -82t240 -222t88 -304q0 -125 -52 -238t-140 -194.5t-210.5 -130t-256.5 -48.5q-178 0 -329.5 81.5t-240 222.5t-88.5 307zM213 588q0 -154 67 -284t181.5 -205.5t249.5 -75.5q136 0 251 75.5t181.5 205.5 t66.5 284q0 153 -66.5 282.5t-181.5 205t-251 75.5q-135 0 -249.5 -75.5t-181.5 -205t-67 -282.5zM420 1350q0 39 27.5 66.5t66.5 27.5q38 0 65 -27t27 -67q0 -37 -27 -65t-65 -28t-66 28t-28 65zM809 1350q0 40 27 67t67 27q37 0 64.5 -27.5t27.5 -66.5q0 -37 -27.5 -65 t-64.5 -28q-39 0 -66.5 28t-27.5 65z" />
<glyph unicode="&#xd7;" horiz-adv-x="663" d="M68 403l215 213l-215 215l49 52l215 -215l215 215l49 -52l-213 -215l213 -213l-49 -49l-215 215l-215 -215z" />
<glyph unicode="&#xd8;" horiz-adv-x="1425" d="M53 588q0 164 88.5 304.5t240 222t329.5 81.5q208 0 379 -113l161 191h76l-190 -223q109 -86 171 -206.5t62 -256.5q0 -165 -88 -306t-240 -223t-331 -82q-211 0 -379 111l-160 -190h-74l187 225q-108 87 -170 207.5t-62 257.5zM213 588q0 -224 135 -389l686 817 q-135 135 -323 135q-135 0 -249.5 -75.5t-181.5 -205t-67 -282.5zM389 156q136 -133 322 -133q136 0 251 75.5t181.5 205.5t66.5 284q0 226 -135 387z" />
<glyph unicode="&#xd9;" horiz-adv-x="1204" d="M45 1137v37h397v-37h-123q-6 -260 -6 -779q0 -138 101 -236.5t241 -98.5q138 0 240 93t102 228v662q0 53 -28.5 92t-77.5 39h-19v37h287v-37h-123v-793q0 -110 -63.5 -195.5t-161 -128.5t-207.5 -43q-111 0 -209 46.5t-160 135.5t-61 199q3 362 -2 652q-2 50 -32 88.5 t-77 38.5h-18zM303 1440q0 23 14.5 36t38.5 13q19 0 34.5 -7.5t39.5 -33.5l221 -231h-35l-221 133q-53 31 -72.5 50t-19.5 40z" />
<glyph unicode="&#xda;" horiz-adv-x="1204" d="M45 1137v37h397v-37h-123q-6 -260 -6 -779q0 -138 101 -236.5t241 -98.5q138 0 240 93t102 228v662q0 53 -28.5 92t-77.5 39h-19v37h287v-37h-123v-793q0 -110 -63.5 -195.5t-161 -128.5t-207.5 -43q-111 0 -209 46.5t-160 135.5t-61 199q3 362 -2 652q-2 50 -32 88.5 t-77 38.5h-18zM569 1217l222 231q39 41 71 41q24 0 40 -13t16 -36q0 -21 -19.5 -40t-73.5 -50l-221 -133h-35z" />
<glyph unicode="&#xdb;" horiz-adv-x="1204" d="M45 1137v37h397v-37h-123q-6 -260 -6 -779q0 -138 101 -236.5t241 -98.5q138 0 240 93t102 228v662q0 53 -28.5 92t-77.5 39h-19v37h287v-37h-123v-793q0 -110 -63.5 -195.5t-161 -128.5t-207.5 -43q-111 0 -209 46.5t-160 135.5t-61 199q3 362 -2 652q-2 50 -32 88.5 t-77 38.5h-18zM399 1217l189 213q13 16 33 16q21 0 34 -16l191 -213h-37l-188 129l-187 -129h-35z" />
<glyph unicode="&#xdc;" horiz-adv-x="1204" d="M45 1137v37h397v-37h-123q-6 -260 -6 -779q0 -138 101 -236.5t241 -98.5q138 0 240 93t102 228v662q0 53 -28.5 92t-77.5 39h-19v37h287v-37h-123v-793q0 -110 -63.5 -195.5t-161 -128.5t-207.5 -43q-111 0 -209 46.5t-160 135.5t-61 199q3 362 -2 652q-2 50 -32 88.5 t-77 38.5h-18zM332 1350q0 40 27 67t67 27q38 0 65 -27t27 -67q0 -37 -27 -65t-65 -28q-39 0 -66.5 28t-27.5 65zM721 1350q0 40 27 67t67 27q37 0 64.5 -27.5t27.5 -66.5q0 -37 -27.5 -65t-64.5 -28q-39 0 -66.5 28t-27.5 65z" />
<glyph unicode="&#xdd;" horiz-adv-x="1331" d="M45 1139v35h391v-35h-123q203 -309 381 -568l310 412q20 26 20 59q0 38 -29.5 67.5t-72.5 29.5h-15v35h379v-35h-115l-436 -580q0 -133 4 -391q0 -53 28.5 -92t78.5 -39h16v-37h-395v37h123q6 214 6 430q-87 129 -403 590q-59 82 -130 82h-18zM582 1219l223 231 q25 25 39.5 33t32.5 8q23 0 38 -13.5t15 -35.5t-19 -41t-73 -51l-220 -131h-36z" />
<glyph unicode="&#xdf;" horiz-adv-x="1187" d="M45 0v37h123q9 502 6 848q-1 168 129 276.5t303 108.5q69 0 134.5 -18t120.5 -52.5t88.5 -91.5t33.5 -129q0 -89 -50.5 -158t-131.5 -104q146 -25 242 -128t96 -239q0 -108 -60.5 -194.5t-155.5 -132.5t-202 -46q-148 0 -244 68q-45 33 -72 78.5t-26 97.5q0 48 30 84.5 t76 36.5q38 0 66.5 -25.5t28.5 -62.5q0 -28 -23 -41q-15 31 -55 31q-25 0 -42.5 -16.5t-17.5 -41.5q-3 -64 60 -116q68 -54 174 -54q136 0 230.5 98.5t94.5 235.5q0 136 -92.5 233.5t-224.5 102.5v39q76 28 124 94.5t48 149.5q0 103 -67 181.5t-168 78.5q-134 1 -221 -102.5 t-87 -241.5q-3 -279 2 -723q0 -49 30 -87t79 -38h16v-37h-395z" />
<glyph unicode="&#xe0;" horiz-adv-x="1062" d="M104 307q-1 74 33 135.5t90 100.5t124.5 60.5t140.5 21.5q146 0 249 -95q-3 107 -51 187q-34 55 -89.5 87t-119.5 32q-86 2 -150.5 -51t-64.5 -138v-18h-35v231h35v-45q80 53 223 53q177 0 277 -92q106 -95 106 -246q0 -274 2 -397q0 -40 22 -70t60 -30h15v-33h-234 q0 72 2 113q-49 -59 -124 -90t-158 -31q-90 0 -170 39t-131 112t-52 164zM236 1137q0 22 15 35.5t38 13.5q19 0 33.5 -7.5t39.5 -33.5l222 -232h-35l-221 131q-53 33 -72.5 52.5t-19.5 40.5zM244 309q0 -110 74.5 -190t181.5 -80q76 0 141.5 38.5t97.5 104.5l2 101 q1 18 0.5 95.5t-0.5 90.5q-36 52 -92 80.5t-121 30.5q-117 2 -201 -77t-83 -194z" />
<glyph unicode="&#xe1;" horiz-adv-x="1062" d="M104 307q-1 74 33 135.5t90 100.5t124.5 60.5t140.5 21.5q146 0 249 -95q-3 107 -51 187q-34 55 -89.5 87t-119.5 32q-86 2 -150.5 -51t-64.5 -138v-18h-35v231h35v-45q80 53 223 53q177 0 277 -92q106 -95 106 -246q0 -274 2 -397q0 -40 22 -70t60 -30h15v-33h-234 q0 72 2 113q-49 -59 -124 -90t-158 -31q-90 0 -170 39t-131 112t-52 164zM244 309q0 -110 74.5 -190t181.5 -80q76 0 141.5 38.5t97.5 104.5l2 101q1 18 0.5 95.5t-0.5 90.5q-36 52 -92 80.5t-121 30.5q-117 2 -201 -77t-83 -194zM399 913l222 232q39 41 71 41q24 0 40 -14 t16 -35t-19.5 -40.5t-73.5 -52.5l-221 -131h-35z" />
<glyph unicode="&#xe2;" horiz-adv-x="1062" d="M104 307q-1 74 33 135.5t90 100.5t124.5 60.5t140.5 21.5q146 0 249 -95q-3 107 -51 187q-34 55 -89.5 87t-119.5 32q-86 2 -150.5 -51t-64.5 -138v-18h-35v231h35v-45q80 53 223 53q177 0 277 -92q106 -95 106 -246q0 -274 2 -397q0 -40 22 -70t60 -30h15v-33h-234 q0 72 2 113q-49 -59 -124 -90t-158 -31q-90 0 -170 39t-131 112t-52 164zM244 309q0 -110 74.5 -190t181.5 -80q76 0 141.5 38.5t97.5 104.5l2 101q1 18 0.5 95.5t-0.5 90.5q-36 52 -92 80.5t-121 30.5q-117 2 -201 -77t-83 -194zM305 926l187 213q13 16 34 16q24 0 35 -16 l191 -213h-37l-189 129l-186 -129h-35z" />
<glyph unicode="&#xe3;" horiz-adv-x="1062" d="M104 307q-1 74 33 135.5t90 100.5t124.5 60.5t140.5 21.5q146 0 249 -95q-3 107 -51 187q-34 55 -89.5 87t-119.5 32q-86 2 -150.5 -51t-64.5 -138v-18h-35v231h35v-45q80 53 223 53q177 0 277 -92q106 -95 106 -246q0 -274 2 -397q0 -40 22 -70t60 -30h15v-33h-234 q0 72 2 113q-49 -59 -124 -90t-158 -31q-90 0 -170 39t-131 112t-52 164zM244 309q0 -110 74.5 -190t181.5 -80q76 0 141.5 38.5t97.5 104.5l2 101q1 18 0.5 95.5t-0.5 90.5q-36 52 -92 80.5t-121 30.5q-117 2 -201 -77t-83 -194zM248 969q13 63 53.5 107t99.5 44 q43 0 122 -31.5t122 -31.5q31 0 56 18.5t34 48.5h31q-15 -64 -56 -107.5t-100 -43.5q-43 0 -121 32.5t-120 32.5q-33 0 -58 -18.5t-32 -50.5h-31z" />
<glyph unicode="&#xe4;" horiz-adv-x="1062" d="M104 307q-1 74 33 135.5t90 100.5t124.5 60.5t140.5 21.5q146 0 249 -95q-3 107 -51 187q-34 55 -89.5 87t-119.5 32q-86 2 -150.5 -51t-64.5 -138v-18h-35v231h35v-45q80 53 223 53q177 0 277 -92q106 -95 106 -246q0 -274 2 -397q0 -40 22 -70t60 -30h15v-33h-234 q0 72 2 113q-49 -59 -124 -90t-158 -31q-90 0 -170 39t-131 112t-52 164zM227 1049q0 40 27.5 67t67.5 27q37 0 64.5 -27.5t27.5 -66.5q0 -38 -27.5 -65.5t-64.5 -27.5q-40 0 -67.5 27.5t-27.5 65.5zM244 309q0 -110 74.5 -190t181.5 -80q76 0 141.5 38.5t97.5 104.5l2 101 q1 18 0.5 95.5t-0.5 90.5q-36 52 -92 80.5t-121 30.5q-117 2 -201 -77t-83 -194zM614 1049q0 39 28 66.5t67 27.5q38 0 65 -27t27 -67q0 -38 -27 -65.5t-65 -27.5t-66.5 27.5t-28.5 65.5z" />
<glyph unicode="&#xe5;" horiz-adv-x="1062" d="M104 307q-1 74 33 135.5t90 100.5t124.5 60.5t140.5 21.5q146 0 249 -95q-3 107 -51 187q-34 55 -89.5 87t-119.5 32q-86 2 -150.5 -51t-64.5 -138v-18h-35v231h35v-45q80 53 223 53q177 0 277 -92q106 -95 106 -246q0 -274 2 -397q0 -40 22 -70t60 -30h15v-33h-234 q0 72 2 113q-49 -59 -124 -90t-158 -31q-90 0 -170 39t-131 112t-52 164zM244 309q0 -110 74.5 -190t181.5 -80q76 0 141.5 38.5t97.5 104.5l2 101q1 18 0.5 95.5t-0.5 90.5q-36 52 -92 80.5t-121 30.5q-117 2 -201 -77t-83 -194zM406 1063q0 55 39 94t94 39t94 -39t39 -94 t-39 -94t-94 -39t-94 39t-39 94zM461 1063q0 -33 22.5 -56.5t55.5 -23.5t55 23.5t22 56.5t-22 56.5t-55 23.5t-55.5 -23.5t-22.5 -56.5z" />
<glyph unicode="&#xe6;" horiz-adv-x="1611" d="M47 309q-1 97 57 172t146 111.5t184 34.5q151 -3 250 -95q0 114 -51 187q-36 54 -91 86.5t-116 32.5q-87 0 -152 -52.5t-65 -136.5v-18h-35v231h35v-45q80 53 223 53q174 0 277 -92q34 -29 67 -86q68 83 170.5 130.5t216.5 47.5q156 0 271.5 -102.5t115.5 -257.5 q0 -7 -4 -31h-723q-4 -32 -4 -49q0 -105 38 -193t115 -144.5t181 -59.5q124 -4 223 69.5t135 192.5l31 -14q-40 -129 -148 -209t-243 -80q-109 0 -205.5 44t-161.5 122q-67 -78 -163 -122t-207 -44q-64 0 -128 21.5t-117.5 60.5t-87 100.5t-34.5 134.5zM186 309 q0 -109 74.5 -188.5t181.5 -79.5q77 0 143.5 38.5t96.5 104.5v37q2 86 2 250q-37 52 -92.5 80.5t-120.5 28.5q-118 0 -202 -78t-83 -193zM827 510h576q4 18 4 55q0 106 -68.5 188.5t-171.5 82.5q-139 0 -228 -92t-112 -234z" />
<glyph unicode="&#xe7;" horiz-adv-x="1007" d="M82 428q0 127 69 229.5t179.5 157.5t236.5 55q176 0 273 -65v55h37v-229h-37v12q0 94 -79.5 144.5t-182.5 50.5q-104 -1 -187 -60.5t-126.5 -152.5t-43.5 -197q0 -163 89 -277t245 -120q109 -3 203 57.5t137 161.5l31 -19q-50 -107 -146 -171.5t-213 -67.5l-22 -55 q6 2 26 2q40 0 70.5 -24t30.5 -62q0 -56 -47 -85.5t-109 -29.5q-47 0 -100 29l18 40q41 -26 82 -26q30 0 54 17t24 46q0 24 -19 40t-43 16q-12 0 -36 -9l-11 11l45 90q-187 8 -317.5 133.5t-130.5 302.5z" />
<glyph unicode="&#xe8;" horiz-adv-x="1034" d="M82 426q0 125 68 228t178 159.5t235 56.5q157 0 273 -103t116 -257q0 -11 -4 -31h-723q-4 -32 -4 -51q0 -164 92.5 -280.5t249.5 -116.5q122 0 218.5 72t131.5 190l31 -12q-40 -129 -148 -209t-243 -80q-127 0 -235.5 57.5t-172 157.5t-63.5 219zM227 510h578q2 16 2 53 q0 107 -67 189t-171 82q-138 1 -227.5 -90.5t-114.5 -233.5zM309 1137q0 22 15 35.5t38 13.5q19 0 34.5 -7.5t39.5 -33.5l221 -232h-34l-222 131q-53 33 -72.5 52.5t-19.5 40.5z" />
<glyph unicode="&#xe9;" horiz-adv-x="1034" d="M82 426q0 125 68 228t178 159.5t235 56.5q157 0 273 -103t116 -257q0 -11 -4 -31h-723q-4 -32 -4 -51q0 -164 92.5 -280.5t249.5 -116.5q122 0 218.5 72t131.5 190l31 -12q-40 -129 -148 -209t-243 -80q-127 0 -235.5 57.5t-172 157.5t-63.5 219zM227 510h578q2 16 2 53 q0 107 -67 189t-171 82q-138 1 -227.5 -90.5t-114.5 -233.5zM436 913l221 232q24 26 39.5 33.5t34.5 7.5q22 0 37.5 -14t15.5 -35t-19.5 -40.5t-72.5 -52.5l-221 -131h-35z" />
<glyph unicode="&#xea;" horiz-adv-x="1034" d="M82 426q0 125 68 228t178 159.5t235 56.5q157 0 273 -103t116 -257q0 -11 -4 -31h-723q-4 -32 -4 -51q0 -164 92.5 -280.5t249.5 -116.5q122 0 218.5 72t131.5 190l31 -12q-40 -129 -148 -209t-243 -80q-127 0 -235.5 57.5t-172 157.5t-63.5 219zM227 510h578q2 16 2 53 q0 107 -67 189t-171 82q-138 1 -227.5 -90.5t-114.5 -233.5zM342 936l188 213q13 16 33 16q22 0 35 -16l190 -213h-36l-189 127l-184 -127h-37z" />
<glyph unicode="&#xeb;" horiz-adv-x="1034" d="M82 426q0 125 68 228t178 159.5t235 56.5q157 0 273 -103t116 -257q0 -11 -4 -31h-723q-4 -32 -4 -51q0 -164 92.5 -280.5t249.5 -116.5q122 0 218.5 72t131.5 190l31 -12q-40 -129 -148 -209t-243 -80q-127 0 -235.5 57.5t-172 157.5t-63.5 219zM227 510h578q2 16 2 53 q0 107 -67 189t-171 82q-138 1 -227.5 -90.5t-114.5 -233.5zM281 1049q0 40 27 67t67 27q38 0 65 -27t27 -67q0 -38 -27 -65.5t-65 -27.5q-39 0 -66.5 27t-27.5 66zM670 1049q0 40 27 67t65 27t65 -27t27 -67q0 -38 -27 -65.5t-65 -27.5t-65 27.5t-27 65.5z" />
<glyph unicode="&#xec;" horiz-adv-x="540" d="M2 1139q0 22 15 35.5t38 13.5q19 0 34 -8t40 -33l223 -232h-37l-221 132q-54 33 -73 52t-19 40zM113 0v35h92q9 387 2 692q0 40 -22 71t-60 31h-12v31h233q-10 -387 -4 -727q2 -40 24 -69t60 -29h12v-35h-325z" />
<glyph unicode="&#xed;" horiz-adv-x="550" d="M96 913l223 232q25 26 39 33.5t33 7.5q23 0 38 -13.5t15 -35.5t-19 -41.5t-71 -51.5l-221 -131h-37zM113 0v35h92q9 387 2 692q0 40 -22 71t-58 31h-14v31h233q-7 -403 -4 -727q0 -39 23 -68.5t61 -29.5h12v-35h-325z" />
<glyph unicode="&#xee;" horiz-adv-x="540" d="M37 938l188 213q11 16 35 16q22 0 33 -16l190 -213h-37l-186 129l-186 -129h-37zM113 0v35h92q9 387 2 692q0 40 -22 71t-60 31h-12v31h233q-10 -387 -4 -727q2 -40 24 -69t60 -29h12v-35h-325z" />
<glyph unicode="&#xef;" horiz-adv-x="540" d="M49 1049q0 40 27 67t65 27t65 -27t27 -67q0 -38 -27 -65.5t-65 -27.5t-65 27.5t-27 65.5zM113 0v35h92q9 387 2 692q0 40 -22 71t-60 31h-12v31h233q-10 -387 -4 -727q2 -40 24 -69t60 -29h12v-35h-325zM285 1049q0 40 27 67t67 27q38 0 65 -27t27 -67q0 -38 -27 -65.5 t-65 -27.5q-39 0 -66.5 27t-27.5 66z" />
<glyph unicode="&#xf0;" horiz-adv-x="1130" d="M45 428q0 126 68 228.5t177.5 158t235.5 55.5q114 0 201 -47l-41 195h-203l25 53h168l-25 100q-8 38 -35 64.5t-65 26.5q-33 0 -47 -17l-19 21q47 57 133 57q62 0 107.5 -35.5t58.5 -93.5l27 -123h197l-23 -53h-166l193 -916q7 -29 27.5 -48t54.5 -19v-27 q-27 -16 -84 -16q-47 0 -84.5 27.5t-46.5 70.5l-19 86q-59 -86 -150 -135t-194 -49q-124 0 -231.5 55t-173.5 156.5t-66 224.5zM184 428q0 -99 39.5 -187t117 -146t177.5 -60q107 -3 197 54t131 153l-12 67q-2 12 -95 461q-92 61 -200 61q-104 0 -186.5 -58.5t-125.5 -149.5 t-43 -195z" />
<glyph unicode="&#xf1;" horiz-adv-x="1067" d="M53 0v35h94q9 351 3 692q-2 40 -24 71t-58 31h-15v31h234q-2 -37 -2 -115q44 61 113 94t151 33q165 0 268 -92q107 -94 107 -248q0 -276 2 -399q2 -40 24 -69t60 -29h12v-35h-328v35h94q8 302 5 493q0 52 -16.5 105.5t-47 99t-80.5 74.5t-110 29q-88 0 -159 -52t-97 -135 q0 -340 2 -516q0 -39 22 -68.5t60 -29.5h12v-35h-326zM313 973q15 64 56 107.5t100 43.5q43 0 121.5 -32.5t120.5 -32.5q32 0 57.5 19t32.5 50h30q-13 -63 -53.5 -107t-99.5 -44q-43 0 -122 32.5t-122 32.5q-31 0 -56 -19t-34 -50h-31z" />
<glyph unicode="&#xf2;" horiz-adv-x="1040" d="M45 432q0 93 39.5 176t105 139.5t152 89.5t178.5 33q125 0 233.5 -55.5t175 -157t66.5 -225.5t-66.5 -226t-175 -158t-233.5 -56q-92 0 -178.5 33t-152 90.5t-105 140.5t-39.5 176zM184 434q0 -102 38 -194t116.5 -153.5t181.5 -61.5q78 0 143.5 36t107 94.5t64 130.5 t21.5 148q0 60 -14 118t-42 109.5t-67.5 91t-94.5 62.5t-118 23q-103 0 -181.5 -60.5t-116.5 -151.5t-38 -192zM297 1137q0 22 15 35.5t38 13.5q19 0 34.5 -7.5t39.5 -33.5l223 -232h-37l-221 131q-53 33 -72.5 52.5t-19.5 40.5z" />
<glyph unicode="&#xf3;" horiz-adv-x="1040" d="M45 432q0 93 39.5 176t105 139.5t152 89.5t178.5 33q125 0 233.5 -55.5t175 -157t66.5 -225.5t-66.5 -226t-175 -158t-233.5 -56q-92 0 -178.5 33t-152 90.5t-105 140.5t-39.5 176zM184 434q0 -102 38 -194t116.5 -153.5t181.5 -61.5q78 0 143.5 36t107 94.5t64 130.5 t21.5 148q0 60 -14 118t-42 109.5t-67.5 91t-94.5 62.5t-118 23q-103 0 -181.5 -60.5t-116.5 -151.5t-38 -192zM393 913l223 232q25 25 39.5 33t32.5 8q23 0 38 -13.5t15 -35.5t-19 -41.5t-73 -51.5l-219 -131h-37z" />
<glyph unicode="&#xf4;" horiz-adv-x="1040" d="M45 432q0 93 39.5 176t105 139.5t152 89.5t178.5 33q125 0 233.5 -55.5t175 -157t66.5 -225.5t-66.5 -226t-175 -158t-233.5 -56q-92 0 -178.5 33t-152 90.5t-105 140.5t-39.5 176zM184 434q0 -102 38 -194t116.5 -153.5t181.5 -61.5q78 0 143.5 36t107 94.5t64 130.5 t21.5 148q0 60 -14 118t-42 109.5t-67.5 91t-94.5 62.5t-118 23q-103 0 -181.5 -60.5t-116.5 -151.5t-38 -192zM301 913l188 213q14 17 35 17q19 0 33 -17l191 -213h-37l-187 129l-186 -129h-37z" />
<glyph unicode="&#xf5;" horiz-adv-x="1040" d="M45 432q0 93 39.5 176t105 139.5t152 89.5t178.5 33q125 0 233.5 -55.5t175 -157t66.5 -225.5t-66.5 -226t-175 -158t-233.5 -56q-92 0 -178.5 33t-152 90.5t-105 140.5t-39.5 176zM184 434q0 -102 38 -194t116.5 -153.5t181.5 -61.5q78 0 143.5 36t107 94.5t64 130.5 t21.5 148q0 60 -14 118t-42 109.5t-67.5 91t-94.5 62.5t-118 23q-103 0 -181.5 -60.5t-116.5 -151.5t-38 -192zM264 973q15 64 55 107.5t101 43.5q42 0 120.5 -32.5t121.5 -32.5q31 0 56 19t34 50h30q-15 -64 -55.5 -107.5t-99.5 -43.5q-43 0 -121.5 32.5t-120.5 32.5 q-32 0 -57.5 -19t-32.5 -50h-31z" />
<glyph unicode="&#xf6;" horiz-adv-x="1040" d="M45 432q0 93 39.5 176t105 139.5t152 89.5t178.5 33q125 0 233.5 -55.5t175 -157t66.5 -225.5t-66.5 -226t-175 -158t-233.5 -56q-92 0 -178.5 33t-152 90.5t-105 140.5t-39.5 176zM184 434q0 -102 38 -194t116.5 -153.5t181.5 -61.5q78 0 143.5 36t107 94.5t64 130.5 t21.5 148q0 60 -14 118t-42 109.5t-67.5 91t-94.5 62.5t-118 23q-103 0 -181.5 -60.5t-116.5 -151.5t-38 -192zM236 1053q0 39 27.5 66.5t66.5 27.5q38 0 65 -27t27 -67q0 -38 -27 -65t-65 -27t-66 27t-28 65zM625 1053q0 40 27 67t67 27q38 0 65 -27t27 -67q0 -38 -27 -65 t-65 -27q-40 0 -67 27t-27 65z" />
<glyph unicode="&#xf7;" horiz-adv-x="692" d="M8 584v69h674v-69h-674zM285 350q0 24 17.5 42t41.5 18q25 0 42 -17.5t17 -42.5t-17 -41t-42 -16q-24 0 -41.5 16.5t-17.5 40.5zM285 887q0 24 17.5 40.5t41.5 16.5q25 0 42 -16t17 -41t-17 -42.5t-42 -17.5q-24 0 -41.5 17.5t-17.5 42.5z" />
<glyph unicode="&#xf8;" horiz-adv-x="1040" d="M45 -59l152 168q-152 132 -152 323q0 124 66.5 225.5t175 157t233.5 55.5q152 0 285 -86l125 138h65l-151 -168q71 -60 111 -143t40 -179q0 -125 -66.5 -227t-175 -157.5t-233.5 -55.5q-157 0 -284 88l-125 -139h-66zM184 432q0 -144 74 -256l496 549q-90 111 -234 111 q-103 0 -181.5 -60.5t-116.5 -151.5t-38 -192zM287 135q89 -110 233 -110q78 0 143.5 35.5t107 94t64 130.5t21.5 147q0 144 -72 254z" />
<glyph unicode="&#xf9;" horiz-adv-x="1067" d="M45 827v33h328v-33h-94q-8 -303 -5 -493q0 -113 54 -189q84 -120 200 -120q87 0 158.5 51.5t97.5 134.5q0 342 -2 516q0 40 -22.5 70t-61.5 30h-12v33h328v-33h-94q-8 -327 -2 -694q2 -41 23 -70.5t58 -29.5h15v-33h-234q2 39 2 115q-94 -123 -264 -123t-268 90 q-107 94 -107 246q0 276 -2 399q-2 40 -24.5 70t-59.5 30h-12zM260 1137q0 22 15 35.5t38 13.5q19 0 34.5 -7.5t39.5 -33.5l221 -232h-37l-219 131q-53 33 -72.5 52.5t-19.5 40.5z" />
<glyph unicode="&#xfa;" horiz-adv-x="1067" d="M45 827v33h328v-33h-94q-8 -303 -5 -493q0 -113 54 -189q83 -120 200 -120q87 0 158.5 51.5t97.5 134.5q0 342 -2 516q0 40 -22.5 70t-61.5 30h-12v33h328v-33h-94q-8 -327 -2 -694q2 -41 23 -70.5t58 -29.5h15v-33h-234q2 39 2 115q-94 -123 -264 -123t-268 90 q-107 94 -107 246q0 276 -2 399q-2 40 -24.5 70t-59.5 30h-12zM453 913l223 232q23 26 38 33.5t34 7.5q23 0 38 -13.5t15 -35.5t-19 -41.5t-73 -51.5l-220 -131h-36z" />
<glyph unicode="&#xfb;" horiz-adv-x="1067" d="M45 827v33h328v-33h-94q-8 -303 -5 -493q0 -113 54 -189q83 -120 200 -120q87 0 158.5 51.5t97.5 134.5q0 342 -2 516q0 40 -22.5 70t-61.5 30h-12v33h328v-33h-94q-8 -327 -2 -694q2 -41 23 -70.5t58 -29.5h15v-33h-234q2 39 2 115q-94 -123 -264 -123t-268 90 q-107 94 -107 246q0 276 -2 399q-2 40 -24.5 70t-59.5 30h-12zM313 938l187 213q14 14 35 14q20 0 34 -14l189 -213h-35l-188 127l-187 -127h-35z" />
<glyph unicode="&#xfc;" horiz-adv-x="1067" d="M45 827v33h328v-33h-94q-8 -303 -5 -493q0 -113 54 -189q83 -120 200 -120q87 0 158.5 51.5t97.5 134.5q0 342 -2 516q0 40 -22.5 70t-61.5 30h-12v33h328v-33h-94q-8 -327 -2 -694q2 -41 23 -70.5t58 -29.5h15v-33h-234q2 39 2 115q-94 -123 -264 -123t-268 90 q-107 94 -107 246q0 276 -2 399q-2 40 -24.5 70t-59.5 30h-12zM268 1049q0 39 27.5 66.5t66.5 27.5q38 0 65.5 -27.5t27.5 -66.5q0 -38 -27.5 -65.5t-65.5 -27.5t-66 27.5t-28 65.5zM657 1049q0 40 27.5 67t67.5 27q37 0 64.5 -27.5t27.5 -66.5q0 -38 -27.5 -65.5 t-64.5 -27.5q-40 0 -67.5 27.5t-27.5 65.5z" />
<glyph unicode="&#xfd;" horiz-adv-x="1097" d="M8 -219h37v-21q0 -81 62.5 -132.5t146.5 -51.5q50 0 91.5 20.5t73.5 59t53.5 76t43.5 88.5l84 194q-272 593 -344 744q-33 71 -96 71h-13v31h310v-31h-88q181 -404 301 -653l231 533q10 23 10 43q0 30 -23.5 52.5t-56.5 22.5h-14v33h273v-33h-93l-444 -1026 q-114 -260 -287 -260q-144 0 -221 51v-43h-37v232zM541 913l223 232q39 41 72 41q24 0 39.5 -13.5t15.5 -35.5q0 -21 -19.5 -40.5t-72.5 -52.5l-221 -131h-37z" />
<glyph unicode="&#xff;" horiz-adv-x="1097" d="M8 -219h37v-21q0 -81 62.5 -132.5t146.5 -51.5q50 0 91.5 20.5t73.5 59t53.5 76t43.5 88.5l84 194q-272 593 -344 744q-33 71 -96 71h-13v31h310v-31h-88q181 -404 301 -653l231 533q10 23 10 43q0 30 -23.5 52.5t-56.5 22.5h-14v33h273v-33h-93l-444 -1026 q-114 -260 -287 -260q-144 0 -221 51v-43h-37v232zM369 1051q0 40 27 67t67 27q37 0 64.5 -27.5t27.5 -66.5q0 -38 -27.5 -65.5t-64.5 -27.5q-39 0 -66.5 27t-27.5 66zM756 1051q0 39 27.5 66.5t66.5 27.5q38 0 65 -27t27 -67q0 -38 -27 -65.5t-65 -27.5t-66 27.5t-28 65.5z " />
<glyph unicode="&#x152;" horiz-adv-x="1796" d="M45 588q0 164 88 304t240.5 222t331.5 82q90 0 176 -22h827v38h35v-290h-35v34q-1 81 -64.5 131t-144.5 50h-440q-4 -308 -4 -461h383q47 0 82.5 29.5t35.5 76.5v19h37v-291h-37v18q0 46 -36 75.5t-82 29.5h-385q0 -77 3 -232t3 -235q0 -51 28.5 -90t77.5 -39h334 q81 0 144.5 49.5t64.5 130.5v35h35v-291h-35v39h-827q-90 -23 -176 -23q-134 0 -256.5 48.5t-211 130.5t-140.5 195t-52 237zM205 588q0 -154 67 -284t182 -205.5t251 -75.5q110 0 204 49v32q9 585 2 908q-1 50 -34.5 82.5t-77 44.5t-94.5 12q-136 0 -251 -75.5t-182 -205 t-67 -282.5z" />
<glyph unicode="&#x153;" horiz-adv-x="1761" d="M45 432q0 124 66.5 225.5t175 157t233.5 55.5q121 0 229 -55.5t173 -150.5q68 96 176.5 151t230.5 55q156 0 271.5 -103t115.5 -257q0 -5 -1 -15.5t-1 -15.5h-725q-2 -16 -2 -51q0 -105 38 -193t115 -144.5t181 -59.5q124 -4 223 69.5t133 194.5l33 -14 q-40 -129 -148 -209t-243 -80q-124 0 -229.5 54.5t-167.5 148.5q-66 -95 -173.5 -149t-228.5 -54q-125 0 -233.5 55.5t-175 157.5t-66.5 227zM182 432q0 -75 23 -147t64.5 -130.5t107 -94t143.5 -35.5q103 0 181.5 61.5t116.5 153t38 192.5q-1 102 -39 192.5t-116 152 t-181 61.5q-104 0 -182.5 -61.5t-116.5 -152t-39 -192.5zM995 510h576q4 16 4 55q0 105 -68 187t-172 82q-138 1 -226.5 -90.5t-113.5 -233.5z" />
<glyph unicode="&#x178;" horiz-adv-x="1331" d="M45 1139v35h391v-35h-123q203 -309 381 -568l310 412q20 26 20 59q0 38 -29.5 67.5t-72.5 29.5h-15v35h379v-35h-115l-436 -580q0 -133 4 -391q0 -53 28.5 -92t78.5 -39h16v-37h-395v37h123q6 214 6 430q-87 129 -403 590q-59 82 -130 82h-18zM377 1352q0 39 27.5 66.5 t66.5 27.5q38 0 65 -27t27 -67q0 -37 -27 -64.5t-65 -27.5t-66 27.5t-28 64.5zM766 1352q0 40 27 67t67 27q37 0 64.5 -27.5t27.5 -66.5q0 -37 -27.5 -64.5t-64.5 -27.5q-39 0 -66.5 27.5t-27.5 64.5z" />
<glyph unicode="&#x2c6;" horiz-adv-x="509" d="M31 1257l188 213q11 17 33 17q24 0 35 -17l190 -213h-37l-188 129l-184 -129h-37z" />
<glyph unicode="&#x2dc;" horiz-adv-x="632" d="M59 1317q15 64 55 107.5t101 43.5q42 0 121 -32.5t121 -32.5q31 0 57 18.5t33 48.5h31q-15 -63 -55.5 -107t-100.5 -44q-42 0 -120.5 32.5t-121.5 32.5q-31 0 -57 -18.5t-33 -48.5h-31z" />
<glyph unicode="&#x2000;" horiz-adv-x="766" />
<glyph unicode="&#x2001;" horiz-adv-x="1532" />
<glyph unicode="&#x2002;" horiz-adv-x="766" />
<glyph unicode="&#x2003;" horiz-adv-x="1532" />
<glyph unicode="&#x2004;" horiz-adv-x="510" />
<glyph unicode="&#x2005;" horiz-adv-x="383" />
<glyph unicode="&#x2006;" horiz-adv-x="255" />
<glyph unicode="&#x2007;" horiz-adv-x="255" />
<glyph unicode="&#x2008;" horiz-adv-x="191" />
<glyph unicode="&#x2009;" horiz-adv-x="306" />
<glyph unicode="&#x200a;" horiz-adv-x="85" />
<glyph unicode="&#x2010;" horiz-adv-x="792" d="M154 547v84h430v-84h-430z" />
<glyph unicode="&#x2011;" horiz-adv-x="792" d="M154 547v84h430v-84h-430z" />
<glyph unicode="&#x2012;" horiz-adv-x="792" d="M154 547v84h430v-84h-430z" />
<glyph unicode="&#x2013;" horiz-adv-x="1386" d="M154 547v84h1024v-84h-1024z" />
<glyph unicode="&#x2014;" horiz-adv-x="2410" d="M154 547v84h2048v-84h-2048z" />
<glyph unicode="&#x2018;" horiz-adv-x="282" d="M53 1016q0 68 47 121q33 42 82 61l21 -29q-56 -27 -78 -94h20q34 0 59 -23.5t25 -58.5q0 -34 -25 -59t-59 -25q-41 0 -66.5 33t-25.5 74z" />
<glyph unicode="&#x2019;" horiz-adv-x="468" d="M170 1110q0 36 23.5 61t58.5 25q40 0 65 -32.5t25 -73.5q0 -66 -45 -121q-34 -43 -80 -62l-22 29q58 25 77 94q-6 -2 -20 -2q-35 0 -58.5 24t-23.5 58z" />
<glyph unicode="&#x201a;" horiz-adv-x="253" d="M72 74q0 35 24.5 60.5t59.5 25.5q39 0 64.5 -33t25.5 -74q0 -60 -47 -121q-33 -42 -80 -61l-21 29q56 25 78 94q-6 -2 -20 -2q-35 0 -59.5 24t-24.5 58z" />
<glyph unicode="&#x201c;" horiz-adv-x="591" d="M53 1010q0 57 47 118q33 41 80 64l23 -29q-58 -28 -78 -96q4 2 20 2q34 0 58 -24.5t24 -59.5q0 -34 -24 -58t-58 -24q-41 0 -66.5 32t-25.5 75zM266 1010q0 57 47 118q36 46 80 64l23 -29q-58 -28 -78 -96q4 2 20 2q34 0 58 -24.5t24 -59.5q0 -34 -24 -58t-58 -24 q-41 0 -66.5 32t-25.5 75z" />
<glyph unicode="&#x201d;" horiz-adv-x="614" d="M172 1106q0 35 24 60.5t58 25.5q42 0 67 -33t25 -74q0 -67 -47 -120q-39 -46 -80 -62l-20 27q56 30 77 98q-16 -4 -22 -4q-34 0 -58 24t-24 58zM385 1106q0 35 24 60.5t58 25.5q42 0 67 -33t25 -74q0 -67 -47 -120q-39 -46 -80 -62l-20 27q56 30 77 98q-16 -4 -22 -4 q-34 0 -58 24t-24 58z" />
<glyph unicode="&#x201e;" horiz-adv-x="464" d="M72 74q0 35 24.5 60.5t59.5 25.5q39 0 64.5 -33t25.5 -74q0 -60 -47 -121q-33 -42 -80 -61l-21 29q56 25 78 94q-6 -2 -20 -2q-35 0 -59.5 24t-24.5 58zM283 74q0 36 23.5 61t58.5 25q39 0 64.5 -33t25.5 -74q0 -60 -47 -121q-28 -41 -80 -61l-21 29q59 27 78 94 q-6 -2 -20 -2q-35 0 -58.5 24t-23.5 58z" />
<glyph unicode="&#x2022;" horiz-adv-x="452" d="M53 588q0 72 51 123t123 51t122 -51t50 -123q0 -71 -50 -121.5t-122 -50.5t-123 50.5t-51 121.5z" />
<glyph unicode="&#x202f;" horiz-adv-x="306" />
<glyph unicode="&#x205f;" horiz-adv-x="383" />
<glyph unicode="&#x20ac;" horiz-adv-x="1290" d="M31 647l26 64h121q49 213 232 349t411 136q221 0 359 -121q30 -30 53 -63l-41 -90q-8 63 -62 120q-107 113 -286 113q-191 1 -328.5 -126t-177.5 -318h756l-29 -64h-737q-4 -82 0 -123h680l-31 -61h-639q34 -186 162 -310t315 -130q220 -6 377 167v-59 q-77 -73 -177 -113.5t-206 -40.5q-233 0 -410.5 137.5t-222.5 348.5h-133l29 61h96q-7 49 0 123h-137z" />
<glyph unicode="&#xe000;" horiz-adv-x="860" d="M0 0v860h860v-860h-860z" />
</font>
</defs>
</svg>
