<?xml version="1.0" standalone="no"?>
<!DOCTYPE svg PUBLIC "-//W3C//DTD SVG 1.1//EN" "http://www.w3.org/Graphics/SVG/1.1/DTD/svg11.dtd" >
<svg xmlns="http://www.w3.org/2000/svg">
<metadata></metadata>
<defs>
<font id="lhf_confection_deco_caps_2Rg" horiz-adv-x="1738" >
<font-face units-per-em="2048" ascent="1536" descent="-512" />
<missing-glyph horiz-adv-x="782" />
<glyph unicode="&#xfb01;" horiz-adv-x="1693" d="M113 0v37h123q8 454 2 975q0 50 -30 88.5t-79 38.5h-16v35h870v40h35v-227h-35v31q0 55 -43 88t-102 33h-453l-6 -383q62 47 139 47q63 0 179 -45t177 -45q48 0 86 27.5t37 74.5q0 11 -12 31l10 10q47 -38 47 -98q-1 -66 -50 -104t-115 -38q-48 0 -102.5 20.5t-96 45 t-96 44.5t-101.5 19q-57 0 -102 -22q0 -369 4 -555q2 -53 31.5 -92t77.5 -39h16v-37h-395zM1184 0v37h125q10 540 2 975q-2 51 -31.5 88t-77.5 37h-18v37h397v-37h-123q-9 -483 0 -969q0 -53 28.5 -92t78.5 -39h16v-37h-397z" />
<glyph unicode="&#xfb02;" horiz-adv-x="2230" d="M113 0v37h123q8 454 2 975q0 50 -30 88.5t-79 38.5h-16v35h870v40h35v-227h-35v31q0 55 -43 88t-102 33h-453l-6 -383q62 47 139 47q63 0 179 -45t177 -45q48 0 86 27.5t37 74.5q0 11 -12 31l10 10q47 -38 47 -98q-1 -66 -50 -104t-115 -38q-48 0 -102.5 20.5t-96 45 t-96 44.5t-101.5 19q-57 0 -102 -22q0 -369 4 -555q2 -53 31.5 -92t77.5 -39h16v-37h-395zM1184 0v37h123q11 463 2 975q0 51 -29.5 89t-79.5 38h-16v35h397v-35h-123q-11 -462 -2 -971q1 -53 36.5 -89.5t82 -50.5t98.5 -14q53 1 101.5 7.5t99 23.5t87 43t59 68.5t20.5 97.5 q-2 41 -30 69.5t-68 28.5q-47 3 -78 -35q-23 23 -23 58q1 56 45.5 91.5t104.5 35.5q73 0 120.5 -56t47.5 -131q-1 -86 -43.5 -153.5t-111.5 -106.5t-148 -58.5t-162 -19.5q-60 0 -162 23h-348zM1903 983v16q10 2 28 2q58 0 100 -38t42 -95q0 -46 -49.5 -123t-49.5 -122 q0 -30 14.5 -53t41.5 -23h4v-15h-13q-50 0 -83 37t-33 88q0 42 41 117t41 117q0 38 -20 65t-56 27h-8z" />
<glyph horiz-adv-x="2048" />
<glyph horiz-adv-x="2048" />
<glyph unicode="&#xd;" horiz-adv-x="2048" />
<glyph unicode=" "  horiz-adv-x="782" />
<glyph unicode="&#x09;" horiz-adv-x="782" />
<glyph unicode="&#xa0;" horiz-adv-x="782" />
<glyph unicode="!" horiz-adv-x="438" d="M205 86q0 38 28 66t66 28q39 0 66.5 -27.5t27.5 -66.5q0 -40 -27 -67t-67 -27q-39 0 -66.5 27.5t-27.5 66.5zM207 1094q0 117 26.5 190.5t67.5 73.5q44 0 70 -73t26 -191q0 -88 -16 -222l-39 -335q-4 -72 -8 -228v-26h-64v26q-4 156 -8 228l-39 335q-16 134 -16 222z" />
<glyph unicode="&#x22;" horiz-adv-x="759" d="M207 1352q-3 35 16 54t49 19q31 2 52.5 -17.5t17.5 -55.5l-49 -463h-37zM418 1352q-3 35 16 54t49 19q31 2 52.5 -17.5t17.5 -55.5l-49 -463h-37z" />
<glyph unicode="#" horiz-adv-x="2054" d="M92 0v41h141v1100q0 60 -32.5 104.5t-87.5 44.5h-21v41h328v-41h-129q10 -85 57 -161t119 -132q49 -38 122 -71t134 -54t129 -58t113 -85q77 -82 106 -209v621q0 60 -33 104.5t-90 44.5h-18v41h327v-41h-141v-1102q0 -58 33 -102.5t88 -44.5h20v-41h-186v240 q0 101 -49 191t-133 155q-49 37 -122 70t-133.5 54t-128.5 58.5t-112 85.5q-88 94 -112 250v-916q0 -58 32.5 -102.5t87.5 -44.5h19v-41h-328zM1203 836q6 101 63.5 190.5t150.5 144.5q93 53 198.5 58.5t200 -41.5t148.5 -141q79 -147 28 -300t-194 -235q-93 -54 -198.5 -60 t-200 41.5t-148.5 141.5q-54 100 -48 201zM1306 855q11 -82 54 -157t110.5 -125t148 -62.5t161.5 32.5q76 44 108 122.5t21 161.5t-54 158q-43 74 -111 123.5t-148 61t-160 -32.5q-76 -44 -108.5 -122t-21.5 -160zM1513 86q0 38 28.5 66t66.5 28q39 0 66.5 -27.5t27.5 -66.5 q0 -40 -27 -67t-67 -27q-39 0 -67 27.5t-28 66.5z" />
<glyph unicode="$" horiz-adv-x="1064" d="M41 344q0 88 57 154.5t144 66.5q67 0 118.5 -40t55.5 -105q0 -57 -37 -84q-9 14 -27 29q-30 24 -71 24q-48 0 -80.5 -37t-32.5 -88q0 -87 90 -162q81 -66 191 -82v713q-22 11 -62 35q-182 115 -182 283q0 107 69 182.5t175 105.5v168h45v-157q37 6 75 6v151h45v-153 q110 -11 188.5 -74.5t78.5 -167.5q0 -54 -37 -96.5t-90 -42.5q-43 0 -74.5 26t-32.5 68q0 25 19 41q20 -27 53 -27q31 -1 52.5 20t21.5 52q0 69 -52 110.5t-127 51.5v-477q148 -65 205 -101q94 -57 149 -149t54 -199q-3 -163 -121 -271t-287 -136v-158h-45v153 q-32 -4 -75 -2v-151h-45v153q-133 17 -230 76q-80 49 -129 125.5t-49 165.5zM342 1112q0 -106 109 -184v358q-50 -28 -79.5 -73t-29.5 -101zM496 16q44 0 73 4v658q-1 0 -73 35v-697zM496 897q31 -19 73 -39v459q-35 0 -73 -10v-410zM614 29q114 29 190.5 110.5t76.5 194.5 q0 151 -154 258q-43 31 -113 63v-626z" />
<glyph unicode="%" horiz-adv-x="1087" d="M41 1028q0 136 80 225q76 88 188 88q115 0 191 -88q80 -89 80 -225q0 -135 -80 -227q-77 -86 -191 -86q-111 0 -188 86q-80 92 -80 227zM96 14l817 1303h80l-819 -1303h-78zM139 1028q0 -131 43.5 -199.5t128.5 -68.5q83 0 126.5 68.5t43.5 199.5t-43.5 199.5 t-126.5 68.5q-85 0 -128.5 -68.5t-43.5 -199.5zM508 303q0 135 80 227q77 86 188 86q114 0 191 -86q80 -92 80 -227q0 -136 -80 -225q-74 -86 -191 -86q-114 0 -188 86q-80 89 -80 225zM608 303q0 -268 170 -268q83 0 126.5 68.5t43.5 199.5q0 132 -43.5 200t-126.5 68 q-170 0 -170 -268z" />
<glyph unicode="&#x26;" horiz-adv-x="1382" d="M62 574.5q52 165.5 206 279.5q-57 96 -57 195q1 93 56.5 165t138 107t174.5 35q134 0 223 -58v78h41v-329h-41v61q0 91 -72 148t-166 57q-88 0 -152.5 -58t-64.5 -145q0 -80 38.5 -149.5t109.5 -153.5l346 -408q18 -21 56.5 -65.5t68 -78.5t45.5 -52q151 144 151 325 q0 79 -40.5 140t-114.5 61q-46 0 -80 -33t-35 -80q0 -20 4 -32h-18q-49 3 -81 42.5t-32 90.5q0 77 60 128.5t139 51.5q121 1 205.5 -85.5t84.5 -207.5q3 -235 -217 -434q120 -133 236 -133q37 0 67 12v-35q-62 -41 -161 -41q-118 0 -252 113q-180 -113 -375 -113 q-152 0 -276 69.5t-193 211.5q-74 155 -22 320.5zM184.5 596.5q-19.5 -128.5 40.5 -254.5q63 -131 183.5 -206t257.5 -75q124 0 227 56q-64 60 -164 180q-294 346 -340 397q-54 61 -94 117q-91 -86 -110.5 -214.5z" />
<glyph unicode="'" horiz-adv-x="442" d="M82 1260q0 40 27 68t67 28q45 0 74 -37t29 -84q0 -69 -54 -137q-39 -48 -90 -70l-24 33q66 32 88 108q-12 -4 -23 -4q-39 0 -66.5 28t-27.5 67z" />
<glyph unicode="(" horiz-adv-x="583" d="M31 627q0 264 98.5 488.5t265.5 357.5l35 -35q-129 -132 -204.5 -346.5t-75.5 -464.5q0 -251 75 -465.5t205 -347.5l-35 -35q-167 133 -265.5 357.5t-98.5 490.5z" />
<glyph unicode=")" horiz-adv-x="585" d="M154 -186q130 133 206 347.5t76 463.5q0 251 -76 465.5t-206 347.5l34 35q168 -133 267.5 -358t99.5 -490q0 -264 -99.5 -488.5t-267.5 -357.5z" />
<glyph unicode="*" horiz-adv-x="1900" d="M-41 213q0 101 62.5 177.5t160.5 76.5q65 0 114.5 -42t49.5 -106q-3 -56 -45 -75q-11 28 -35 44.5t-55 16.5q-58 1 -93.5 -44t-35.5 -105q0 -87 50.5 -155.5t127 -103t162.5 -36.5q100 -2 188 39t142 120q28 41 47.5 95t29.5 97.5t15 114.5t6 105t2 111v37h-201 q-14 0 -27.5 -6t-17.5 -15q14 -3 24.5 -14.5t10.5 -24.5q0 -17 -12 -29t-29 -12q-22 0 -34.5 15.5t-12.5 37.5q0 37 29.5 59.5t68.5 22.5h201q2 118 11.5 200.5t44 182t96.5 172.5q153 183 436 177q50 0 131 -15h227v-35h-123q-11 -539 -2 -1128q0 -51 30 -92t79 -41h16v-35 h-397v35h123q6 273 6 545h-533q-12 -409 -192 -596q-71 -74 -167 -113.5t-202 -42.5q-118 -3 -225.5 40t-179.5 134t-72 211zM999 614h533q0 279 -6 555q-2 56 -32 97.5t-81 40.5q-234 -3 -328 -185q-35 -66 -54.5 -160t-24 -165.5t-7.5 -182.5z" />
<glyph unicode="+" horiz-adv-x="849" d="M41 662v79h344v344h80v-344h344v-79h-344v-345h-80v345h-344z" />
<glyph unicode="," horiz-adv-x="444" d="M205 84q0 40 28 68t68 28q45 0 73.5 -37t28.5 -84q0 -74 -53 -137q-38 -48 -92 -69l-22 32q62 30 88 109q-16 -4 -23 -4q-40 0 -68 28t-28 66z" />
<glyph unicode="-" horiz-adv-x="849" d="M154 621v94h487v-94h-487z" />
<glyph unicode="." horiz-adv-x="505" d="M246 86q0 38 28 66t66 28q39 0 66.5 -27.5t27.5 -66.5q0 -40 -27 -68t-67 -28q-38 0 -66 28t-28 68z" />
<glyph unicode="/" horiz-adv-x="694" d="M41 -88l516 1509h96l-518 -1509h-94z" />
<glyph unicode="0" horiz-adv-x="1355" d="M82 666q0 302 176 499q169 193 420 193q248 0 420 -193q176 -200 176 -499q0 -300 -176 -500q-173 -191 -420 -191q-250 0 -420 191q-176 197 -176 500zM268 668q0 -317 104.5 -482.5t305.5 -165.5t305 165.5t104 482.5t-104 481t-305 164t-305.5 -164.5t-104.5 -480.5z " />
<glyph unicode="1" horiz-adv-x="679" d="M123 0v41h139q13 520 4 997q0 26 -18.5 44t-44.5 18q-23 0 -41 -15l-8 -8l-25 29l303 250l23 -29l-37 -31q-12 -527 -2 -1108q2 -59 34.5 -103t88.5 -44h18v-41h-434z" />
<glyph unicode="2" horiz-adv-x="1146" d="M104 0q-12 191 162 371q43 45 106.5 89t142.5 91.5t122 79.5q98 70 151.5 148t53.5 186q0 141 -94.5 243.5t-233.5 102.5q-71 0 -134.5 -22t-109 -73.5t-43.5 -123.5q1 -32 24 -54t54 -22q22 0 41.5 11.5t28.5 31.5q28 -21 28 -55q0 -47 -35 -79t-83 -32q-60 0 -99 45 t-39 106q0 76 35.5 137.5t93.5 99t128 57t143 18.5q87 -2 169.5 -29t149 -75.5t106.5 -123.5t40 -165q0 -76 -24.5 -138t-73.5 -110.5t-99.5 -82t-124.5 -71.5q-27 -14 -105 -51t-116 -57t-91.5 -55.5t-88.5 -71.5q-81 -81 -121 -197h686q60 0 105 33t45 90v31h40v-330h-40 v47h-900z" />
<glyph unicode="3" horiz-adv-x="1206" d="M94 354q0 74 48.5 130.5t121.5 56.5q58 0 102 -39t44 -96q0 -44 -35 -68q-12 25 -35 38.5t-51 12.5q-38 0 -66.5 -27t-29.5 -65q-3 -83 67 -156q117 -123 307 -123q149 -1 258 106.5t109 254.5q0 139 -94.5 246.5t-231.5 107.5h-39v45h39q102 0 170 80.5t68 185.5 q0 112 -87 189.5t-202 79.5q-70 0 -133.5 -22t-108.5 -72t-45 -119q0 -34 22.5 -58t55.5 -24q49 0 70 41q28 -17 28 -53q0 -48 -35.5 -79.5t-82.5 -31.5q-61 0 -100.5 47t-39.5 109q1 74 35.5 134t91 97t125 56.5t140.5 19.5q77 0 150.5 -18.5t137 -55t102 -99t38.5 -141.5 q0 -94 -67.5 -171t-174.5 -115q71 -17 131 -49t107 -78.5t73.5 -111t26.5 -140.5q0 -78 -30 -144.5t-80 -113.5t-116 -80.5t-139 -49.5t-147 -16q-238 0 -383 131q-54 49 -85 113.5t-30 134.5z" />
<glyph unicode="4" horiz-adv-x="1218" d="M20 330l750 1001h125q-9 -439 -6 -903h29q58 0 103.5 33t45.5 88v31h39v-330h-39v47h-176v-109q0 -58 33.5 -102.5t89.5 -44.5h20v-41h-436v41h139q4 156 4 256h-692zM152 426h589q3 379 -4 784z" />
<glyph unicode="5" horiz-adv-x="1214" d="M102 354q2 75 49.5 131t120.5 56q60 0 104 -38.5t44 -96.5q0 -44 -35 -68q-28 51 -86 51q-38 0 -66.5 -27t-29.5 -65q-3 -83 67 -156q117 -125 328 -125q103 1 187.5 58.5t130 148t45.5 193.5q0 157 -104 273t-259 116q-76 0 -150.5 -32.5t-123.5 -90.5l-43 23l77 626 h590v47h41v-329h-41v30q0 55 -45.5 89t-103.5 34h-410l-55 -448q56 49 135.5 75.5t153.5 26.5q128 0 241 -52t185.5 -152.5t72.5 -227.5q0 -99 -43.5 -184t-115 -142t-163 -89.5t-188.5 -33.5q-251 0 -393 131q-55 48 -86 112.5t-31 135.5z" />
<glyph unicode="6" horiz-adv-x="1247" d="M92 645q0 163 53 309.5t160 255.5q70 71 164 109.5t195 38.5q96 0 181.5 -34.5t143.5 -107.5t58 -169q0 -62 -39.5 -109.5t-100.5 -48.5q-47 0 -82 32t-34 78q0 37 26 56q22 -43 70 -43q33 0 55.5 24.5t22.5 57.5q0 73 -47 124t-111.5 72t-136.5 21q-96 0 -177.5 -49.5 t-127.5 -133.5q-47 -88 -76 -212.5t-29 -245.5q0 -23 4 -97l8 21q45 115 151.5 187.5t240.5 72.5q212 0 351.5 -122.5t139.5 -309.5q0 -192 -140 -319.5t-353 -127.5q-112 0 -215 38.5t-175 115.5q-180 197 -180 516zM289 410q0 -177 98.5 -284.5t261.5 -107.5 q151 0 243.5 109t92.5 289q0 171 -97.5 280t-248.5 109q-154 0 -252 -111t-98 -284z" />
<glyph unicode="7" horiz-adv-x="1011" d="M82 1049v329h39v-47h815q18 0 20 10h33q3 -52 -28 -98q-7 -10 -16 -20t-22.5 -22.5t-17.5 -16.5q-185 -188 -293 -422q-123 -262 -123 -533q0 -49 9.5 -88t38.5 -69.5t75 -30.5h19v-41h-326q-22 54 -22 135q0 135 64.5 310t174.5 348q133 204 289 356q7 8 26.5 26 t26.5 25h-594q-58 0 -103.5 -33t-45.5 -88v-30h-39z" />
<glyph unicode="8" horiz-adv-x="1236" d="M102 356q0 235 324 365q-66 27 -109 65q-110 91 -110 234q0 80 37.5 146t98.5 107t135.5 63t152.5 22q71 0 139 -16.5t127.5 -49t96 -90t36.5 -131.5q0 -60 -24.5 -109t-70 -84.5t-91 -59t-107.5 -46.5q133 -48 191 -78q94 -50 150.5 -126.5t56.5 -172.5 q0 -188 -134 -302t-364 -118q-95 -2 -186.5 19t-171 64.5t-128.5 120.5t-49 177zM252 360q0 -151 115.5 -248.5t269.5 -97.5q91 0 171 38.5t130.5 112t50.5 165.5q0 102 -71.5 172t-227.5 123q-165 56 -198 69q-105 -31 -172.5 -124.5t-67.5 -209.5zM334 1083 q0 -64 36.5 -120t102.5 -93q35 -18 191 -71l38 16q201 90 201 254q0 110 -84 180t-198 70q-128 0 -207.5 -65t-79.5 -171z" />
<glyph unicode="9" horiz-adv-x="1249" d="M92 909q0 193 141 321t353 128q114 0 216.5 -38.5t174.5 -117.5q180 -197 180 -516q0 -162 -53 -309t-160 -254q-72 -72 -165 -110t-195 -38q-222 0 -346 111q-102 95 -99 211q2 64 42.5 112t101.5 48q51 0 88 -33.5t37 -83.5q0 -35 -29 -57q-22 45 -74 45 q-32 0 -56.5 -23t-25.5 -57q-2 -63 58 -131q99 -105 266 -105q106 0 196.5 51t139.5 142q47 88 76.5 213t29.5 244q0 20 -4 98q-41 -126 -152 -204.5t-249 -78.5q-212 0 -352 123t-140 309zM264 918q0 -171 97 -280.5t247 -109.5q155 0 254 111.5t99 284.5q0 175 -100 283 t-263 108q-150 0 -242 -109t-92 -288z" />
<glyph unicode=":" horiz-adv-x="352" d="M123 86q0 40 28 68t66 28q40 0 67 -28t27 -68q0 -39 -27.5 -66.5t-66.5 -27.5q-38 0 -66 28t-28 66zM123 895q0 38 28 66t66 28q39 0 66.5 -27.5t27.5 -66.5q0 -40 -27 -67t-67 -27q-39 0 -66.5 27.5t-27.5 66.5z" />
<glyph unicode=";" horiz-adv-x="280" d="M41 86q0 40 28 68t66 28q47 0 76 -37t29 -84q0 -71 -56 -137q-39 -49 -90 -69l-22 30q63 36 88 111q-16 -4 -25 -4q-38 0 -66 28t-28 66zM41 895q0 38 28 66t68 28q38 0 66 -28t28 -66q0 -39 -27.5 -66.5t-66.5 -27.5q-40 0 -68 27t-28 67z" />
<glyph unicode="&#x3c;" horiz-adv-x="2007" d="M92 778q0 160 85.5 292t224.5 204t300 72q89 0 177 -15h249q85 15 179 15q159 0 298 -72t224.5 -204t85.5 -292q0 -163 -70.5 -326t-191.5 -290q-11 -11 -24 -23t-29 -26t-25 -23q9 -19 15 -29t19.5 -18t32.5 -8h17v-35h-289v35h49q14 0 31 8.5t23.5 14t25.5 22.5 q59 47 107 108q82 108 127.5 247.5t44.5 281.5q-1 113 -39 219.5t-104.5 189t-166.5 132.5t-215 49q-84 0 -174 -23q-6 -316 -6 -633q0 -161 4 -485q0 -51 29.5 -91t77.5 -40h18v-35l-397 -168v43l121 53q10 650 10 723q0 211 -8 633q-90 23 -172 23q-116 1 -216 -49 t-167 -132.5t-105 -189t-39 -219.5q-1 -134 46 -262t133 -236q44 -56 67.5 -86t65 -88t63.5 -96.5t40 -84t18 -77.5q0 -88 -52 -156t-137 -69q-57 -2 -101 28t-44 84q0 25 13.5 43.5t35.5 18.5q18 0 30.5 -11.5t12.5 -29.5q0 -16 -11 -27.5t-28 -11.5q-6 0 -8 2 q2 -11 17.5 -23t29.5 -12q63 0 92 53.5t27 122.5q-3 209 -158 400q-56 67 -85.5 104.5t-75 104t-68.5 117.5t-41.5 119t-18.5 134z" />
<glyph unicode="=" horiz-adv-x="1482" d="M92 1249q0 37 29.5 59.5t68.5 22.5h324q88 15 191 15q98 0 192.5 -14t189 -49t165.5 -87.5t115 -136.5t44 -189q0 -81 -23 -161t-66.5 -154.5t-88.5 -133.5t-107 -130q-72 -81 -119.5 -148t-85 -160t-38.5 -184q0 -70 28.5 -123t89.5 -53q14 0 30.5 12t19.5 23h-9 q-17 0 -29 11t-12 28t12.5 28t30.5 11q23 0 37.5 -18.5t14.5 -41.5q0 -53 -44 -83.5t-102 -30.5q-85 1 -137.5 69t-52.5 158q0 39 13.5 83t44.5 93.5t56.5 87t75.5 94t73.5 82t76.5 82.5q200 215 203 430q1 124 -51 232t-139.5 181t-201.5 115t-235 42q-106 0 -205 -21 q-6 -300 -2 -1124q0 -51 29 -91t77 -40h19v-35h-397v35h122q12 567 3 1134q0 49 -29.5 88t-77.5 39h-25q-27 0 -45 -18q0 -2 -2 -2q15 -3 25 -14t10 -25q0 -17 -12 -29t-27 -12q-22 0 -34.5 15.5t-12.5 37.5z" />
<glyph unicode="&#x3e;" horiz-adv-x="2193" d="M-39 1239q-1 65 52 111.5t120 46.5q48 0 103.5 -20.5t98.5 -45.5t98.5 -45.5t103.5 -19.5q105 0 168 63l22 -22q-13 -15 -41 -35q-178 -126 -275.5 -323.5t-97.5 -420.5q1 -114 39.5 -224.5t105.5 -198t167.5 -141t216.5 -52.5q116 0 213 57q7 690 -2 1200q0 49 -29.5 88 t-77.5 39h-18v35h397v-35h-123q-13 -619 -2 -1327q97 -57 213 -57q116 -1 216.5 52.5t167.5 141t105.5 198t39.5 224.5q0 236 -84 420q-82 178 -232 303q-53 45 -92 45h-16v35h256v-35h-146q182 -130 309 -315q77 -111 119.5 -243t42.5 -267q0 -170 -75.5 -316.5 t-213.5 -236.5t-307 -90q-215 0 -377 143q-159 -143 -376 -143q-127 0 -239.5 53t-190 141.5t-122.5 205.5t-44 243q1 218 109 410.5t290 337.5q-50 -5 -61 -5q-62 -1 -179 45t-178 46q-41 0 -71.5 -27.5t-30.5 -67.5q0 -17 9.5 -34t25.5 -23q-2 6 -2 10q0 15 11.5 27 t28.5 12t28 -12.5t11 -30.5q0 -23 -17.5 -36t-41.5 -13q-54 0 -89.5 38.5t-35.5 90.5z" />
<glyph unicode="?" horiz-adv-x="983" d="M123 1069q1 57 23.5 105.5t60 81.5t87 56.5t102.5 34.5t108 11q80 0 157 -22.5t140 -65t101.5 -110t37.5 -150.5q-1 -46 -17 -90t-39 -77t-60.5 -68.5t-68.5 -59t-75 -53.5q-72 -48 -120.5 -120.5t-61.5 -156.5q-11 -64 -11 -104h-65q-4 70 -4 102q-1 100 46.5 192 t127.5 166q85 77 135 152t51 162q1 108 -79.5 181t-190.5 73q-50 0 -97 -11t-89 -32.5t-68 -61t-27 -90.5q0 -34 25 -58.5t59 -23.5q40 0 64 31q23 -20 20 -49q0 -48 -36.5 -78.5t-84.5 -30.5q-63 1 -107 51t-44 113zM360 86q0 38 28.5 66t66.5 28q40 0 68 -28t28 -66 q0 -40 -28 -68t-68 -28q-39 0 -67 28t-28 68z" />
<glyph unicode="@" horiz-adv-x="1404" d="M72 588q0 129 54.5 243t145 192.5t210 124.5t247.5 46q162 0 300.5 -75.5t221 -210t82.5 -296.5q0 -67 -11 -127.5t-36.5 -118.5t-75 -93.5t-118.5 -36.5q-40 0 -75 21t-48 56l-19 52q-31 -64 -101 -100t-151 -36q-58 0 -113 13t-104 39t-78.5 72.5t-29.5 107.5 q0 101 106 164q51 30 154 49.5t137 32.5q35 11 60.5 36.5t25.5 57.5q0 63 -49 102t-113 39q-86 0 -127 -29q-52 -36 -55 -84q-2 -22 13.5 -38t37.5 -15q25 0 39 21q14 -14 14 -31q-1 -31 -23 -49.5t-52 -18.5q-38 0 -63 29.5t-25 69.5q0 59 38.5 100.5t91.5 58t111 15.5 q143 0 228 -94q21 -22 36 -54.5t21 -56.5t14 -64l64 -294q19 -109 71 -111q21 0 37.5 7.5t28 25t20 35t13.5 46t8 49.5t4 54t1.5 50t0.5 48q0 143 -66 266.5t-184.5 198t-261.5 74.5q-152 0 -280.5 -76.5t-202.5 -205.5t-76 -281q-2 -154 72.5 -284t204 -205.5t282.5 -75.5 q201 0 324 106l26 -35q-140 -117 -350 -117q-172 0 -322 77.5t-242.5 219t-92.5 314.5zM494 457q0 -83 61 -137t145 -56q90 -2 160.5 47.5t69.5 134.5q0 20 -6 41l-35 183l-15 71q-30 -43 -57 -57q-34 -18 -92.5 -29.5t-106.5 -28t-79 -51.5q-45 -51 -45 -118z" />
<glyph unicode="A" horiz-adv-x="2056" d="M2 254q2 79 52.5 138.5t127.5 60.5h6q60 1 104 -41q46 -44 46 -107q0 -52 -43 -76q-10 29 -35.5 46.5t-56.5 17.5q-42 0 -72.5 -28.5t-30.5 -69.5q0 -66 36 -129t95 -109q125 -94 299 -94q124 0 228 72t162 186q40 79 54.5 169.5t18.5 209.5q-3 1 -20.5 10.5t-26.5 13.5 q-65 35 -89.5 47.5t-79 37t-99 34t-90.5 10.5q-86 0 -153.5 -48.5t-67.5 -131.5q0 -58 39.5 -101t97.5 -44q62 0 104 39q41 38 41 88q0 34 -20 51q-1 -15 -12.5 -25t-26.5 -10q-17 0 -28 11t-11 28q0 22 15 34.5t36 12.5q38 0 60 -30t22 -70q0 -64 -47 -111 q-51 -51 -133 -51q-72 0 -122 53t-50 125q0 96 78 155.5t178 59.5q48 0 94.5 -10t104 -35.5t83 -38t93.5 -49.5q10 -4 30 -16v39q0 108 8 192h-104q-28 0 -43 -18q-1 0 -2 -1t-2 -1q15 -3 25 -14t10 -25q0 -17 -11 -29t-28 -12q-22 0 -34.5 15.5t-12.5 37.5q0 37 29.5 59.5 t68.5 22.5h109q24 199 116 328q-35 -7 -57 -7q-73 0 -126 41t-54 113v7q1 43 25 79q26 38 73 39q20 0 35.5 -12t15.5 -31q0 -16 -9.5 -27.5t-23.5 -11.5q-15 0 -24.5 10.5t-9.5 24.5v8q-10 -1 -19.5 -15t-9.5 -28q0 -45 38 -69t89 -23q45 0 88.5 10.5t111.5 36t85 31.5 q109 37 219 37h16q49 0 133 -15h226v-35h-121q-8 -350 -8 -681q0 -229 4 -449q2 -52 30.5 -91.5t77.5 -39.5h17v-35h-396v35h123q6 270 6 536q-66 -81 -157 -128t-195 -48q-89 0 -184 37q-24 -230 -133 -371q-86 -110 -212.5 -171.5t-267.5 -61.5q-185 0 -331 106 q-195 143 -195 315v5zM1143 467q109 -37 182 -37q96 1 182 46t146 122h-506v-20q0 -74 -4 -111zM1151 709h526v61h-223v6q0 17 -12 29t-29 12t-29 -12t-12 -29v-6h-219zM1155 805h186q19 47 72 47t72 -47h192q0 118 -4 364q-2 55 -32 97q-29 41 -80 41h-2q-232 -3 -326 -185 q-61 -120 -78 -317z" />
<glyph unicode="B" horiz-adv-x="1562" d="M43 276q2 80 51.5 139t126.5 60h6q61 0 105 -41q46 -42 45 -103q0 -56 -43 -77q-10 28 -35.5 44.5t-56.5 16.5q-42 0 -71.5 -28.5t-29.5 -74.5q0 -140 166 -251q148 -96 375 -96q94 0 185 16.5t178 53.5t153 91t106 136.5t39 181.5q0 115 -65.5 210t-173.5 136 q-90 37 -197 37h-305q0 -187 4 -559q2 -52 31 -92.5t78 -40.5h16v-35h-395v35h123q6 297 6 610q0 256 -4 524q-2 50 -31.5 88.5t-77.5 38.5h-24q-28 0 -45 -20q14 -3 24 -14.5t10 -24.5q0 -17 -11.5 -29t-26.5 -12q-23 0 -36.5 15.5t-13.5 41.5q0 32 31 55t68 23h325 q88 15 189 15q525 0 536 -308v-10q0 -56 -20 -103q-22 -51 -62.5 -85.5t-90 -57.5t-109.5 -37q45 -7 71 -14q142 -35 238 -141t96 -246q0 -96 -33 -175.5t-91.5 -134t-132 -95t-162 -63.5t-173.5 -34.5t-174 -13.5h-21q-265 0 -435 100q-107 60 -173 150q-64 86 -63 189v9z M602 764h305q151 0 232 74q78 71 78 191v9q-1 73 -39 128.5t-98.5 85.5t-127 44.5t-137.5 14.5q-108 0 -207 -21q-4 -352 -6 -526z" />
<glyph unicode="C" horiz-adv-x="1579" d="M162 895q67 143 177.5 242t258.5 155q141 54 291 54h16q201 -3 377 -107q102 -62 165 -151.5t62 -196.5q-2 -79 -52.5 -138.5t-127.5 -60.5h-6q-59 0 -103 41q-46 43 -46 107q0 51 43 75q12 -28 37 -45.5t55 -17.5q42 0 72 28.5t30 71.5q0 140 -156 246 q-160 109 -365 109h-11q-137 -1 -253.5 -63.5t-193.5 -163t-120 -227.5t-44 -261v-6q0 -132 42 -258q42 -129 119 -231t194.5 -165.5t255.5 -64.5h18q224 0 406 143q97 75 155 189q14 22 27 55l33 -18q-2 -5 -7.5 -15.5t-7.5 -15.5q-65 -133 -178 -223q-188 -151 -420 -154 h-16q-152 0 -293 54q-149 58 -260 158q-111 102 -177 246q-65 142 -65 301q0 163 68 308z" />
<glyph unicode="D" horiz-adv-x="1703" d="M43 279q2 78 51.5 137t126.5 59q65 0 111 -42q45 -41 45 -102q0 -56 -43 -77q-10 28 -35.5 44.5t-56.5 16.5q-42 0 -71.5 -28.5t-29.5 -72.5q-1 -74 45 -138t121 -113q151 -98 375 -98q286 0 457 121q141 98 219 267q77 165 76 346v9q-2 140 -48 272t-131 232 q-80 97 -196 148t-244 51q-106 0 -205 -21q-6 -294 -6 -604q0 -254 4 -518q0 -51 29.5 -91t79.5 -40h16v-37h-395v37h121q8 350 8 682q0 230 -4 450q-2 51 -31.5 89t-77.5 38h-24q-28 0 -43 -18q-1 0 -2 -1t-2 -1q15 -1 24.5 -12.5t9.5 -26.5q0 -17 -10.5 -28t-27.5 -11 q-22 0 -35 15.5t-13 35.5q0 38 29.5 60t69.5 22h325q88 15 187 15q140 0 270.5 -45.5t233.5 -133.5q123 -104 193 -248q71 -146 71 -315q0 -220 -118 -401q-119 -183 -314 -279q-187 -93 -443 -96h-15q-264 0 -441 100q-107 61 -173 151q-64 86 -63 191v9z" />
<glyph unicode="E" horiz-adv-x="1562" d="M92 592q0 160 67 303t179 242t260 155q141 54 291 54h16q201 -3 377 -107q102 -62 165 -151.5t62 -196.5q-2 -79 -52.5 -138.5t-127.5 -60.5h-6q-59 0 -103 41q-46 43 -46 107q0 51 43 75q11 -28 35.5 -45.5t56.5 -17.5q42 0 72 28.5t30 71.5q0 140 -156 246 q-160 109 -365 109h-11q-109 -1 -206.5 -41t-170 -109t-125.5 -158.5t-80.5 -192t-28.5 -208.5q80 61 178 61q65 0 144 -28t158 -56.5t143 -29.5q59 0 104 28t45 82q0 15 -11 30.5t-23 16.5q2 -4 2 -8q0 -17 -12 -28t-29 -11t-28 12t-11 29q0 24 18 38t41 14 q54 0 84.5 -44.5t30.5 -101.5q-1 -82 -63 -129t-146 -47h-6q-45 0 -95 16q-52 16 -99 40t-93.5 48t-100 41t-102.5 17q-65 0 -129 -31q4 -104 32.5 -204t82 -187.5t125 -153.5t167.5 -105t204 -40h11q207 0 365 108q156 106 156 246q0 41 -30.5 71t-71.5 30q-32 0 -56.5 -18 t-35.5 -46q-43 24 -43 76q0 62 46 104.5t109 42.5q77 -1 127.5 -60.5t52.5 -137.5q1 -107 -62 -197t-165 -152q-174 -103 -377 -106h-16q-152 0 -294 54q-149 57 -259.5 157.5t-177 245t-66.5 307.5z" />
<glyph unicode="F" horiz-adv-x="1267" d="M102 1249q0 37 30 59.5t69 22.5h938v41h37v-227h-37v31q0 54 -44 87t-100 33h-514q-6 -307 -6 -614q35 22 80 57q16 13 57 47.5t61 51t59 43t67.5 39.5t66.5 23.5t76 10.5q92 0 162.5 -53.5t71.5 -142.5q0 -58 -37 -103t-95 -45q-59 0 -73 45q27 8 44 31t17 53 q0 55 -44.5 85t-102.5 30q-29 0 -60 -8t-51 -15.5t-55.5 -30.5t-45.5 -30t-52 -40t-46 -36q-42 -34 -100 -67q0 -149 4 -461q0 -51 29.5 -91t79.5 -40h16v-35l-397 -166v41l123 53q4 233 6 427.5t2 224.5q-40 -5 -47 -5q-62 0 -113 25l15 31q46 -17 81 -17q29 0 64 7 q0 184 -4 548q-2 50 -31.5 88.5t-77.5 38.5h-24q-31 0 -45 -20q14 -3 24 -14.5t10 -24.5q0 -17 -11.5 -29t-28.5 -12q-22 0 -35 15.5t-13 37.5z" />
<glyph unicode="G" horiz-adv-x="1716" d="M92 592q0 160 67 303t178 242t260 155q141 54 292 54h16q202 -3 375 -107q103 -63 166 -152q61 -85 61 -186v-10q-2 -78 -51.5 -138t-126.5 -61h-6q-60 0 -104 41q-45 42 -45 104q0 54 43 78q11 -28 35.5 -45.5t56.5 -17.5q42 0 71 29t29 74q0 71 -43 133t-113 110 q-160 109 -363 109h-11q-110 -1 -208 -41.5t-170.5 -110t-125.5 -160t-79.5 -194t-27.5 -209.5v-8q0 -104 26 -204q26 -105 78.5 -197t125 -162t171 -111.5t210.5 -42.5h11q205 0 363 108q65 44 99 88q4 294 4 408q-58 -4 -126.5 -32t-121.5 -58.5t-122 -55.5 q-65 -24 -123 -24h-5q-83 0 -144.5 47t-62.5 129v7q0 53 29 94q30 45 84 45q24 0 42.5 -14t18.5 -36q0 -17 -12 -30t-29 -13t-28 11t-11 28v9q-12 -3 -23 -18t-11 -30q0 -54 44.5 -81t104.5 -27q66 0 148 28t163 56q78 26 143 26h5q192 0 305 -116l-25 -29q-45 45 -104 66 q0 -61 4 -287q0 -51 29.5 -91t79.5 -40h16v-35h-254q-44 -41 -90 -66q-171 -103 -375 -106h-16q-152 0 -294 54q-149 57 -259.5 157.5t-177 245t-66.5 307.5z" />
<glyph unicode="H" horiz-adv-x="1947" d="M41 350q1 126 68.5 229t176.5 159t234 57q81 0 199 -25q0 133 -4 399q-2 50 -31.5 88.5t-77.5 38.5h-24q-31 0 -45 -20q14 -3 24 -14.5t10 -24.5q0 -17 -12 -29t-29 -12q-21 0 -34 16t-13 37q0 37 30 59.5t69 22.5h403v-35h-123q-6 -282 -6 -561q184 -51 299 -53h11 q253 0 413 135l-4 352q0 49 -30.5 88t-78.5 39h-16v35h395v-35h-123q-6 -349 -6 -659q0 -248 4 -471q2 -52 31 -91.5t78 -39.5h16v-35h-395v35h123q6 366 6 727q-87 -85 -200 -132t-240 -48q-123 0 -283 47q0 -151 4 -463q2 -52 31 -91.5t78 -39.5h16v-35l-395 -166v41 l121 53l8 740q-151 43 -268 43q-153 -2 -266 -101t-113 -248q0 -117 69.5 -204.5t182.5 -87.5q52 0 90 30q38 29 37 76q0 28 -14.5 49.5t-39.5 30.5q19 37 66 37q54 0 89.5 -41.5t35.5 -95.5q0 -83 -65 -137t-150 -54q-99 0 -176 56.5t-116.5 143.5t-39.5 185z" />
<glyph unicode="I" horiz-adv-x="747" d="M123 1249q0 37 29.5 59.5t68.5 22.5h404v-35h-123q-8 -350 -7 -681q0 -229 3 -449q2 -52 30.5 -91.5t77.5 -39.5h19v-35l-398 -166v41l121 53q8 437 8 791q0 245 -4 450q0 50 -29 88.5t-77 38.5h-25q-30 0 -47 -20q15 -3 25 -14t10 -25q0 -17 -12 -29t-27 -12 q-22 0 -34.5 15.5t-12.5 37.5z" />
<glyph unicode="J" horiz-adv-x="1327" d="M20 231q0 103 70 177q70 73 171 73h3q65 0 114.5 -42.5t49.5 -106.5q0 -43 -26.5 -76.5t-67.5 -36.5q-2 0 -7 1t-8 1q5 20 5 25q0 39 -29.5 67.5t-69.5 28.5q-57 0 -92 -46.5t-35 -107.5q1 -77 37.5 -140t96.5 -102t131.5 -60t146.5 -23h5q117 0 259 92q17 11 48.5 33.5 t58.5 39.5t51 29v109q4 252 4 502.5t-4 500.5q0 50 -29 88.5t-78 38.5h-24q-27 0 -45 -18q0 -2 -2 -2q15 -1 24.5 -12.5t9.5 -26.5q0 -17 -11.5 -28t-26.5 -11q-22 0 -35 15t-13 36q0 37 30 59.5t69 22.5h403v-35h-123q-7 -330 -7 -634q0 -257 5 -494q2 -52 30.5 -91.5 t76.5 -39.5h18v-37h-65q-42 0 -83.5 -11.5t-59 -20t-68.5 -34.5q-210 -106 -396 -106h-10q-91 1 -180 29t-161 77.5t-116.5 127t-44.5 169.5zM164 956q0 68 50.5 113t119.5 45q21 0 31 -2v-18h-9q-40 0 -64 -34t-24 -77q0 -49 47 -136.5t47 -137.5q0 -60 -39 -104t-98 -44 q-8 0 -14 2v17h6q31 0 48.5 27t17.5 61q0 36 -18.5 75.5t-40.5 68.5t-40.5 68.5t-19.5 75.5z" />
<glyph unicode="K" horiz-adv-x="1593" d="M102 1249q0 36 30.5 59t68.5 23h403v-35h-121q-8 -265 -8 -594q66 13 126 48.5t111.5 90t89.5 105.5t81 119q32 50 53.5 81t58.5 73.5t70 66.5t79 42t95 18q94 0 164 -57.5t70 -147.5q0 -61 -39 -106.5t-99 -45.5q-48 0 -69 41q26 10 41.5 33t15.5 53q0 51 -41 84 q-42 33 -98 33q-79 0 -140 -51t-118 -135q-103 -156 -201 -246q10 2 33 2h3q104 0 192 -59q89 -60 134 -160q23 -49 52 -147t37 -122q18 -55 42.5 -102t59 -90t82 -67.5t102.5 -24.5q21 0 39 6v-35q-51 -22 -121 -22h-3q-113 0 -201 78q-89 78 -132 196q-16 43 -42.5 138.5 t-45.5 142.5q-90 223 -235 225q-35 0 -51 -4q-97 -70 -195 -86q0 -168 4 -504q2 -52 31 -91.5t78 -39.5h16v-35l-395 -166v41l121 53l4 238q4 168 4 502q-74 14 -123 47l18 26q41 -31 105 -41q0 153 -4 469q0 49 -30.5 88t-78.5 39h-24q-25 0 -43 -18l-2 -2q14 -3 24 -14.5 t10 -24.5q0 -17 -11.5 -29t-26.5 -12q-22 0 -36 16t-14 37z" />
<glyph unicode="L" horiz-adv-x="1433" d="M102 1249q0 36 30.5 59t68.5 23h405v-35h-123q-8 -370 -8 -725q0 -246 4 -485q0 -11 4 -31q25 -11 51 -27.5t57.5 -39t47.5 -33.5q142 -92 259 -92h5q75 2 146.5 23t131.5 60t96.5 102t37.5 140q0 61 -35 107.5t-92 46.5q-41 0 -69.5 -28t-28.5 -68q0 -17 4 -25 q-3 0 -8.5 -1t-8.5 -1q-41 3 -66.5 36.5t-25.5 76.5q0 64 49.5 106.5t114.5 42.5h3q100 0 170 -73q69 -72 69 -171v-6q-1 -77 -30 -143t-78 -112.5t-113.5 -80.5t-135.5 -50t-145 -17h-10q-183 0 -396 106q-125 66 -223 66h-51v37h123q6 296 6 609q0 256 -4 523 q0 50 -30 88.5t-79 38.5h-24q-28 0 -45 -20q15 -1 24.5 -12.5t9.5 -26.5q0 -17 -11.5 -28t-26.5 -11q-22 0 -36 15t-14 36zM1061 1102v18q20 4 31 4q69 0 118.5 -45.5t49.5 -113.5q0 -35 -18.5 -74.5t-40.5 -69t-40.5 -69.5t-19.5 -76q0 -35 17 -61.5t50 -26.5h4v-17h-12h-3 q-57 0 -95 43q-39 44 -39 103q0 50 47 138t47 138q0 43 -24 76t-64 33h-8z" />
<glyph unicode="M" horiz-adv-x="2080" d="M92 -123l109 45l379 1307q-1 1 -3.5 4t-3.5 4q-27 59 -90 59h-32q-31 0 -48 -20q15 -1 25 -12.5t10 -26.5q0 -17 -11.5 -28t-27.5 -11q-22 0 -34.5 15t-12.5 36q0 37 30 59.5t69 22.5h223q20 -72 61 -121q26 -34 60 -66.5t77 -70t66 -59.5q60 -60 100 -148q40 87 101 148 q16 16 91.5 84.5t110.5 111.5q47 56 62 121h223v-35h-104q45 -200 169.5 -609t159.5 -544q11 -45 43 -75.5t76 -30.5h19v-37h-379v37h116q-73 318 -299 1040q-27 92 -36 129q-1 -2 -3.5 -5t-3.5 -5q-35 -43 -110.5 -111t-93.5 -86q-80 -80 -119 -196q16 -56 16 -109v-9 q0 -101 -45 -189h-33v30v7q-1 79 -21 150q-22 74 -48 112q-49 71 -145.5 146.5t-135.5 129.5q-28 45 -45 92l-264 -919q-37 -135 -37 -156q0 -35 23 -62.5t57 -27.5h18v-35l-309 -129v43z" />
<glyph unicode="N" horiz-adv-x="1570" d="M92 1247q0 38 29.5 61t68.5 23h150q196 0 377 -143q54 -43 95.5 -99t70 -124t46.5 -127.5t36 -137.5q29 -124 42.5 -179.5t43.5 -151t59 -156.5q81 -169 209 -264q15 -13 55 -33q-168 196 -168 509v11q0 60 14.5 142.5t26.5 130t39 147.5q41 143 41 244q0 81 -43 145 t-117 64q-25 0 -51 -13q-20 -10 -35 -28q-23 23 -26 59q0 62 47.5 99.5t111.5 37.5q97 0 158.5 -78t61.5 -180q0 -94 -95 -366q-31 -93 -45.5 -141t-30.5 -128t-16 -147v-13q1 -146 45 -276q46 -136 148 -231q33 -27 59 -37l-16 -39q-12 2 -94 27q-221 84 -369 270 q-40 50 -70.5 107.5t-54 134t-34.5 120t-32 136.5q-18 87 -30 134.5t-34 120.5t-51.5 131t-68.5 109q-76 103 -174 148q-6 -288 -6 -592q0 -249 4 -508q0 -51 29.5 -91t79.5 -40h16v-35h-395v35h123q6 296 6 609q0 256 -4 523q-2 51 -31.5 89t-77.5 38h-25q-28 0 -45 -20 q14 -2 24.5 -13t10.5 -26q0 -17 -12 -28t-29 -11q-22 0 -34.5 15.5t-12.5 35.5z" />
<glyph unicode="O" d="M97 484q-4 43 -4 85q0 107 29 207q41 140 137.5 263.5t234.5 203.5q184 107 390 110h13q199 -1 371 -95q177 -98 280 -273q76 -132 92 -283q4 -42 4 -83q0 -107 -30 -208q-40 -140 -136.5 -264t-234.5 -204q-185 -106 -391 -109h-12q-199 0 -371 94q-177 97 -279 273 q-77 131 -93 283zM232 639q11 -183 108 -350q73 -126 181 -217q109 -90 227 -132q101 -36 206 -36q19 0 38 2q126 8 233 69q144 84 218 237q64 132 64 287q1 24 -1 49q-12 183 -109 351q-73 125 -181 215t-226 132q-100 35 -206 35q-19 1 -38 -1q-126 -8 -234 -70 q-143 -84 -217 -236q-64 -133 -64 -288q0 -23 1 -47z" />
<glyph unicode="P" horiz-adv-x="1517" d="M43 827q2 79 51.5 138t126.5 59q65 0 111 -42q46 -41 45 -100q0 -58 -43 -79q-10 28 -35.5 44.5t-56.5 16.5q-42 0 -71.5 -28.5t-29.5 -72.5q-1 -75 45 -139t121 -112q66 -43 154 -70q1 96 1 200q0 243 -5 527q0 49 -30.5 88t-78.5 39h-24q-25 0 -45 -20q15 -3 24.5 -14 t9.5 -25q0 -17 -12 -29t-27 -12q-22 0 -35.5 16t-13.5 37q0 36 30.5 59t68.5 23h327q89 15 189 15q92 0 180 -14t175 -48.5t152.5 -85t106 -129t41.5 -176.5q0 -95 -32 -174t-90 -133.5t-131.5 -95.5t-161 -64.5t-172.5 -35t-173 -13.5q-67 0 -135 6q0 -36 1 -108t1 -109 q0 -51 29.5 -91t79.5 -40h18v-35l-397 -166v41l121 53q0 36 2 54q0 31 1 92t1 92l4 240q-106 27 -182 71q-107 63 -173 152q-63 85 -63 189v9zM600 418q27 -4 82 -4q94 0 185 16.5t178 53.5t153 91t106 136.5t39 181.5q0 100 -47.5 182t-124.5 132t-170 77t-190 27 q-106 0 -205 -21q-7 -327 -7 -654q0 -109 1 -218z" />
<glyph unicode="Q" d="M98 484q-4 42 -4 84q0 106 29 207q41 140 137 264t234 204q185 107 392 110h12q200 0 372 -95q176 -97 278 -273q76 -132 92 -283q5 -43 5 -85q0 -106 -29 -206q-41 -140 -137 -264t-234 -204l-8 -4q39 -47 104 -140q54 -81 110.5 -127.5t133.5 -46.5q52 0 92.5 31.5 t40.5 81.5q0 27 -15 49t-40 33q19 36 68 39q57 0 94 -43t37 -103q0 -86 -67.5 -141t-156.5 -55q-53 0 -101 19.5t-89 57t-72.5 75.5t-66.5 91q-67 105 -109 158q-122 -59 -258 -78q-23 -49 -72 -77q-44 -25 -97 -25h-11q-64 3 -113.5 42t-68.5 99q-257 92 -390 322 q-76 132 -92 283zM234 639q11 -183 108 -350q89 -160 248 -269q30 69 101 108.5t153 39.5q132 0 260 -96q55 -44 108 -103q2 1 7.5 3t7.5 3q143 84 217 237q64 133 64 289q0 23 -1 47q-11 183 -108 351q-73 125 -181 215t-226 132q-101 35 -207 35q-19 0 -38 -1 q-126 -8 -233 -70q-144 -83 -218 -236q-64 -131 -64 -286q0 -24 2 -49zM623 0q145 -85 301 -94v8q0 14 -6.5 32t-18.5 23q-2 -16 -14 -27.5t-29 -11.5q-19 0 -31 13t-12 32q0 24 17 38t40 14q41 0 67 -33q24 -32 24 -70v-6v-14q116 3 215 47q-54 58 -91 88q-114 92 -237 92 q-74 0 -137.5 -34.5t-87.5 -96.5zM627 -137q19 -38 55.5 -62.5t79.5 -25.5h7q79 0 128 61q-29 -2 -57 -2q-113 0 -213 29z" />
<glyph unicode="R" horiz-adv-x="1466" d="M102 1249q0 37 30 59.5t69 22.5h325q111 15 189 15q77 0 152 -10.5t150.5 -32t140 -59t114.5 -86.5t79 -118.5t29 -152.5q0 -81 -27 -149t-75 -115.5t-110 -83.5t-136 -57t-146.5 -31.5t-148.5 -12.5q99 -43 166 -127q21 -25 41 -56.5t42.5 -70.5t35.5 -59 q47 -76 99.5 -122.5t121.5 -47.5q40 0 74.5 21.5t34.5 56.5q0 26 -21 43q-1 -15 -12.5 -25t-26.5 -10q-17 0 -28 11t-11 28q0 22 16 34.5t36 12.5q37 0 61.5 -29.5t26.5 -66.5q1 -87 -62.5 -146t-150.5 -59q-88 0 -152 60.5t-104 154.5q-12 27 -32 78.5t-38.5 92.5t-40.5 75 q-49 74 -123.5 119t-159.5 45q-24 0 -55 -7q0 -90 4 -278q0 -51 29 -91t78 -40h18v-35l-397 -168v43l121 53q0 8 1 26.5t1 27.5q0 31 1 92t1 92q4 250 4 500.5t-4 500.5q0 51 -29.5 90t-77.5 39h-24q-35 0 -47 -22q15 -1 24.5 -12.5t9.5 -26.5t-11.5 -27t-26.5 -12 q-22 0 -35 15.5t-13 37.5zM475 496q108 -23 209 -23q78 0 154 16t146 50.5t124 82.5q52 49 84 119q31 68 31 147v5q-1 100 -49 182t-125.5 132t-171 77t-191.5 27q-106 0 -205 -21q-7 -299 -7 -596q0 -99 1 -198z" />
<glyph unicode="S" horiz-adv-x="1320" d="M94 297v6q0 133 92 229q93 98 225 97h3q89 0 154 -56t65 -143q0 -56 -34 -99.5t-89 -47.5q-4 0 -11 1t-10 1q7 22 5 37q-2 51 -38 86.5t-87 35.5q-78 0 -125 -61t-47 -141q0 -116 69.5 -204t172.5 -130.5t218 -42.5q81 0 159 25.5t140.5 71.5t100.5 116.5t39 154.5 q0 84 -47.5 156.5t-124.5 128.5q-65 45 -201 105t-191 94q-87 56 -140.5 132.5t-53.5 168.5q1 99 58.5 177t145.5 117.5t187 39.5q81 0 153 -28.5t121 -89t50 -140.5q0 -65 -42.5 -114t-105.5 -50q-52 0 -90.5 34t-38.5 85q0 32 25 53q25 -39 73 -39q35 2 59.5 26.5 t24.5 59.5q0 82 -68 127t-155 45q-108 0 -189 -69.5t-81 -174.5q0 -73 44.5 -134t115.5 -105q64 -41 199 -101t196 -98q94 -60 151 -150q56 -88 56 -190q0 -111 -51 -203q-50 -90 -131 -148t-181.5 -90t-206.5 -32q-104 0 -204 32.5t-179.5 91t-129 149t-50.5 198.5z" />
<glyph unicode="T" horiz-adv-x="1310" d="M43 879v10q0 101 60 187q63 90 167 151q171 104 379 104h584v41h37v-227h-37v31q0 54 -43 87t-100 33h-189q-8 -430 -8 -645q0 -161 4 -485q2 -52 31 -91.5t78 -39.5h18v-35l-397 -168v43l121 53q8 440 8 723q0 323 -6 645h-99q-198 0 -354 -108q-156 -106 -156 -243v-5 q0 -41 30 -70q29 -28 68 -28h3q31 0 56.5 16.5t35.5 44.5q43 -24 43 -79q1 -60 -45 -102t-111 -42q-77 1 -126.5 61t-51.5 138z" />
<glyph unicode="U" horiz-adv-x="1591" d="M123 1202q0 64 52 104t118 40q72 -1 126 -44t79.5 -106t25.5 -133v-6q0 -85 -26 -187q-26 -106 -58 -188t-58 -188q-26 -102 -26 -187v-6q2 -175 120.5 -303t291.5 -131h10q150 0 283 88q11 7 46 32t60 41t50 27q0 19 1 56t1 55q4 250 4.5 500t-4.5 501q-2 51 -31.5 90 t-77.5 39h-25q-25 0 -43 -18q0 -1 -1 -2t-1 -2q14 -2 24.5 -13t10.5 -26t-12 -27t-27 -12q-22 0 -35.5 15.5t-13.5 35.5q0 38 30 61t68 23h404v-35h-121q-8 -350 -7 -681q0 -229 3 -449q2 -52 31 -91.5t78 -39.5h16v-35h-64q-36 0 -75.5 -10.5t-66.5 -22.5t-69 -33 q-205 -108 -434 -108q-126 1 -234 63t-172 169t-65 235q0 111 54.5 324.5t54.5 322.5q0 59 -15.5 111t-55.5 91t-99 40q-51 0 -80 -33q-6 -4 -14 -16q-9 6 -17 18q-14 20 -14 51z" />
<glyph unicode="V" horiz-adv-x="1572" d="M20 1247q0 38 30 61t69 23h403v-37h-131q251 -557 574 -1241q48 106 125 274t112 244.5t79 174t66 151t33 88.5q35 96 35 193q0 57 -30 100.5t-82 44.5q-41 0 -74 -20q-2 -1 -10 -9q-8 8 -11 17q-6 18 -6 37q0 54 44.5 85t103.5 31q87 0 144.5 -65t57.5 -154 q0 -75 -88 -262q-19 -41 -188 -389t-367 -774q-261 584 -630 1368q-22 46 -59 76t-83 30h-18q-32 0 -45 -20q14 -2 23 -13t9 -26q0 -17 -10.5 -28t-27.5 -11q-22 0 -35 15.5t-13 35.5z" />
<glyph unicode="W" horiz-adv-x="2209" d="M20 1249q0 38 30 61t69 23h403v-37h-133q215 -474 576 -1243l239 520q-224 481 -289 617q-52 106 -139 106h-20v37h403v-37h-131q151 -329 254 -555l178 385q13 26 13 54q0 48 -30 82t-79 34h-18v37h383v-37h-138l-282 -612q101 -218 293 -629q35 76 94 204t86 186.5 t69 150.5t62.5 138t45 102t37.5 90t21 59q37 106 37 195q-2 58 -32 101t-83 44q-42 0 -71 -20q-2 -1 -6.5 -4.5t-6.5 -4.5q-7 6 -10 17q-6 18 -6 37q0 54 45 85t103 31q87 0 144.5 -65t57.5 -154q0 -79 -86 -262q-23 -49 -192 -394t-365 -769q-104 233 -315 694l-322 -694 q-329 729 -630 1368q-22 46 -59 76t-83 30h-18q-34 0 -47 -20q15 -1 24.5 -12.5t9.5 -26.5q0 -17 -10.5 -28t-27.5 -11q-22 0 -35 15.5t-13 35.5z" />
<glyph unicode="X" horiz-adv-x="2045" d="M20 213q0 101 63 177.5t161 76.5q66 0 115 -42.5t49 -107.5q0 -52 -43 -73q-10 28 -36 44.5t-57 16.5q-57 0 -92 -45.5t-35 -107.5q0 -126 101 -207q102 -81 237 -84h7q176 0 315 139q35 34 69 75.5t60.5 78.5t56.5 89.5t49.5 88t48 97t43 93t44 99t41.5 94.5 q-152 222 -349 499q-55 82 -129 82h-16q-34 0 -45 -22q15 -1 25 -12.5t10 -26.5t-12 -27t-27 -12q-22 0 -35.5 16t-13.5 37q0 36 30 59t68 23h395v-35h-125q184 -276 293 -436q62 125 138 219t182 160q75 47 179.5 75.5t199.5 31.5v-31q-86 -1 -173 -39t-157 -102 q-89 -83 -154.5 -190t-128.5 -249q261 -386 430 -618q59 -82 129 -82h17v-35h-396v35h125q-223 332 -370 549q-95 -216 -197.5 -371.5t-247.5 -259.5q-172 -122 -364 -125h-13q-81 0 -159 23q-84 25 -153 72.5t-111 123t-42 166.5z" />
<glyph unicode="Y" horiz-adv-x="1812" d="M84 276q2 78 51.5 138t126.5 61q64 0 110 -43q46 -41 46 -101q0 -57 -43 -79q-10 27 -35 44t-55 19q-42 0 -72.5 -29.5t-30.5 -70.5q0 -146 166 -254q151 -98 377 -98q364 0 551 184q107 107 145 229q-89 -43 -217 -43h-7q-166 0 -303 88q-140 90 -194 246 q-28 80 -60 233t-46 204q-84 305 -281 305q-66 0 -86 -31q14 -2 24.5 -13t10.5 -26q0 -17 -12 -28t-29 -11q-21 0 -35 15.5t-14 37.5q0 38 39 62q54 31 113 31q140 0 248.5 -89t156.5 -227q22 -61 40.5 -132.5t38 -158.5t32.5 -135q36 -143 138.5 -239.5t242.5 -96.5 q126 0 213 51q6 26 10 87q1 104 1 215q0 257 -5 546q-2 51 -31.5 89t-77.5 38h-16v37h395v-37h-121q-7 -253 -7 -598l1 -294q0 -122 -63 -230q-65 -109 -174 -188q-203 -151 -568 -158h-15q-268 0 -444 102q-105 61 -171 150q-64 86 -64 189v9z" />
<glyph unicode="Z" horiz-adv-x="1466" d="M72 0q461 602 966 1294h-618q-57 0 -100.5 -32t-43.5 -86q0 -34 21 -46q2 14 13 24.5t26 10.5q17 0 28 -12t11 -29q0 -22 -15.5 -34.5t-35.5 -12.5q-38 0 -61 30t-23 69v194h36v-39h963v-37q-555 -731 -944 -1267q93 -85 201.5 -124.5t246.5 -39.5q224 0 375 98 q74 49 120 113q46 63 46 138q0 44 -30 73q-29 28 -67 28h-3q-31 0 -56.5 -16.5t-35.5 -44.5q-43 24 -43 79q0 59 45 101q46 42 110 43q77 -1 126.5 -61t51.5 -138v-10q0 -104 -62 -188q-66 -88 -173 -150q-176 -102 -442 -102h-15q-175 3 -342.5 45t-275.5 129z" />
<glyph unicode="[" horiz-adv-x="442" d="M31 -238v1727h258v-41h-142v-1645h142v-41h-258z" />
<glyph unicode="\" horiz-adv-x="571" d="M-20 1421h96l516 -1509h-96z" />
<glyph unicode="]" horiz-adv-x="442" d="M154 -197h141l-2 1645h-139v41h258v-1727h-258v41z" />
<glyph unicode="^" horiz-adv-x="587" d="M41 1427l213 242q16 19 39 19t39 -19l215 -242h-41l-213 146l-211 -146h-41z" />
<glyph unicode="`" horiz-adv-x="423" d="M25 1597q0 18 14.5 30.5t32.5 12.5q35 0 88 -45l243 -204h-38l-267 127q-44 21 -58.5 37.5t-14.5 41.5z" />
<glyph unicode="a" horiz-adv-x="1550" d="M51 0v37h137l287 559q-43 14 -82 14h-14q-61 -2 -105.5 -40.5t-44.5 -98.5q0 -4 1 -13t1 -12l-28 -8q-2 8 -2 31q1 89 64.5 151t152.5 62q32 0 90 -16l285 555l20 -47q332 -660 528 -1031q56 -106 140 -106h18v-37h-401v37h131l-195 389q-53 -45 -135 -45 q-52 0 -107 23.5t-94.5 53t-93.5 67.5t-94 57l-188 -375q-15 -27 -15 -55q0 -46 29.5 -80.5t77.5 -34.5h18v-37h-381zM547 649q42 -20 98 -60.5t97.5 -72.5t99.5 -56q51 -21 100 -20h12q36 3 66 15l-287 563z" />
<glyph unicode="b" horiz-adv-x="1302" d="M113 0v37h123q7 389 7 662q0 182 -3 311q-2 51 -32 90t-77 39h-18v35h299q96 22 221 22q468 0 479 -276v-10q0 -102 -76 -166q-80 -68 -194 -82q59 -5 114.5 -20t106 -43t87.5 -65.5t59 -90.5t22 -115q0 -81 -35 -144t-90 -101t-129.5 -63t-146 -34t-148.5 -9 q-120 0 -258 23h-311zM383 166q4 -154 272 -154q77 0 150.5 19t136.5 55.5t101.5 98.5t39.5 141q0 94 -55 167.5t-138.5 109.5t-176.5 36q-69 0 -121 -28q-51 -27 -51 -87q0 -25 16 -41t39 -16q24 0 41 20q12 -12 12 -32q0 -31 -25 -50.5t-57 -19.5q-40 0 -66 30.5t-26 71.5 q0 46 23 82t61 56.5t79 32t85 14.5q119 10 183 76q61 64 61 163v9q-1 53 -24 95t-58.5 68.5t-83 44.5t-95.5 25.5t-98 7.5q-109 0 -221 -31q-8 -297 -8 -579q0 -196 4 -385z" />
<glyph unicode="c" horiz-adv-x="1300" d="M82 582q0 129 54 244t143.5 195t209 126.5t248.5 46.5q224 0 359 -121q108 -97 108 -231q-2 -71 -47 -123.5t-113 -52.5q-56 0 -96.5 36.5t-40.5 92.5q0 35 33 61q24 -47 82 -47q35 0 61 24.5t27 61.5v6q0 69 -63 139q-109 115 -285 115h-4q-148 -1 -267 -81 q-121 -82 -185 -212t-64 -278q0 -145 58.5 -270.5t172 -206t258.5 -84.5h11q136 1 250 71q118 74 188 201q5 7 12.5 24.5t9.5 20.5l37 -21q-1 -2 -4.5 -11.5t-7.5 -14.5q-72 -145 -207.5 -230.5t-294.5 -85.5q-175 0 -323 80.5t-234 220t-86 304.5z" />
<glyph unicode="d" horiz-adv-x="1404" d="M102 0v35h123q5 261 5 541q0 210 -3 432q0 50 -29.5 89.5t-76.5 39.5h-19v37h297q100 20 224 20q256 0 432 -119q124 -86 196 -214t72 -283q0 -141 -62.5 -261t-170.5 -202q-183 -138 -418 -138q-136 0 -260 23h-310zM373 166q1 -49 27 -82t70.5 -47.5t85 -19.5t91.5 -5 q109 0 204 45.5t165 126.5q69 78 108 182t39 214q0 122 -47.5 235t-130.5 193q-154 151 -389 151q-95 0 -219 -31q-7 -302 -7 -588q0 -190 3 -374z" />
<glyph unicode="e" horiz-adv-x="1286" d="M113 0v35h123q5 261 5 541q0 210 -3 432q0 50 -30 89.5t-77 39.5h-18v37h815v38h35v-225h-35v29q0 54 -44 87.5t-100 33.5h-397q-8 -258 -8 -383q61 49 141 49q63 0 178 -45.5t176 -46.5q49 0 86 27.5t37 72.5q0 19 -14 33l12 12q47 -47 47 -100q-1 -65 -50.5 -103.5 t-117.5 -38.5q-47 0 -101 20.5t-95.5 45t-95.5 45t-101 20.5q-53 0 -102 -24q0 -276 6 -555q2 -154 260 -154h17q196 0 317 72q119 77 119 165q0 43 -31 73q-30 28 -70 30q-48 0 -75 -37q-25 25 -25 58q3 57 47.5 93t102.5 36q73 -1 120 -57.5t47 -131.5q0 -88 -56 -157 t-144 -113q-132 -66 -332 -66q-106 0 -231 23h-338z" />
<glyph unicode="f" horiz-adv-x="1124" d="M113 0v37h123q5 259 5 540q0 211 -3 433q0 50 -30 89.5t-79 39.5h-16v35h868v40h37v-227h-37v31q0 54 -43 87.5t-100 33.5h-453l-6 -383q62 47 139 47q63 0 179 -45t177 -45q48 0 85.5 27.5t37.5 72.5q0 17 -14 31l12 12q47 -44 47 -98q-1 -66 -51 -104t-117 -38 q-47 0 -101 20.5t-95.5 45t-95.5 44.5q-51 19 -97 19h-4q-50 0 -102 -22q0 -369 4 -555q2 -53 30.5 -92t78.5 -39h16v-37h-395z" />
<glyph unicode="g" horiz-adv-x="1406" d="M82 582q0 130 54 245.5t143.5 195.5t209 126.5t248.5 46.5q222 0 359 -123q108 -97 108 -231q-2 -70 -47 -122t-113 -52q-55 0 -96 36.5t-41 90.5q0 41 33 61q25 -45 76 -45h6q35 0 61 24.5t27 61.5v6q0 71 -63 137q-54 58 -129 87.5t-158 29.5h-4q-146 0 -266 -81 q-120 -82 -184 -213t-64 -279q0 -144 58.5 -269.5t172 -206.5t258.5 -85h17q171 0 305 116v195q0 50 -30 88.5t-77 38.5h-18v35h397v-35h-123q-2 -35 -2 -103q-2 -80 -2 -130t2 -72q3 -48 31.5 -83.5t75.5 -35.5h18v-37h-274l2 86q-151 -109 -328 -109q-176 0 -324 80.5 t-233.5 220t-85.5 304.5z" />
<glyph unicode="h" horiz-adv-x="1429" d="M113 0v37h123q7 389 7 662q0 182 -3 311q-2 50 -32 88.5t-77 38.5h-18v37h397v-37h-123q-6 -184 -6 -371q50 -61 162 -61q56 0 164.5 29.5t166.5 29.5q51 0 98.5 -23t78.5 -63q0 114 -4 332q0 51 -29.5 89t-79.5 38h-16v37h395v-37h-123q-4 -242 -4.5 -484.5t4.5 -484.5 q0 -53 28.5 -92t77.5 -39h17v-37h-395v37h122q7 338 7 577q-52 60 -160 60q-59 0 -168.5 -30t-165.5 -30q-109 0 -176 86q-1 -60 -1 -139q0 -158 3 -393q2 -53 30.5 -92t78.5 -39h18v-37h-397z" />
<glyph unicode="i" horiz-adv-x="622" d="M113 0v37h125q5 395 5 654q0 201 -3 319q-2 50 -32 88.5t-77 38.5h-18v37h397v-37h-123q-6 -254 -6 -522q0 -219 4 -447q0 -53 29 -92t80 -39h16v-37h-397z" />
<glyph unicode="j" horiz-adv-x="1110" d="M61 303q0 77 50 136t125 59q59 0 104.5 -35.5t46.5 -91.5q3 -19 -4 -43q-9 -18 -27 -33q-6 13 -24 27q-23 20 -62 20q-42 0 -71 -32t-29 -74q0 -63 53 -119q45 -49 108 -75t132 -26h3q132 0 218 102q86 104 86 249q0 450 -4 643q0 49 -29.5 88t-77.5 39h-18v37h397v-37 h-123v-72q-5 -252 -5 -494l1 -210q0 -114 -64 -203q-65 -91 -163 -136t-207 -45q-77 0 -158.5 25t-142.5 74q-115 90 -115 227zM160 866q0 58 42.5 96.5t102.5 38.5l25 -2v-18q-4 2 -6 2q-35 0 -55.5 -28.5t-20.5 -65.5q0 -42 40 -117t40 -117q0 -51 -33 -88t-82 -37 q-10 0 -12 2v15h4q27 0 42 22.5t15 51.5q-1 38 -26.5 80.5t-50.5 84.5t-25 80z" />
<glyph unicode="k" horiz-adv-x="1314" d="M113 0v37h123q4 244 4 487t-4 486q0 49 -29.5 88t-77.5 39h-16v37h395v-37h-123q-6 -301 -7 -600l511 475q31 27 31 57q0 32 -26 50t-60 18h-19v37h383v-37h-117l-510 -475h10q97 0 179 -52q86 -56 131 -151q16 -34 38 -102.5t34 -96.5q93 -227 272 -227q26 0 59 10v-31 q-56 -35 -143 -35q-107 0 -190 64t-132 166q-19 37 -41 109t-32 96q-32 87 -91 147q-58 59 -136 59h-3l-148 -137q0 -103 5 -315q0 -51 29 -90t80 -39h16v-37h-395z" />
<glyph unicode="l" horiz-adv-x="1159" d="M113 0v37h123q5 259 5 540q0 210 -3 433q0 50 -30 89.5t-79 39.5h-16v35h395v-35h-123q-6 -255 -6 -523q0 -219 4 -448q1 -53 36.5 -89.5t82.5 -50.5t100 -14q52 1 100 7.5t97.5 23.5t85.5 43t59 68.5t23 97.5q0 41 -29.5 69.5t-69.5 28.5q-47 0 -77 -35q-21 21 -21 58 q0 56 44.5 91.5t103.5 35.5q73 0 121 -56q46 -54 46 -125v-6q-1 -69 -29 -127t-74 -96t-107 -64.5t-125 -38.5t-129 -12q-60 0 -162 23h-346zM829 983v16q10 2 29 2q58 0 99.5 -38t41.5 -95q0 -46 -49 -123t-49 -122q0 -31 14 -53.5t41 -22.5h5v-15h-11q-51 0 -85 37t-34 88 q0 42 41 117t41 117q0 37 -19.5 64.5t-55.5 27.5h-9z" />
<glyph unicode="m" horiz-adv-x="1589" d="M82 0v37h125l133 942q4 24 4 35q0 49 -30 87t-78 38h-17v35h344v-35h-100q-2 -2 -2 -4q0 -10 15 -41.5t30 -53.5q8 -10 16.5 -19.5t21 -20.5t20 -17.5t24.5 -20t22 -17.5t26 -19t23 -17q45 -34 65.5 -51t44.5 -48t32 -65q11 15 33 41q29 34 106 95.5t107 103.5 q31 39 47 96q-32 58 -88 58h-19v35h377v-35h-121q51 -430 137 -979q9 -51 36 -87t73 -36h18v-37h-379v37h121q-36 294 -135 975q-15 -27 -33 -51q-31 -42 -107.5 -104t-105.5 -97q-62 -73 -88 -176q-14 -38 -14 -103h-37q-5 93 -8 103q-12 58 -52 105.5t-84 75t-96 67.5 t-79 81q-25 40 -29 52l-117 -809v-15q0 -44 33 -74t78 -30h18v-37h-311z" />
<glyph unicode="n" horiz-adv-x="1404" d="M92 0v37h125v971q0 50 -28.5 89.5t-77.5 39.5h-19v37h289v-37h-113q17 -146 156 -258q50 -39 119.5 -67.5t136.5 -47.5t134 -39.5t131 -55t110 -83.5q69 -71 92 -185v607q0 50 -29.5 89.5t-77.5 39.5h-16v37h289v-37h-125v-969q0 -53 28.5 -92t77.5 -39h19v-37h-166v156 q0 89 -43 168.5t-117 134.5q-51 38 -120 67t-135.5 48t-133.5 39.5t-130.5 55.5t-109.5 83q-76 82 -100 221v-805q0 -53 28.5 -92t78.5 -39h16v-37h-289z" />
<glyph unicode="o" horiz-adv-x="1429" d="M86 493q-3 30 -3 59q0 89 26 174q35 112 114.5 212t192.5 166q152 88 320 93h21q157 -1 291 -71q143 -76 224 -215q60 -105 72 -226q3 -30 4 -59q0 -88 -27 -174q-35 -112 -115 -213t-194 -167q-151 -87 -319 -92h-21q-156 0 -290 70q-143 76 -224 216q-60 106 -72 227z M210 618q7 -143 83 -274q57 -97 141 -166q84 -68 178 -100q76 -26 158 -26q18 0 36 1q100 7 185 56q115 67 175 187q54 108 55 234q0 16 -1 30q-7 144 -83 274q-56 97 -140.5 166.5t-178.5 101.5q-77 26 -158 25q-18 0 -36 -1q-100 -7 -186 -57q-115 -67 -175 -187 q-54 -108 -53 -234q-1 -15 0 -30z" />
<glyph unicode="p" horiz-adv-x="1241" d="M113 0v37h123q4 332 4 608q0 197 -2 365q0 50 -30 88.5t-79 38.5h-16v37h295q110 22 225 22q64 0 126.5 -8.5t126 -26.5t117.5 -48.5t96 -71.5t65.5 -99.5t23.5 -128.5q0 -75 -29 -139.5t-78 -109.5t-113.5 -76.5t-135 -46.5t-142.5 -15q-53 0 -102.5 11t-93.5 34 t-71 64.5t-28 95.5q0 47 30.5 83t76.5 36q37 0 65.5 -22.5t28.5 -57.5q3 -19 -12 -37q-19 22 -49 22q-27 0 -45.5 -17.5t-18.5 -45.5q0 -68 60 -99q61 -32 139 -32q151 0 259.5 102t108.5 250q0 82 -38 149.5t-100 110t-138 65.5t-156 23q-127 0 -221 -26q-5 -213 -5 -492 q0 -217 3 -475q0 -53 29 -92t80 -39h16v-37h-395z" />
<glyph unicode="q" horiz-adv-x="1429" d="M86 493q-3 30 -3 59q0 90 26 174q35 112 114.5 212t192.5 166q151 88 320 93h20q157 0 292 -71q143 -75 224 -215q60 -105 72 -226q2 -30 2 -59q0 -90 -26 -174q-35 -112 -114.5 -213t-193.5 -167q-19 -11 -38.5 -20.5t-34 -16t-15.5 -6.5l-168 -76q72 0 208 -43.5 t207 -44.5q55 0 97.5 30.5t42.5 81.5v15h24q4 -28 4 -43q0 -87 -58 -150t-144 -63q-55 0 -117 24t-109 53t-108.5 54t-114.5 27h-12q-97 0 -148 -64q-18 -21 -18 -51h-33q0 29 23 67q28 45 100 78l127 58q-28 -2 -55 -2q-146 0 -276 63q-153 75 -238 223q-61 106 -72 227z M210 618q7 -143 83 -274q56 -97 140.5 -166.5t178.5 -100.5q76 -25 156 -25q19 0 37 1q100 7 186 56q115 66 175 187q55 108 55 233q0 15 -1 29q-7 143 -83 273q-57 98 -141.5 167.5t-177.5 101.5q-77 26 -158 26q-18 0 -36 -1q-100 -7 -186 -56q-115 -67 -175 -187 q-54 -108 -54 -234q0 -15 1 -30z" />
<glyph unicode="r" horiz-adv-x="1302" d="M113 0v37h123q5 259 5 540q0 210 -3 433q0 49 -30.5 88t-78.5 39h-16v37h295q103 20 225 20q90 0 177 -22t162.5 -65.5t122 -118t46.5 -169.5q0 -78 -33 -144.5t-89 -112t-125 -75t-146 -41.5q91 -62 147 -174q113 -237 274 -237q37 0 62 10v-31q-59 -37 -144 -37 q-111 0 -197 74.5t-136 188.5q-41 96 -91.5 155.5t-121.5 59.5q-65 0 -113 -39v35q75 43 152 43q55 0 102 -17q131 29 219 120.5t88 221.5q0 99 -55 178.5t-142 121.5t-186 42q-117 0 -221 -26q-6 -254 -6 -522q0 -219 4 -447q2 -52 31 -90.5t78 -38.5h16v-37h-395z" />
<glyph unicode="s" horiz-adv-x="1026" d="M63 356v6q0 104 73 181q74 78 180 78h3q70 0 122.5 -45.5t52.5 -112.5q0 -47 -27 -82t-72 -39q-3 0 -7.5 1t-6.5 1q4 20 4 29q-1 41 -31 69.5t-71 28.5h-3q-62 -1 -98 -47q-38 -48 -37 -113q0 -93 56.5 -162t138.5 -101t174 -32q84 0 159.5 34t124.5 101t50 152 q0 128 -123 215q-51 35 -157.5 82.5t-151.5 75.5q-162 100 -162 250q0 82 48.5 145t121.5 94t156 31q119 0 194 -51v69h35v-290h-35v53q0 81 -62.5 131.5t-146.5 50.5q-77 0 -134.5 -52t-57.5 -128q0 -101 116 -176q50 -31 159 -79.5t159 -80.5q79 -50 123 -123 q43 -71 43 -162q1 -118 -71 -208q-70 -88 -172 -130.5t-216 -42.5q-113 0 -214 43.5t-168.5 132t-68.5 203.5z" />
<glyph unicode="t" horiz-adv-x="1044" d="M82 922v290h35v-38h813v38h33v-290h-33v32q0 81 -63.5 132t-147.5 51h-121q-4 -243 -4 -561v-118q0 -218 2 -292q2 -52 31 -91.5t78 -39.5h16v-35h-395v35h120q1 21 1.5 62.5t1.5 62.5q4 173 4 380q0 269 -7 597h-120q-84 0 -146.5 -51t-62.5 -132v-32h-35z" />
<glyph unicode="u" horiz-adv-x="1275" d="M92 1139v35h395v-35h-122q-7 -303 -7 -779q0 -139 101 -237t243 -98q137 0 237.5 92.5t100.5 228.5v662q0 51 -28.5 91t-77.5 40h-14v35h284v-35h-123v-793q0 -110 -63.5 -196t-161.5 -129.5t-207 -43.5q-111 0 -209 47q-100 46 -162 136q-60 85 -59 190v10q2 114 2 246 q0 185 -4 404q-2 51 -31 90t-77 39h-17z" />
<glyph unicode="v" horiz-adv-x="1427" d="M51 1139v35h389v-35h-123q134 -299 445 -965l375 811q10 27 10 49q0 41 -32.5 73t-78.5 32h-16v35h356v-35h-125l-534 -1153h-29q-187 420 -485 1056q-22 43 -56.5 70t-76.5 27h-19z" />
<glyph unicode="w" horiz-adv-x="1720" d="M41 1137v37h375v-37h-109q206 -513 389 -947l140 340q-107 261 -215 519q-15 39 -51 63.5t-78 24.5h-19v37h373v-37h-107l172 -422l113 270q8 28 8 43q0 45 -32.5 77t-77.5 32h-17v37h348v-37h-123l-196 -475q34 -81 99.5 -240t96.5 -232l326 795q10 23 10 41 q0 46 -33 78.5t-79 32.5h-39v37h364v-37h-116l-476 -1151h-30q-68 172 -199 491l-203 -491h-30q-144 365 -437 1063q-18 39 -53 63.5t-78 24.5h-16z" />
<glyph unicode="x" horiz-adv-x="1271" d="M51 0v37h113l418 553q-121 184 -320 465q-57 84 -129 84h-16v35h389v-35h-121l287 -432l207 276q20 30 20 57q-2 39 -31 69t-71 30h-19v35h379v-35h-113l-350 -465l375 -551q59 -86 133 -86h19v-37h-390v37h123q-206 311 -348 518l-272 -358q-23 -35 -23 -62 q0 -39 30 -68.5t73 -29.5h16v-37h-379z" />
<glyph unicode="y" horiz-adv-x="1193" d="M51 1139v35h385v-35h-123q157 -261 328 -541l236 379q14 25 14 53q0 42 -32.5 75.5t-78.5 33.5h-16v35h379v-35h-123l-352 -580q0 -133 4 -391q0 -53 28.5 -92t77.5 -39h17v-37h-396v37h123q6 240 6 477q-223 367 -340 553q-47 72 -120 72h-17z" />
<glyph unicode="z" horiz-adv-x="1153" d="M61 0v35q277 418 705 1102h-461q-58 0 -100.5 -32.5t-42.5 -88.5v-29h-35v225h35v-38h778v-37q-267 -406 -661 -1037q49 -88 258 -88q201 0 317 72q121 75 121 168q0 40 -30 69t-71 31q-47 0 -77 -37q-21 24 -21 58q1 56 45.5 92.5t102.5 36.5q72 -1 120 -58t48 -131 q0 -88 -56.5 -157t-144.5 -113q-132 -66 -330 -66q-105 0 -233 23h-267z" />
<glyph unicode="{" horiz-adv-x="593" d="M31 606v37q69 15 112 72q41 53 41 123q0 40 -16 141q-14 74 -14 141q0 96 36 172q55 126 172 166q42 12 78 15v-33q-42 -3 -78 -27q-46 -28 -70 -78t-24 -108q0 -34 17 -146q14 -74 14 -141q0 -99 -51 -182q-52 -85 -146 -133q99 -52 146 -133q51 -83 51 -183 q0 -65 -14 -139q-17 -107 -17 -143q0 -58 24 -108.5t70 -80.5q39 -23 78 -26v-33q-43 3 -78 16q-117 52 -169 162q-39 77 -39 174q0 67 14 141q16 101 16 140q0 71 -41 127q-43 55 -112 67z" />
<glyph unicode="|" horiz-adv-x="1488" d="M41 801q0 185 94 424h98v102q63 -17 135 -4.5t123.5 34.5t123.5 43t135 21q57 0 126 -20.5t120 -40.5t125 -30.5t139 9.5v-114h96q96 -236 96 -424q0 -71 -18.5 -130t-44.5 -94.5t-52 -61t-44.5 -42.5t-18.5 -27q0 -62 98 -135q-77 -28 -152 -58.5t-181.5 -78t-186.5 -99 t-109 -95.5q-30 50 -108 103t-179.5 97.5t-177.5 73t-151 53.5q2 2 15 14.5t18 18t16.5 18t17 21.5t12.5 21t10 23.5t3 22.5q0 10 -18.5 27.5t-44.5 44t-52 62t-44.5 94t-18.5 127.5zM131 801q0 -170 102 -230q78 -49 78 -125q0 -42 -30 -96q326 -114 469 -241 q117 107 462 239q-30 46 -30 98q0 76 78 125q102 64 102 230q0 165 -70 334h-125v100q-130 5 -313 76q-53 20 -104 20q-58 0 -111 -20q-183 -71 -315 -76v-100h-123q-70 -191 -70 -334zM158 801q0 143 59 309h133v102q157 15 301 74q53 19 99 19t96 -19q139 -59 295 -74 v-102h135q59 -166 59 -309q0 -155 -90 -209q-88 -52 -88 -146q0 -34 17 -86q-206 -74 -424 -221q-142 109 -437 223q4 16 10.5 34.5t9.5 29t3 20.5q0 94 -88 146q-90 54 -90 209zM399 623h131q-11 5 -18.5 11t-10.5 10.5t-3 6.5v156h90v-291q0 -24 -53 -51h450l96 127 q-68 -47 -133 -47h-239v262h92v-156q0 -3 -9 -12t-22 -16h135q-14 7 -24.5 16t-10.5 12v156h117q42 0 60 -27v105q-24 -27 -60 -27h-117v135h199q42 0 74 -18l-35 74h-336q29 -20 29 -35v-156h-92v250q0 10 10.5 20.5t36.5 30.5q5 4 8 6h-225q49 -38 49 -57v-250h-90v156 q0 16 32 35h-131q18 -11 24.5 -18t6.5 -17v-363q0 -2 -2.5 -6.5t-10 -10.5t-18.5 -11zM702 330q15 -22 27 -51t17 -47l4 -19q12 68 47 117q-9 3 -17 2t-13 -4l-5 -4q0 22 -12 45q-4 -10 -7 -21.5t-3 -17.5l-1 -6q-2 2 -5 3.5t-13.5 4.5t-18.5 -2z" />
<glyph unicode="}" horiz-adv-x="593" d="M154 -188q45 3 79 26q46 30 69.5 80.5t23.5 108.5q0 54 -17 143q-14 74 -14 139q0 100 51 183q50 82 148 133q-96 47 -146 133q-53 86 -53 182q0 67 14 141q17 93 17 146q0 57 -24.5 107.5t-70.5 78.5q-36 24 -77 27v33q38 -3 79 -15q114 -39 173 -166q36 -76 36 -172 q0 -48 -14 -141q-16 -84 -16 -141q0 -70 41 -123q39 -57 110 -72v-37q-70 -12 -110 -67q-41 -56 -41 -127q0 -56 16 -140q14 -93 14 -141q0 -97 -39 -174q-52 -110 -172 -162q-32 -13 -77 -16v33z" />
<glyph unicode="~" horiz-adv-x="669" d="M41 1493q16 72 62 122t114 50q48 0 137.5 -37t137.5 -37q36 0 64.5 21.5t37.5 56.5h35q-16 -72 -62 -122t-114 -50q-48 0 -137.5 37t-137.5 37q-36 0 -64.5 -21.5t-37.5 -56.5h-35z" />
<glyph unicode="&#xa1;" horiz-adv-x="274" d="M41 1264q0 39 27.5 66.5t66.5 27.5q38 0 66 -28t28 -66q0 -40 -27.5 -67.5t-66.5 -27.5q-40 0 -67 27.5t-27 67.5zM43 256q0 85 16 219q5 43 14.5 129.5t16 144t6.5 64.5q8 148 8 227v27h66v-27q0 -79 8 -227q12 -120 39 -338q16 -134 16 -219q0 -118 -26.5 -191 t-69.5 -73q-41 0 -67.5 73t-26.5 191z" />
<glyph unicode="&#xa2;" horiz-adv-x="954" d="M41 668q0 163 126 278.5t308 120.5v440h45v-442q143 -6 248 -78q56 -40 89 -98t32 -123q-2 -58 -39.5 -101.5t-93.5 -43.5q-47 0 -81 30.5t-34 75.5q0 30 27 53q23 -41 67 -41q30 0 52 21t24 51q3 79 -76 143q-80 67 -215 70v-715q116 3 213.5 71t145.5 177l34 -20 q-56 -121 -160.5 -194t-232.5 -79v-440h-45v440q-181 4 -307.5 122t-126.5 282zM174 668q0 -134 86.5 -235t214.5 -120v707q-128 -19 -214.5 -119t-86.5 -233z" />
<glyph unicode="&#xa3;" horiz-adv-x="1236" d="M47 190q-1 91 74 141t172 48q70 0 149 -29t181 -80q0 7 1 22t1 23q0 166 -133 316h-271l33 71h170q-74 77 -116 149t-42 157q-1 83 37.5 151t101.5 110t140 64.5t157 22.5q55 0 108 -10.5t102.5 -34t87 -56.5t60 -81.5t23.5 -106.5q0 -62 -44 -112t-107 -50 q-48 0 -85 30.5t-38 78.5q0 30 22 49q23 -33 64 -33q34 0 59 24.5t25 59.5q-1 51 -27 90.5t-68 61t-89 32.5t-97 11q-110 0 -190.5 -73t-79.5 -181q0 -35 10.5 -71t20.5 -60t37 -61.5t38.5 -52.5t48 -57t44.5 -51h327l-32 -71h-242q75 -118 78 -248q3 -85 -37 -166 q180 -94 258 -94q116 0 174 78l23 -11q-18 -92 -85 -153.5t-159 -61.5q-69 0 -136 32t-145 89q-53 -58 -131 -89.5t-162 -31.5q-139 0 -229 72q-82 61 -82 143zM127 174q0 -51 41 -92q65 -68 186 -68q69 2 133.5 38t94.5 95q-187 144 -308 144q-58 0 -103 -31t-44 -86z" />
<glyph unicode="&#xa5;" horiz-adv-x="1460" d="M27 1292v39h444v-39h-139q132 -203 430 -645l352 469q23 29 23 66q0 44 -33.5 77t-81.5 33h-18v39h430v-39h-129l-492 -651h293l-45 -70h-252v-59h297l-45 -70h-252l4 -252q0 -60 33 -104.5t90 -44.5h18v-41h-448v41h139l6 401h-329l45 70h284v18q-6 7 -15.5 21.5 t-12.5 19.5h-301l45 70h208l-380 557q-67 94 -148 94h-20z" />
<glyph unicode="&#xa7;" horiz-adv-x="950" d="M76 123q-14 72 20.5 135t102.5 78q55 13 105 -11t61 -77q8 -38 -15 -74q-36 36 -88 27q-39 -9 -59.5 -44.5t-12.5 -74.5q16 -71 103 -117q82 -45 176 -45q112 2 197.5 67.5t85.5 172.5q0 30 -10.5 57t-25 47.5t-41 40t-47.5 32t-57 27.5t-56 22t-56 20 q-62 20 -105.5 37.5t-96 47.5t-85 63t-54.5 82.5t-22 108.5q0 64 33 125.5t86 106.5l-8 8q-72 72 -72 170q-1 134 106.5 216.5t247.5 82.5q62 0 120.5 -16.5t107.5 -47.5t79 -82t31 -114q0 -57 -39.5 -101t-95.5 -44q-43 0 -76 26.5t-34 69.5q0 23 18 45q23 -29 57 -29 q32 -1 54 21t22 53q0 60 -38.5 101.5t-91.5 58t-114 16.5q-98 -2 -172 -61.5t-73 -153.5q1 -38 17.5 -69.5t47 -55t60.5 -39.5t69 -31q30 -11 111 -36t123 -43q90 -38 150 -108t63 -159q1 -71 -34 -132.5t-97 -100.5q55 -40 85.5 -99.5t28.5 -127.5q-1 -98 -61 -171.5 t-146.5 -108.5t-183.5 -36q-119 0 -233 51q-65 30 -111 79.5t-57 113.5zM199 803q1 -52 22.5 -93.5t62.5 -71.5t81 -49.5t96 -39.5q188 -68 252 -103l12 9q28 20 47 58.5t19 82.5q0 73 -54 127t-131 80q-139 44 -231 78q-62 21 -115 59q-61 -55 -61 -137z" />
<glyph unicode="&#xa8;" horiz-adv-x="811" d="M80 1556q0 44 31 75.5t75 31.5q43 0 74 -31.5t31 -75.5q0 -43 -31 -73.5t-74 -30.5q-44 0 -75 30.5t-31 73.5zM520 1556q0 44 31.5 75.5t75.5 31.5q43 0 73.5 -31.5t30.5 -75.5q0 -43 -30.5 -73.5t-73.5 -30.5q-44 0 -75.5 30.5t-31.5 73.5z" />
<glyph unicode="&#xa9;" horiz-adv-x="1458" d="M61 659q0 137 53 261t142.5 213.5t213.5 142.5t261 53q181 0 334 -89.5t242.5 -244t89.5 -336.5q0 -136 -53 -259.5t-142.5 -213t-213 -142t-259.5 -52.5t-259.5 52.5t-213 142t-142.5 213t-53 259.5zM127 662q0 -124 47.5 -237.5t128.5 -195t192.5 -130t233.5 -48.5 q123 0 235 48.5t192.5 130t128.5 194.5t48 238q0 165 -80.5 305t-219.5 221.5t-302 81.5q-164 0 -303.5 -81.5t-220 -221.5t-80.5 -305zM334 662q0 169 116.5 288t294.5 119q62 0 132 -22.5t116 -59.5q51 -39 81 -98t30 -125q0 -60 -35 -105t-86 -45q-42 0 -73 32t-31 77 q0 36 24 53q20 -41 62 -41q28 0 47.5 21.5t19.5 52.5q3 79 -67 145q-76 70 -197 70q-89 0 -162 -52.5t-112 -135.5t-39 -174q0 -141 89 -251t216 -110q225 0 336 250l30 -23q-52 -124 -150.5 -200t-215.5 -76q-101 0 -183.5 35t-134.5 93.5t-80 131t-28 150.5z" />
<glyph unicode="&#xab;" horiz-adv-x="729" d="M39 664l231 387h109l-227 -387l227 -381h-109zM313 664l234 387h108l-227 -387l227 -381h-108z" />
<glyph unicode="&#xad;" horiz-adv-x="849" d="M154 621v94h487v-94h-487z" />
<glyph unicode="&#xae;" horiz-adv-x="1458" d="M760 1012q0 131 93.5 224t225.5 93q131 0 224.5 -93.5t93.5 -223.5q0 -133 -93.5 -226.5t-224.5 -93.5q-132 0 -225.5 93.5t-93.5 226.5zM793 1012q0 -121 83.5 -206t202.5 -85t203 85t84 206q0 120 -84 204t-203 84q-120 0 -203 -84t-83 -204zM901 821v17h39 q3 152 0 305q0 15 -9.5 27t-25.5 12h-4v16h96q46 8 78 8q60 0 109 -33t49 -90q0 -48 -36 -78.5t-85 -37.5q24 -16 45 -56q33 -73 86 -73q7 0 19 4v-17q-18 -10 -50 -10q-35 0 -63 23.5t-43 58.5q-28 66 -68 66q-20 0 -34 -11v17q21 12 47 12q22 0 32 -4q42 8 69.5 36.5 t27.5 69.5q0 46 -36.5 76.5t-84.5 30.5q-37 0 -68 -8q-4 -201 0 -301q0 -17 8.5 -30t24.5 -13h4v-17h-127z" />
<glyph unicode="&#xb0;" horiz-adv-x="624" d="M61 1026q0 104 74 178t178 74q103 0 176.5 -74t73.5 -178q0 -105 -73.5 -179.5t-176.5 -74.5q-104 0 -178 74t-74 180zM152 1026q0 -67 46.5 -115.5t114.5 -48.5q67 0 113.5 48.5t46.5 115.5q0 68 -46.5 115t-113.5 47q-69 0 -115 -47t-46 -115z" />
<glyph unicode="&#xb4;" horiz-adv-x="417" d="M20 1391l244 198q57 45 86 45q18 0 32.5 -12.5t14.5 -30.5q0 -24 -14.5 -40.5t-58.5 -37.5l-265 -122h-39z" />
<glyph unicode="&#xb6;" horiz-adv-x="1038" d="M29 1004q0 97 54.5 173t139.5 115t180 39h576v-41h-18q-57 0 -89 -44.5t-32 -104.5v-1102q0 -59 32.5 -104.5t88.5 -45.5h18v-39h-221v1442h-156v-1442h-221v39h20q55 0 88 45.5t33 104.5v639h-100q-99 0 -187.5 37.5t-147 113.5t-58.5 175zM203 1004q0 -71 24 -134.5 t77 -108t124 -44.5h94v575h-94q-105 0 -165 -87.5t-60 -200.5z" />
<glyph unicode="&#xb7;" horiz-adv-x="311" d="M61 629q0 38 28.5 66t66.5 28q39 0 66.5 -27.5t27.5 -66.5q0 -40 -27.5 -68.5t-66.5 -28.5q-38 0 -66.5 28.5t-28.5 68.5z" />
<glyph unicode="&#xb8;" horiz-adv-x="364" d="M29 -264l20 45q47 -29 92 -29q35 0 62.5 19.5t27.5 52.5q0 27 -21 44t-48 17q-19 0 -43 -8l-13 10l72 146h43l-47 -105q8 2 31 2q45 0 79.5 -27t34.5 -71q0 -63 -53.5 -96t-122.5 -33q-53 0 -114 33z" />
<glyph unicode="&#xbb;" horiz-adv-x="729" d="M74 283l227 381l-227 389h108l232 -389l-232 -381h-108zM348 283l230 381l-230 389h109l233 -389l-233 -381h-109z" />
<glyph unicode="&#xbf;" horiz-adv-x="770" d="M23 297q0 41 14.5 80t34 68t53.5 61t59.5 51t65.5 47q63 41 106 105t56 139q8 62 8 92h57q4 -62 4 -90q3 -173 -153 -315q-75 -70 -119.5 -135.5t-44.5 -141.5q-1 -95 70 -159t167 -64q60 0 113 15.5t93.5 55.5t41.5 99q0 32 -22.5 54t-53.5 22q-33 -3 -55 -31 q-18 22 -18 45q1 41 33 67.5t75 26.5q54 0 92.5 -43.5t38.5 -97.5q0 -63 -30 -113.5t-78.5 -81t-106 -46t-118.5 -15.5q-71 0 -138 20t-123 57t-89.5 96.5t-32.5 131.5zM365 1114q0 34 23.5 58t57.5 24q35 0 60.5 -24t25.5 -58q0 -35 -25.5 -60.5t-60.5 -25.5 q-34 0 -57.5 25.5t-23.5 60.5z" />
<glyph unicode="&#xc0;" horiz-adv-x="2039" d="M-39 254q2 79 52.5 138.5t127.5 60.5q63 2 109.5 -41.5t46.5 -106.5q0 -52 -43 -76q-10 29 -35.5 46.5t-56.5 17.5q-42 0 -72.5 -28.5t-30.5 -69.5q0 -66 36 -129t95 -109q125 -94 299 -94q124 0 228 72t162 186q40 79 54.5 169.5t18.5 209.5q-8 4 -23.5 12t-23.5 12 t-43 22.5t-45.5 23.5t-41.5 20.5t-45.5 21t-42.5 15.5t-47 14t-44 8t-49 4q-86 0 -153.5 -48.5t-67.5 -131.5q0 -58 39.5 -101t97.5 -44q62 0 104 39q41 38 41 88q0 34 -20 51q-1 -15 -12.5 -25t-26.5 -10q-17 0 -28 11t-11 28q0 22 15 34.5t36 12.5q38 0 60 -30t22 -70 q0 -64 -47 -111q-51 -51 -133 -51q-72 0 -122 53t-50 125q0 96 78 155.5t178 59.5q48 0 94.5 -10t104 -35.5t83 -38t93.5 -49.5q10 -4 30 -16v39q0 98 9 192h-105q-28 0 -43 -18q-1 0 -2 -1t-2 -1q15 -3 25 -14t10 -25q0 -17 -11 -29t-28 -12q-22 0 -34.5 15.5t-12.5 37.5 q0 37 29.5 59.5t68.5 22.5h109q24 199 116 328q-35 -7 -57 -7q-73 0 -126 41t-54 113q-2 48 24.5 86.5t73.5 38.5q20 0 35.5 -12t15.5 -31q0 -16 -9 -27.5t-23 -11.5q-15 0 -25 10.5t-10 24.5v8q-10 -1 -19.5 -15t-9.5 -26q-1 -47 37.5 -70.5t89.5 -23.5q45 0 88.5 10.5 t111.5 36t85 31.5q117 40 235 37q49 0 133 -15h226v-35h-121q-13 -592 -4 -1130q2 -52 30.5 -91.5t77.5 -39.5h17v-35h-396v35h123q6 270 6 536q-66 -81 -157 -128t-195 -48q-89 0 -184 37q-24 -230 -133 -371q-86 -110 -212.5 -171.5t-267.5 -61.5q-185 0 -331 106 q-198 145 -195 320zM1102 467q109 -37 182 -37q96 1 182 46t146 122h-506v-20q0 -74 -4 -111zM1108 709h528v61h-223v6q0 17 -12 29t-29 12t-29 -12t-12 -29v-6h-219zM1114 805h186q19 47 72 47t72 -47h192q0 118 -4 364q-2 55 -32 97t-82 41q-232 -3 -326 -185 q-61 -120 -78 -317zM1343 1608q0 18 15 30.5t33 12.5q35 0 88 -45l243 -205h-39l-266 127q-44 21 -59 38t-15 42z" />
<glyph unicode="&#xc1;" horiz-adv-x="2039" d="M-39 254q2 79 52.5 138.5t127.5 60.5q63 2 109.5 -41.5t46.5 -106.5q0 -52 -43 -76q-10 29 -35.5 46.5t-56.5 17.5q-42 0 -72.5 -28.5t-30.5 -69.5q0 -66 36 -129t95 -109q125 -94 299 -94q124 0 228 72t162 186q40 79 54.5 169.5t18.5 209.5q-8 4 -23.5 12t-23.5 12 q-18 9 -67.5 34t-74.5 36.5t-66 27.5t-77 23t-73 8q-86 0 -153.5 -48.5t-67.5 -131.5q0 -58 39.5 -101t97.5 -44q62 0 104 39q41 38 41 88q0 34 -20 51q-1 -15 -12.5 -25t-26.5 -10q-17 0 -28 11t-11 28q0 22 15 34.5t36 12.5q38 0 60 -30t22 -70q0 -64 -47 -111 q-51 -51 -133 -51q-72 0 -122 53t-50 125q0 96 78 155.5t178 59.5q48 0 94.5 -10t104 -35.5t83 -38t93.5 -49.5q10 -4 30 -16v39q0 98 9 192h-105q-28 0 -43 -18q-1 0 -2 -1t-2 -1q15 -3 25 -14t10 -25q0 -17 -11 -29t-28 -12q-22 0 -34.5 15.5t-12.5 37.5q0 37 29.5 59.5 t68.5 22.5h109q24 199 116 328q-35 -7 -57 -7q-73 0 -126 41t-54 113q-2 48 24.5 86.5t73.5 38.5q20 0 35.5 -12t15.5 -31q0 -16 -9 -27.5t-23 -11.5q-15 0 -25 10.5t-10 24.5v8q-10 -1 -19.5 -15t-9.5 -26q-1 -47 37.5 -70.5t89.5 -23.5q45 0 88.5 10.5t111.5 36t85 31.5 q117 40 235 37q49 0 133 -15h226v-35h-121q-13 -592 -4 -1130q2 -52 30.5 -91.5t77.5 -39.5h17v-35h-396v35h123q6 270 6 536q-66 -81 -157 -128t-195 -48q-89 0 -184 37q-24 -230 -133 -371q-86 -110 -212.5 -171.5t-267.5 -61.5q-185 0 -331 106q-198 145 -195 320z M1102 467q109 -37 182 -37q96 1 182 46t146 122h-506v-20q0 -74 -4 -111zM1108 709h528v61h-223v6q0 17 -12 29t-29 12t-29 -12t-12 -29v-6h-219zM1114 805h186q19 47 72 47t72 -47h192q0 118 -4 364q-2 55 -32 97t-82 41q-232 -3 -326 -185q-61 -120 -78 -317zM1341 1411 l244 199q57 45 86 45q18 0 32.5 -12.5t14.5 -30.5q0 -24 -14.5 -40.5t-58.5 -37.5l-265 -123h-39z" />
<glyph unicode="&#xc2;" horiz-adv-x="2039" d="M-39 254q2 79 52.5 138.5t127.5 60.5q63 2 109.5 -41.5t46.5 -106.5q0 -52 -43 -76q-10 29 -35.5 46.5t-56.5 17.5q-42 0 -72.5 -28.5t-30.5 -69.5q0 -66 36 -129t95 -109q125 -94 299 -94q124 0 228 72t162 186q40 79 54.5 169.5t18.5 209.5q-8 4 -23.5 12t-23.5 12 q-13 7 -56.5 29.5t-61 31t-55.5 25t-62.5 23.5t-58 13.5t-64.5 6.5q-86 0 -153.5 -48.5t-67.5 -131.5q0 -58 39.5 -101t97.5 -44q62 0 104 39q41 38 41 88q0 34 -20 51q-1 -15 -12.5 -25t-26.5 -10q-17 0 -28 11t-11 28q0 22 15 34.5t36 12.5q38 0 60 -30t22 -70 q0 -64 -47 -111q-51 -51 -133 -51q-72 0 -122 53t-50 125q0 96 78 155.5t178 59.5q48 0 94.5 -10t104 -35.5t83 -38t93.5 -49.5q10 -4 30 -16v39q0 98 9 192h-105q-28 0 -43 -18q-1 0 -2 -1t-2 -1q15 -3 25 -14t10 -25q0 -17 -11 -29t-28 -12q-22 0 -34.5 15.5t-12.5 37.5 q0 37 29.5 59.5t68.5 22.5h109q24 199 116 328q-35 -7 -57 -7q-73 0 -126 41t-54 113q-2 48 24.5 86.5t73.5 38.5q20 0 35.5 -12t15.5 -31q0 -16 -9 -27.5t-23 -11.5q-15 0 -25 10.5t-10 24.5v8q-10 -1 -19.5 -15t-9.5 -26q-1 -47 37.5 -70.5t89.5 -23.5q45 0 88.5 10.5 t111.5 36t85 31.5q117 40 235 37q49 0 133 -15h226v-35h-121q-13 -592 -4 -1130q2 -52 30.5 -91.5t77.5 -39.5h17v-35h-396v35h123q6 270 6 536q-66 -81 -157 -128t-195 -48q-89 0 -184 37q-24 -230 -133 -371q-86 -110 -212.5 -171.5t-267.5 -61.5q-185 0 -331 106 q-198 145 -195 320zM1102 467q109 -37 182 -37q96 1 182 46t146 122h-506v-20q0 -74 -4 -111zM1108 709h528v61h-223v6q0 17 -12 29t-29 12t-29 -12t-12 -29v-6h-219zM1114 805h186q19 47 72 47t72 -47h192q0 118 -4 364q-2 55 -32 97t-82 41q-232 -3 -326 -185 q-61 -120 -78 -317zM1294 1415l213 242q15 18 39 18t39 -18l215 -242h-41l-213 146l-211 -146h-41z" />
<glyph unicode="&#xc3;" horiz-adv-x="2039" d="M-39 254q2 79 52.5 138.5t127.5 60.5q63 2 109.5 -41.5t46.5 -106.5q0 -52 -43 -76q-10 29 -35.5 46.5t-56.5 17.5q-42 0 -72.5 -28.5t-30.5 -69.5q0 -66 36 -129t95 -109q125 -94 299 -94q124 0 228 72t162 186q40 79 54.5 169.5t18.5 209.5q-8 4 -23.5 12t-23.5 12 q-65 35 -89.5 47.5t-79 37t-99 34t-90.5 10.5q-86 0 -153.5 -48.5t-67.5 -131.5q0 -58 39.5 -101t97.5 -44q62 0 104 39q41 38 41 88q0 34 -20 51q-1 -15 -12.5 -25t-26.5 -10q-17 0 -28 11t-11 28q0 22 15 34.5t36 12.5q38 0 60 -30t22 -70q0 -64 -47 -111 q-51 -51 -133 -51q-72 0 -122 53t-50 125q0 96 78 155.5t178 59.5q48 0 94.5 -10t104 -35.5t83 -38t93.5 -49.5q10 -4 30 -16v39q0 98 9 192h-105q-28 0 -43 -18q-1 0 -2 -1t-2 -1q15 -3 25 -14t10 -25q0 -17 -11 -29t-28 -12q-22 0 -34.5 15.5t-12.5 37.5q0 37 29.5 59.5 t68.5 22.5h109q24 199 116 328q-35 -7 -57 -7q-73 0 -126 41t-54 113q-2 48 24.5 86.5t73.5 38.5q20 0 35.5 -12t15.5 -31q0 -16 -9 -27.5t-23 -11.5q-15 0 -25 10.5t-10 24.5v8q-10 -1 -19.5 -15t-9.5 -26q-1 -47 37.5 -70.5t89.5 -23.5q45 0 88.5 10.5t111.5 36t85 31.5 q117 40 235 37q49 0 133 -15h226v-35h-121q-13 -592 -4 -1130q2 -52 30.5 -91.5t77.5 -39.5h17v-35h-396v35h123q6 270 6 536q-66 -81 -157 -128t-195 -48q-89 0 -184 37q-24 -230 -133 -371q-86 -110 -212.5 -171.5t-267.5 -61.5q-185 0 -331 106q-198 145 -195 320z M1102 467q109 -37 182 -37q96 1 182 46t146 122h-506v-20q0 -74 -4 -111zM1108 709h528v61h-223v6q0 17 -12 29t-29 12t-29 -12t-12 -29v-6h-219zM1114 805h186q19 47 72 47t72 -47h192q0 118 -4 364q-2 55 -32 97t-82 41q-232 -3 -326 -185q-61 -120 -78 -317zM1251 1464 q16 72 62 122t114 50q48 0 137.5 -36.5t137.5 -36.5q36 0 64.5 21t37.5 56h35q-16 -72 -62 -122t-114 -50q-48 0 -137 37t-137 37q-36 0 -65 -21.5t-38 -56.5h-35z" />
<glyph unicode="&#xc4;" horiz-adv-x="2039" d="M-39 254q2 79 52.5 138.5t127.5 60.5q63 2 109.5 -41.5t46.5 -106.5q0 -52 -43 -76q-10 29 -35.5 46.5t-56.5 17.5q-42 0 -72.5 -28.5t-30.5 -69.5q0 -66 36 -129t95 -109q125 -94 299 -94q124 0 228 72t162 186q40 79 54.5 169.5t18.5 209.5q-43 21 -47 24 q-209 127 -358 129q-86 0 -153.5 -48.5t-67.5 -131.5q0 -58 39.5 -101t97.5 -44q62 0 104 39q41 38 41 88q0 34 -20 51q-1 -15 -12.5 -25t-26.5 -10q-17 0 -28 11t-11 28q0 22 15 34.5t36 12.5q38 0 60 -30t22 -70q0 -64 -47 -111q-51 -51 -133 -51q-72 0 -122 53t-50 125 q0 96 78 155.5t178 59.5q48 0 94.5 -10t104 -35.5t83 -38t93.5 -49.5q10 -4 30 -16v39q0 98 9 192h-105q-28 0 -43 -18q-1 0 -2 -1t-2 -1q15 -3 25 -14t10 -25q0 -17 -11 -29t-28 -12q-22 0 -34.5 15.5t-12.5 37.5q0 37 29.5 59.5t68.5 22.5h109q24 199 116 328 q-35 -7 -57 -7q-73 0 -126 41t-54 113q-2 48 24.5 86.5t73.5 38.5q20 0 35.5 -12t15.5 -31q0 -16 -9 -27.5t-23 -11.5q-15 0 -25 10.5t-10 24.5v8q-10 -1 -19.5 -15t-9.5 -26q-1 -47 37.5 -70.5t89.5 -23.5q45 0 88.5 10.5t111.5 36t85 31.5q117 40 235 37q49 0 133 -15h226 v-35h-121q-13 -592 -4 -1130q2 -52 30.5 -91.5t77.5 -39.5h17v-35h-396v35h123q6 270 6 536q-66 -81 -157 -128t-195 -48q-89 0 -184 37q-24 -230 -133 -371q-86 -110 -212.5 -171.5t-267.5 -61.5q-185 0 -331 106q-198 145 -195 320zM1102 467q109 -37 182 -37q96 1 182 46 t146 122h-506v-20q0 -74 -4 -111zM1108 709h528v61h-223v6q0 17 -12 29t-29 12t-29 -12t-12 -29v-6h-219zM1114 805h186q19 47 72 47t72 -47h192q0 118 -4 364q-2 55 -32 97t-82 41q-232 -3 -326 -185q-61 -120 -78 -317zM1214 1546q0 44 31.5 75.5t75.5 31.5 q43 0 73.5 -31.5t30.5 -75.5q0 -43 -30.5 -73.5t-73.5 -30.5q-44 0 -75.5 30.5t-31.5 73.5zM1655 1546q0 44 31 75.5t75 31.5q43 0 74 -31.5t31 -75.5q0 -43 -31 -73.5t-74 -30.5q-44 0 -75 30.5t-31 73.5z" />
<glyph unicode="&#xc5;" horiz-adv-x="2039" d="M-39 254q2 79 52.5 138.5t127.5 60.5q63 2 109.5 -41.5t46.5 -106.5q0 -52 -43 -76q-10 29 -35.5 46.5t-56.5 17.5q-42 0 -72.5 -28.5t-30.5 -69.5q0 -66 36 -129t95 -109q125 -94 299 -94q124 0 228 72t162 186q40 79 54.5 169.5t18.5 209.5q-8 4 -23.5 12t-23.5 12 q-13 7 -56.5 29.5t-61 31t-55.5 25t-62.5 23.5t-58 13.5t-64.5 6.5q-86 0 -153.5 -48.5t-67.5 -131.5q0 -58 39.5 -101t97.5 -44q62 0 104 39q41 38 41 88q0 34 -20 51q-1 -15 -12.5 -25t-26.5 -10q-17 0 -28 11t-11 28q0 22 15 34.5t36 12.5q38 0 60 -30t22 -70 q0 -64 -47 -111q-51 -51 -133 -51q-72 0 -122 53t-50 125q0 96 78 155.5t178 59.5q48 0 94.5 -10t104 -35.5t83 -38t93.5 -49.5q10 -4 30 -16v39q0 98 9 192h-105q-28 0 -43 -18q-1 0 -2 -1t-2 -1q15 -3 25 -14t10 -25q0 -17 -11 -29t-28 -12q-22 0 -34.5 15.5t-12.5 37.5 q0 37 29.5 59.5t68.5 22.5h109q24 199 116 328q-35 -7 -57 -7q-73 0 -126 41t-54 113q-2 48 24.5 86.5t73.5 38.5q20 0 35.5 -12t15.5 -31q0 -16 -9 -27.5t-23 -11.5q-15 0 -25 10.5t-10 24.5v8q-10 -1 -19.5 -15t-9.5 -26q-1 -47 37.5 -70.5t89.5 -23.5q45 0 88.5 10.5 t111.5 36t85 31.5q117 40 235 37q49 0 133 -15h226v-35h-121q-13 -592 -4 -1130q2 -52 30.5 -91.5t77.5 -39.5h17v-35h-396v35h123q6 270 6 536q-66 -81 -157 -128t-195 -48q-89 0 -184 37q-24 -230 -133 -371q-86 -110 -212.5 -171.5t-267.5 -61.5q-185 0 -331 106 q-198 145 -195 320zM1102 467q109 -37 182 -37q96 1 182 46t146 122h-506v-20q0 -74 -4 -111zM1108 709h528v61h-223v6q0 17 -12 29t-29 12t-29 -12t-12 -29v-6h-219zM1114 805h186q19 47 72 47t72 -47h192q0 118 -4 364q-2 55 -32 97t-82 41q-232 -3 -326 -185 q-61 -120 -78 -317zM1393 1548q0 63 44 107.5t107 44.5q62 0 106 -44.5t44 -107.5t-44 -107t-106 -44q-63 0 -107 44t-44 107zM1454 1548q0 -37 26 -63.5t64 -26.5q37 0 62.5 26.5t25.5 63.5t-25.5 63.5t-62.5 26.5q-38 0 -64 -26.5t-26 -63.5z" />
<glyph unicode="&#xc6;" horiz-adv-x="3610" d="M2 254q2 79 52.5 138.5t127.5 60.5q63 2 109.5 -41.5t46.5 -106.5q0 -52 -43 -76q-10 29 -35.5 46.5t-56.5 17.5q-42 0 -72.5 -28.5t-30.5 -69.5q0 -66 36 -129t95 -109q125 -94 299 -94q124 0 228 72t162 186q40 79 54.5 169.5t18.5 209.5q-3 1 -20.5 10.5t-26.5 13.5 q-65 35 -89.5 47.5t-79 37t-99 34t-90.5 10.5q-86 0 -153.5 -48.5t-67.5 -131.5q0 -58 39.5 -101t97.5 -44q62 0 104 39q41 38 41 88q0 34 -20 51q-1 -15 -12.5 -25t-26.5 -10q-17 0 -28 11t-11 28q0 22 15 34.5t36 12.5q38 0 60 -30t22 -70q0 -64 -47 -111 q-51 -51 -133 -51q-72 0 -122 53t-50 125q0 96 78 155.5t178 59.5q48 0 94.5 -10t104 -35.5t83 -38t93.5 -49.5q10 -4 30 -16v39q0 108 8 192h-104q-28 0 -43 -18q-1 0 -2 -1t-2 -1q15 -3 25 -14t10 -25q0 -17 -11 -29t-28 -12q-22 0 -34.5 15.5t-12.5 37.5q0 37 29.5 59.5 t68.5 22.5h109q24 199 116 328q-35 -7 -57 -7q-73 0 -126 41t-54 113q-2 48 24.5 86.5t73.5 38.5q20 0 35.5 -12t15.5 -31q0 -16 -9.5 -27.5t-23.5 -11.5q-15 0 -24.5 10.5t-9.5 24.5v8q-10 -1 -19.5 -15t-9.5 -26q-1 -47 37.5 -70.5t89.5 -23.5q45 0 88.5 10.5t111.5 36 t85 31.5q117 40 235 37q49 0 133 -15h226v-35h-121q-13 -592 -4 -1130q2 -52 30.5 -91.5t77.5 -39.5h17v-35h-396v35h123q6 270 6 536q-66 -81 -157 -128t-195 -48q-89 0 -184 37q-24 -230 -133 -371q-86 -110 -212.5 -171.5t-267.5 -61.5q-185 0 -331 106 q-198 145 -195 320zM1143 467q109 -37 182 -37q96 1 182 46t146 122h-506v-20q0 -74 -4 -111zM1151 709h526v61h-223v6q0 17 -12 29t-29 12t-29 -12t-12 -29v-6h-219zM1155 805h186q19 47 72 47t72 -47h192q0 118 -4 364q-2 55 -32 97t-82 41q-232 -3 -326 -185 q-61 -120 -78 -317zM2140 592q0 160 67 303t178.5 242t260 155.5t307.5 53.5q201 -3 377 -107q102 -62 165 -151.5t62 -196.5q-2 -79 -52.5 -138.5t-127.5 -60.5q-63 -2 -109 41t-46 107q0 51 43 75q11 -28 35.5 -45.5t56.5 -17.5q42 0 72 28.5t30 71.5q0 140 -156 246 q-164 112 -376 109q-109 -1 -206.5 -41t-170 -109t-125.5 -158.5t-80.5 -192t-28.5 -208.5q80 61 178 61q65 0 144 -28t158 -56.5t143 -29.5q59 0 104 28t45 82q0 15 -11 30.5t-23 16.5q2 -4 2 -8q0 -17 -12 -28t-29 -11t-28 12t-11 29q0 24 18 38t41 14q54 0 84.5 -44.5 t30.5 -101.5q-1 -82 -63 -129t-146 -47q-49 -1 -101.5 15.5t-99 40.5l-93 48t-100 41t-102.5 17q-65 0 -129 -31q4 -104 32.5 -204t82 -187.5t125 -153.5t167.5 -105t204 -40q214 -3 376 108q156 106 156 246q0 41 -30.5 71t-71.5 30q-32 0 -56.5 -18t-35.5 -46 q-43 24 -43 76q0 62 46 104.5t109 42.5q77 -1 127.5 -60.5t52.5 -137.5q1 -107 -62 -197t-165 -152q-174 -103 -377 -106q-161 -3 -310 54t-259.5 157.5t-177 245t-66.5 307.5z" />
<glyph unicode="&#xc7;" horiz-adv-x="1579" d="M94 592q0 160 67 303t178 242t259 155.5t307 53.5q201 -3 377 -107q102 -62 165 -151.5t62 -196.5q-2 -79 -52.5 -138.5t-127.5 -60.5q-63 -2 -109 41t-46 107q0 51 43 75q12 -28 37 -45.5t55 -17.5q42 0 72 28.5t30 71.5q0 140 -156 246q-164 112 -376 109 q-137 -1 -253.5 -63.5t-193.5 -163t-120 -227.5t-44 -261q-1 -135 41.5 -264.5t119 -232t194 -165.5t256.5 -63q243 0 424 143q97 75 155 189q14 22 27 55l33 -18l-15 -31q-65 -133 -178 -223q-188 -151 -420 -154h-20l-33 -72q8 2 31 2q45 0 79.5 -27t34.5 -71 q0 -63 -53.5 -96t-122.5 -33q-53 0 -114 33l20 45q47 -29 92 -29q35 0 62.5 19.5t27.5 52.5q0 27 -21 44t-48 17q-19 0 -43 -8l-13 10l56 115q-151 9 -287.5 70t-238 160.5t-161 238t-59.5 293.5z" />
<glyph unicode="&#xc8;" horiz-adv-x="1564" d="M94 592q0 160 67 303t178.5 242t260 155.5t307.5 53.5q201 -3 377 -107q102 -62 165 -151.5t62 -196.5q-2 -79 -52.5 -138.5t-127.5 -60.5q-63 -2 -109 41t-46 107q0 51 43 75q11 -28 35.5 -45.5t56.5 -17.5q42 0 72 28.5t30 71.5q0 140 -156 246q-164 112 -376 109 q-109 -1 -206.5 -41t-170 -109t-125.5 -158.5t-80.5 -192t-28.5 -208.5q80 61 179 61q65 0 144 -28t157.5 -56.5t142.5 -29.5q59 0 104 28t45 82q0 15 -11 30.5t-23 16.5q2 -4 2 -8q0 -17 -12 -28t-29 -11t-28 12t-11 29q0 24 18 38t41 14q54 0 84.5 -44.5t30.5 -101.5 q-1 -82 -63 -129t-146 -47q-49 -1 -101.5 15.5t-99 40.5l-93 48t-100 41t-102.5 17q-65 0 -129 -31q4 -104 32.5 -204t82 -187.5t125 -153.5t167.5 -105t204 -40q214 -3 376 108q156 106 156 246q0 41 -30.5 71t-71.5 30q-32 0 -56.5 -18t-35.5 -46q-43 24 -43 76 q0 62 46 104.5t109 42.5q77 -1 127.5 -60.5t52.5 -137.5q1 -107 -62 -197t-165 -152q-174 -103 -377 -106q-161 -3 -310 54t-259.5 157.5t-177 245t-66.5 307.5zM633 1604q0 18 14.5 30.5t32.5 12.5q35 0 88 -45l244 -205h-39l-266 127q-44 21 -59 38t-15 42z" />
<glyph unicode="&#xc9;" horiz-adv-x="1564" d="M94 592q0 160 67 303t178.5 242t260 155.5t307.5 53.5q201 -3 377 -107q102 -62 165 -151.5t62 -196.5q-2 -79 -52.5 -138.5t-127.5 -60.5q-63 -2 -109 41t-46 107q0 51 43 75q11 -28 35.5 -45.5t56.5 -17.5q42 0 72 28.5t30 71.5q0 140 -156 246q-164 112 -376 109 q-109 -1 -206.5 -41t-170 -109t-125.5 -158.5t-80.5 -192t-28.5 -208.5q80 61 179 61q65 0 144 -28t157.5 -56.5t142.5 -29.5q59 0 104 28t45 82q0 15 -11 30.5t-23 16.5q2 -4 2 -8q0 -17 -12 -28t-29 -11t-28 12t-11 29q0 24 18 38t41 14q54 0 84.5 -44.5t30.5 -101.5 q-1 -82 -63 -129t-146 -47q-49 -1 -101.5 15.5t-99 40.5l-93 48t-100 41t-102.5 17q-65 0 -129 -31q4 -104 32.5 -204t82 -187.5t125 -153.5t167.5 -105t204 -40q214 -3 376 108q156 106 156 246q0 41 -30.5 71t-71.5 30q-32 0 -56.5 -18t-35.5 -46q-43 24 -43 76 q0 62 46 104.5t109 42.5q77 -1 127.5 -60.5t52.5 -137.5q1 -107 -62 -197t-165 -152q-174 -103 -377 -106q-161 -3 -310 54t-259.5 157.5t-177 245t-66.5 307.5zM680 1397l244 198q57 45 86 45q18 0 32.5 -12.5t14.5 -30.5q0 -24 -14.5 -40t-59.5 -37l-264 -123h-39z" />
<glyph unicode="&#xca;" horiz-adv-x="1564" d="M94 592q0 160 67 303t178.5 242t260 155.5t307.5 53.5q201 -3 377 -107q102 -62 165 -151.5t62 -196.5q-2 -79 -52.5 -138.5t-127.5 -60.5q-63 -2 -109 41t-46 107q0 51 43 75q11 -28 35.5 -45.5t56.5 -17.5q42 0 72 28.5t30 71.5q0 140 -156 246q-164 112 -376 109 q-109 -1 -206.5 -41t-170 -109t-125.5 -158.5t-80.5 -192t-28.5 -208.5q80 61 179 61q65 0 144 -28t157.5 -56.5t142.5 -29.5q59 0 104 28t45 82q0 15 -11 30.5t-23 16.5q2 -4 2 -8q0 -17 -12 -28t-29 -11t-28 12t-11 29q0 24 18 38t41 14q54 0 84.5 -44.5t30.5 -101.5 q-1 -82 -63 -129t-146 -47q-49 -1 -101.5 15.5t-99 40.5l-93 48t-100 41t-102.5 17q-65 0 -129 -31q4 -104 32.5 -204t82 -187.5t125 -153.5t167.5 -105t204 -40q214 -3 376 108q156 106 156 246q0 41 -30.5 71t-71.5 30q-32 0 -56.5 -18t-35.5 -46q-43 24 -43 76 q0 62 46 104.5t109 42.5q77 -1 127.5 -60.5t52.5 -137.5q1 -107 -62 -197t-165 -152q-174 -103 -377 -106q-161 -3 -310 54t-259.5 157.5t-177 245t-66.5 307.5zM625 1403l213 242q15 18 39 18q23 0 38 -18l215 -242h-40l-213 145l-211 -145h-41z" />
<glyph unicode="&#xcb;" horiz-adv-x="1564" d="M94 592q0 160 67 303t178.5 242t260 155.5t307.5 53.5q201 -3 377 -107q102 -62 165 -151.5t62 -196.5q-2 -79 -52.5 -138.5t-127.5 -60.5q-63 -2 -109 41t-46 107q0 51 43 75q11 -28 35.5 -45.5t56.5 -17.5q42 0 72 28.5t30 71.5q0 140 -156 246q-164 112 -376 109 q-109 -1 -206.5 -41t-170 -109t-125.5 -158.5t-80.5 -192t-28.5 -208.5q80 61 179 61q65 0 144 -28t157.5 -56.5t142.5 -29.5q59 0 104 28t45 82q0 15 -11 30.5t-23 16.5q2 -4 2 -8q0 -17 -12 -28t-29 -11t-28 12t-11 29q0 24 18 38t41 14q54 0 84.5 -44.5t30.5 -101.5 q-1 -82 -63 -129t-146 -47q-49 -1 -101.5 15.5t-99 40.5l-93 48t-100 41t-102.5 17q-65 0 -129 -31q4 -104 32.5 -204t82 -187.5t125 -153.5t167.5 -105t204 -40q214 -3 376 108q156 106 156 246q0 41 -30.5 71t-71.5 30q-32 0 -56.5 -18t-35.5 -46q-43 24 -43 76 q0 62 46 104.5t109 42.5q77 -1 127.5 -60.5t52.5 -137.5q1 -107 -62 -197t-165 -152q-174 -103 -377 -106q-161 -3 -310 54t-259.5 157.5t-177 245t-66.5 307.5zM557 1530q0 44 31.5 75t75.5 31q43 0 73.5 -31t30.5 -75q0 -43 -30.5 -74t-73.5 -31q-44 0 -75.5 31t-31.5 74z M997 1530q0 44 31.5 75t75.5 31q43 0 73.5 -31t30.5 -75q0 -43 -30.5 -74t-73.5 -31q-44 0 -75.5 31t-31.5 74z" />
<glyph unicode="&#xcc;" horiz-adv-x="747" d="M123 1249q0 37 29.5 59.5t68.5 22.5h404v-35h-123q-13 -592 -4 -1130q2 -52 30.5 -91.5t77.5 -39.5h19v-35l-398 -166v41l121 53q13 740 4 1241q0 50 -29 88.5t-77 38.5h-25q-27 0 -45 -18l-2 -2q15 -3 25 -14t10 -25q0 -17 -12 -29t-27 -12q-22 0 -34.5 15.5t-12.5 37.5 zM168 1626q0 18 14.5 30.5t32.5 12.5q35 0 88 -45l244 -205h-39l-266 127q-44 21 -59 38t-15 42z" />
<glyph unicode="&#xcd;" horiz-adv-x="747" d="M123 1249q0 37 29.5 59.5t68.5 22.5h404v-35h-123q-13 -592 -4 -1130q2 -52 30.5 -91.5t77.5 -39.5h19v-35l-398 -166v41l121 53q13 740 4 1241q0 50 -29 88.5t-77 38.5h-25q-27 0 -45 -18l-2 -2q15 -3 25 -14t10 -25q0 -17 -12 -29t-27 -12q-22 0 -34.5 15.5t-12.5 37.5 zM238 1427l243 199q57 45 86 45q18 0 32.5 -12.5t14.5 -30.5q0 -24 -14.5 -40.5t-58.5 -37.5l-265 -123h-38z" />
<glyph unicode="&#xce;" horiz-adv-x="747" d="M123 1249q0 37 29.5 59.5t68.5 22.5h404v-35h-123q-13 -592 -4 -1130q2 -52 30.5 -91.5t77.5 -39.5h19v-35l-398 -166v41l121 53q13 740 4 1241q0 50 -29 88.5t-77 38.5h-25q-27 0 -45 -18l-2 -2q15 -3 25 -14t10 -25q0 -17 -12 -29t-27 -12q-22 0 -34.5 15.5t-12.5 37.5 zM131 1413l213 242q15 18 39 18t39 -18l215 -242h-41l-213 146l-211 -146h-41z" />
<glyph unicode="&#xcf;" horiz-adv-x="747" d="M106 1544q0 44 31.5 75.5t75.5 31.5q43 0 73.5 -31.5t30.5 -75.5q0 -43 -30.5 -73.5t-73.5 -30.5q-44 0 -75.5 30.5t-31.5 73.5zM123 1249q0 37 29.5 59.5t68.5 22.5h404v-35h-123q-13 -592 -4 -1130q2 -52 30.5 -91.5t77.5 -39.5h19v-35l-398 -166v41l121 53 q13 740 4 1241q0 50 -29 88.5t-77 38.5h-25q-27 0 -45 -18l-2 -2q15 -3 25 -14t10 -25q0 -17 -12 -29t-27 -12q-22 0 -34.5 15.5t-12.5 37.5zM463 1544q0 44 31 75.5t75 31.5q43 0 74 -31.5t31 -75.5q0 -43 -31 -73.5t-74 -30.5q-44 0 -75 30.5t-31 73.5z" />
<glyph unicode="&#xd0;" horiz-adv-x="1654" d="M35 279q2 78 51.5 137t126.5 59q65 0 111 -42t45 -105q0 -53 -43 -74q-10 28 -36 44.5t-57 16.5q-41 0 -70.5 -28.5t-29.5 -69.5q-1 -77 45.5 -141.5t120.5 -112.5q151 -98 375 -98q285 0 456 121q140 98 218.5 267t76.5 355q-2 140 -47.5 272t-130.5 232 q-80 97 -196 148t-244 51q-106 0 -205 -21q-6 -296 -6 -590h428l-31 -71h-397q0 -153 4 -461q0 -51 29.5 -91t79.5 -40h16v-37h-395v37h121q6 295 6 592h-166l33 71h133q0 313 -2 469q-2 51 -31.5 89t-77.5 38h-24q-28 0 -43 -18q-1 0 -2.5 -1t-2.5 -1q15 -1 25 -12.5 t10 -26.5q0 -17 -11 -28t-28 -11q-22 0 -34.5 15.5t-12.5 35.5q0 38 29.5 60t69.5 22h325q89 15 187 15q140 0 270 -45.5t233 -133.5q123 -104 193.5 -248t71.5 -311q1 -222 -118 -405t-315 -279q-187 -93 -442 -96q-275 -3 -457 100q-106 61 -172 151t-63 200z" />
<glyph unicode="&#xd1;" horiz-adv-x="1570" d="M92 1247q0 38 29.5 61t68.5 23h150q196 0 377 -143q54 -43 95.5 -99t70 -124t46.5 -127.5t36 -137.5q29 -124 42.5 -179.5t43.5 -151t59 -156.5q81 -169 209 -264q15 -13 55 -33q-171 199 -168 520q0 60 14.5 142.5t26.5 130t39 147.5q41 143 41 244q0 81 -43 145 t-117 64q-25 0 -51 -13q-20 -10 -35 -28q-23 23 -26 59q0 62 47.5 99.5t111.5 37.5q97 0 158.5 -78t61.5 -180q0 -94 -95 -366q-31 -93 -45.5 -141t-30.5 -128t-16 -147q-2 -153 44.5 -289t148.5 -231q33 -27 59 -37l-16 -39q-12 2 -94 27q-221 84 -369 270 q-40 50 -70.5 107.5t-54 134t-34.5 120t-32 136.5q-18 87 -30 134.5t-34 120.5t-51.5 131t-68.5 109q-76 103 -174 148q-11 -524 -2 -1100q0 -51 29.5 -91t79.5 -40h16v-35h-395v35h123q11 539 2 1132q-2 51 -31.5 89t-77.5 38h-25q-28 0 -45 -20q14 -2 24.5 -13t10.5 -26 q0 -17 -12 -28t-29 -11q-22 0 -34.5 15.5t-12.5 35.5zM465 1448q16 72 62 122t114 50q48 0 137 -37t137 -37q36 0 65 21.5t38 56.5h35q-16 -72 -62 -122t-114 -50q-48 0 -137.5 37t-137.5 37q-36 0 -64.5 -21.5t-37.5 -56.5h-35z" />
<glyph unicode="&#xd2;" d="M97 484.5q-16 151.5 25 291t137.5 263.5t234.5 204q184 107 390.5 110t383.5 -94.5t280 -273.5q76 -132 91.5 -283t-25 -291t-137 -264t-234.5 -204q-184 -106 -390.5 -109t-383.5 94t-279 273q-77 132 -93 283.5zM232 639q11 -183 108 -350q73 -126 181 -216.5 t226.5 -132.5t244.5 -34.5t233 69.5q144 84 218 237t62.5 336t-108.5 351q-73 125 -180.5 215t-226 131.5t-244.5 34t-234 -69.5q-143 -83 -217 -235.5t-63 -335.5zM680 1604q0 18 14.5 30.5t32.5 12.5q35 0 88 -45l244 -205h-39l-266 127q-44 21 -59 38t-15 42z" />
<glyph unicode="&#xd3;" d="M97 484.5q-16 151.5 25 291t137.5 263.5t234.5 204q184 107 390.5 110t383.5 -94.5t280 -273.5q76 -132 91.5 -283t-25 -291t-137 -264t-234.5 -204q-184 -106 -390.5 -109t-383.5 94t-279 273q-77 132 -93 283.5zM232 639q11 -183 108 -350q73 -126 181 -216.5 t226.5 -132.5t244.5 -34.5t233 69.5q144 84 218 237t62.5 336t-108.5 351q-73 125 -180.5 215t-226 131.5t-244.5 34t-234 -69.5q-143 -83 -217 -235.5t-63 -335.5zM754 1401l243 198q58 46 86 46q18 0 32.5 -12.5t14.5 -30.5q0 -24 -14.5 -40.5t-58.5 -37.5l-264 -123h-39z " />
<glyph unicode="&#xd4;" d="M97 484.5q-16 151.5 25 291t137.5 263.5t234.5 204q184 107 390.5 110t383.5 -94.5t280 -273.5q76 -132 91.5 -283t-25 -291t-137 -264t-234.5 -204q-184 -106 -390.5 -109t-383.5 94t-279 273q-77 132 -93 283.5zM232 639q11 -183 108 -350q73 -126 181 -216.5 t226.5 -132.5t244.5 -34.5t233 69.5q144 84 218 237t62.5 336t-108.5 351q-73 125 -180.5 215t-226 131.5t-244.5 34t-234 -69.5q-143 -83 -217 -235.5t-63 -335.5zM647 1434l213 241q16 19 39 19t39 -19l215 -241h-41l-213 145l-211 -145h-41z" />
<glyph unicode="&#xd5;" d="M97 484.5q-16 151.5 25 291t137.5 263.5t234.5 204q184 107 390.5 110t383.5 -94.5t280 -273.5q76 -132 91.5 -283t-25 -291t-137 -264t-234.5 -204q-184 -106 -390.5 -109t-383.5 94t-279 273q-77 132 -93 283.5zM232 639q11 -183 108 -350q73 -126 181 -216.5 t226.5 -132.5t244.5 -34.5t233 69.5q144 84 218 237t62.5 336t-108.5 351q-73 125 -180.5 215t-226 131.5t-244.5 34t-234 -69.5q-143 -83 -217 -235.5t-63 -335.5zM606 1456q16 72 62 122t114 50q48 0 137.5 -37t137.5 -37q36 0 64.5 21.5t37.5 56.5h35q-16 -72 -62 -122 t-114 -50q-48 0 -137.5 37t-137.5 37q-36 0 -64.5 -21.5t-37.5 -56.5h-35z" />
<glyph unicode="&#xd6;" d="M97 484.5q-16 151.5 25 291t137.5 263.5t234.5 204q184 107 390.5 110t383.5 -94.5t280 -273.5q76 -132 91.5 -283t-25 -291t-137 -264t-234.5 -204q-184 -106 -390.5 -109t-383.5 94t-279 273q-77 132 -93 283.5zM232 639q11 -183 108 -350q73 -126 181 -216.5 t226.5 -132.5t244.5 -34.5t233 69.5q144 84 218 237t62.5 336t-108.5 351q-73 125 -180.5 215t-226 131.5t-244.5 34t-234 -69.5q-143 -83 -217 -235.5t-63 -335.5zM565 1528q0 44 31.5 75t75.5 31q43 0 73.5 -31t30.5 -75q0 -43 -30.5 -74t-73.5 -31q-44 0 -75.5 31 t-31.5 74zM1006 1528q0 44 31 75t75 31q43 0 74 -31t31 -75q0 -43 -31 -74t-74 -31q-44 0 -75 31t-31 74z" />
<glyph unicode="&#xd7;" horiz-adv-x="753" d="M78 459l241 243l-241 242l55 57l244 -243l244 243l55 -57l-242 -242l242 -243l-55 -58l-244 244l-244 -244z" />
<glyph unicode="&#xd8;" d="M74 -217l235 264q-71 71 -119 154q-77 132 -93 283.5t25 291t137.5 263.5t234.5 204q213 119 439 108t408 -141l177 199h120l-227 -254q74 -69 137 -170q78 -130 94 -281.5t-25.5 -291t-138.5 -264.5t-235 -205q-218 -121 -452.5 -106.5t-415.5 153.5l-185 -207h-116z M235 641q11 -182 105 -352q32 -60 80 -117l819 922q-161 145 -357.5 178.5t-369.5 -62.5q-143 -82 -215.5 -234.5t-61.5 -334.5zM479 106q162 -154 365.5 -191.5t380.5 60.5q144 84 218 237t62.5 336t-108.5 351q-45 73 -97 131z" />
<glyph unicode="&#xd9;" horiz-adv-x="1591" d="M123 1202q0 64 52 104t118 40q72 -1 126 -44t79.5 -106t25.5 -133q1 -88 -25.5 -193.5t-58.5 -188t-58.5 -188t-25.5 -192.5q2 -175 120.5 -303t291.5 -131q156 -3 293 88q11 7 46 32t60 41t50 27q0 19 1 56t1 55q9 500 0 1001q-2 51 -31.5 90t-77.5 39h-25 q-37 0 -45 -22q14 -2 24.5 -13t10.5 -26t-12 -27t-27 -12q-22 0 -35.5 15.5t-13.5 35.5q0 38 30 61t68 23h404v-35h-121q-13 -592 -4 -1130q2 -52 31 -91.5t78 -39.5h16v-35h-64q-36 0 -75.5 -10.5t-66.5 -22.5t-69 -33q-205 -108 -434 -108q-126 1 -234 63t-172 169 t-65 235q0 111 54.5 324.5t54.5 322.5q0 59 -15.5 111t-55.5 91t-99 40q-51 0 -80 -33q-6 -4 -14 -16q-9 6 -17 18q-14 20 -14 51zM602 1618q0 18 14.5 30.5t32.5 12.5q35 0 88 -45l244 -205h-39l-266 127q-44 21 -59 38t-15 42z" />
<glyph unicode="&#xda;" horiz-adv-x="1591" d="M123 1202q0 64 52 104t118 40q72 -1 126 -44t79.5 -106t25.5 -133q1 -88 -25.5 -193.5t-58.5 -188t-58.5 -188t-25.5 -192.5q2 -175 120.5 -303t291.5 -131q156 -3 293 88q11 7 46 32t60 41t50 27q0 19 1 56t1 55q9 500 0 1001q-2 51 -31.5 90t-77.5 39h-25 q-37 0 -45 -22q14 -2 24.5 -13t10.5 -26t-12 -27t-27 -12q-22 0 -35.5 15.5t-13.5 35.5q0 38 30 61t68 23h404v-35h-121q-13 -592 -4 -1130q2 -52 31 -91.5t78 -39.5h16v-35h-64q-36 0 -75.5 -10.5t-66.5 -22.5t-69 -33q-205 -108 -434 -108q-126 1 -234 63t-172 169 t-65 235q0 111 54.5 324.5t54.5 322.5q0 59 -15.5 111t-55.5 91t-99 40q-51 0 -80 -33q-6 -4 -14 -16q-9 6 -17 18q-14 20 -14 51zM731 1423l244 199q57 45 86 45q18 0 32.5 -12.5t14.5 -30.5q0 -24 -15 -40.5t-59 -37.5l-264 -123h-39z" />
<glyph unicode="&#xdb;" horiz-adv-x="1591" d="M123 1202q0 64 52 104t118 40q72 -1 126 -44t79.5 -106t25.5 -133q1 -88 -25.5 -193.5t-58.5 -188t-58.5 -188t-25.5 -192.5q2 -175 120.5 -303t291.5 -131q156 -3 293 88q11 7 46 32t60 41t50 27q0 19 1 56t1 55q9 500 0 1001q-2 51 -31.5 90t-77.5 39h-25 q-37 0 -45 -22q14 -2 24.5 -13t10.5 -26t-12 -27t-27 -12q-22 0 -35.5 15.5t-13.5 35.5q0 38 30 61t68 23h404v-35h-121q-13 -592 -4 -1130q2 -52 31 -91.5t78 -39.5h16v-35h-64q-36 0 -75.5 -10.5t-66.5 -22.5t-69 -33q-205 -108 -434 -108q-126 1 -234 63t-172 169 t-65 235q0 111 54.5 324.5t54.5 322.5q0 59 -15.5 111t-55.5 91t-99 40q-51 0 -80 -33q-6 -4 -14 -16q-9 6 -17 18q-14 20 -14 51zM575 1415l213 242q15 18 39 18t39 -18l215 -242h-41l-213 146l-211 -146h-41z" />
<glyph unicode="&#xdc;" horiz-adv-x="1591" d="M123 1202q0 64 52 104t118 40q72 -1 126 -44t79.5 -106t25.5 -133q1 -88 -25.5 -193.5t-58.5 -188t-58.5 -188t-25.5 -192.5q2 -175 120.5 -303t291.5 -131q156 -3 293 88q11 7 46 32t60 41t50 27q0 19 1 56t1 55q9 500 0 1001q-2 51 -31.5 90t-77.5 39h-25 q-37 0 -45 -22q14 -2 24.5 -13t10.5 -26t-12 -27t-27 -12q-22 0 -35.5 15.5t-13.5 35.5q0 38 30 61t68 23h404v-35h-121q-13 -592 -4 -1130q2 -52 31 -91.5t78 -39.5h16v-35h-64q-36 0 -75.5 -10.5t-66.5 -22.5t-69 -33q-205 -108 -434 -108q-126 1 -234 63t-172 169 t-65 235q0 111 54.5 324.5t54.5 322.5q0 59 -15.5 111t-55.5 91t-99 40q-51 0 -80 -33q-6 -4 -14 -16q-9 6 -17 18q-14 20 -14 51zM508 1548q0 44 31 75.5t75 31.5q43 0 74 -31.5t31 -75.5q0 -43 -31 -73.5t-74 -30.5q-44 0 -75 30.5t-31 73.5zM948 1548q0 44 31.5 75.5 t75.5 31.5q43 0 73.5 -31.5t30.5 -75.5q0 -43 -30.5 -73.5t-73.5 -30.5q-44 0 -75.5 30.5t-31.5 73.5z" />
<glyph unicode="&#xdd;" horiz-adv-x="1812" d="M84 279q2 78 51.5 137.5t126.5 60.5q64 0 110.5 -42.5t45.5 -104.5q0 -54 -43 -76q-10 27 -35 44t-55 19q-42 0 -72.5 -29.5t-30.5 -70.5q0 -146 166 -254q151 -98 377 -98q364 0 551 184q106 106 145 230q-89 -43 -217 -43q-170 -2 -310 87.5t-194 245.5q-28 80 -60 233 t-46 204q-84 305 -281 305q-66 0 -86 -31q14 -2 24.5 -13t10.5 -26q0 -17 -12 -28t-29 -11q-21 0 -35 15.5t-14 37.5q0 38 39 62q54 31 113 31q140 0 248.5 -89t156.5 -227q22 -61 40.5 -132.5t38 -158.5t32.5 -135q36 -143 138.5 -239.5t242.5 -96.5q124 0 213 52 q6 27 10 86q3 348 -4 761q-2 51 -31.5 89t-77.5 38h-16v37h395v-37h-121q-10 -354 -6 -888q1 -124 -63.5 -233.5t-173.5 -188.5q-203 -151 -568 -158q-278 -3 -459 102q-105 61 -171.5 151t-63.5 198zM877 1397l243 198q57 45 86 45q18 0 32.5 -12.5t14.5 -30.5 q0 -24 -14.5 -40t-58.5 -37l-265 -123h-38z" />
<glyph unicode="&#xdf;" horiz-adv-x="1347" d="M51 0v41h139q9 619 7 963q-1 127 69.5 228.5t182.5 154.5t239 53q62 0 122 -12.5t115.5 -39t97.5 -64.5t67.5 -93.5t25.5 -120.5q0 -101 -58 -179t-151 -118q166 -28 275.5 -145t109.5 -271q0 -123 -68.5 -221t-176.5 -149.5t-230 -51.5q-169 0 -276 76q-51 35 -81.5 88 t-29.5 113q0 54 34.5 94.5t86.5 40.5q42 0 74 -28t32 -70q0 -34 -26 -47q-15 34 -62 34q-28 0 -47.5 -18.5t-19.5 -46.5q-3 -72 67 -131q76 -62 197 -62q155 0 263 112t108 267t-105 265.5t-256 115.5v45q87 31 141 106t54 169q0 118 -75.5 207.5t-190.5 89.5 q-102 1 -183 -55t-124 -145t-44 -191q-3 -417 4 -820q0 -56 33.5 -99.5t89.5 -43.5h19v-41h-449z" />
<glyph unicode="&#xe0;" horiz-adv-x="1550" d="M51 0v37h137l287 559q-51 17 -96 14q-61 -2 -105.5 -40.5t-44.5 -98.5q0 -4 1 -13t1 -12l-28 -8q-2 8 -2 31q1 89 64.5 151t152.5 62q32 0 90 -16l285 555l20 -47q332 -660 528 -1031q56 -106 140 -106h18v-37h-401v37h131l-195 389q-53 -45 -135 -45q-52 0 -107 23.5 t-94.5 53t-93.5 67.5t-94 57l-188 -375q-15 -27 -15 -55q0 -46 29.5 -80.5t77.5 -34.5h18v-37h-381zM473 1466q0 22 14 37t37 15q19 0 33 -8.5t39 -34.5l223 -230h-35l-219 129q-53 32 -72.5 51.5t-19.5 40.5zM547 649q42 -20 98 -60.5t97.5 -72.5t99 -55.5t112.5 -20.5 q36 3 66 15l-287 563z" />
<glyph unicode="&#xe1;" horiz-adv-x="1550" d="M51 0v37h137l287 559q-51 17 -96 14q-61 -2 -105.5 -40.5t-44.5 -98.5q0 -4 1 -13t1 -12l-28 -8q-2 8 -2 31q1 89 64.5 151t152.5 62q32 0 90 -16l285 555l20 -47q332 -660 528 -1031q56 -106 140 -106h18v-37h-401v37h131l-195 389q-53 -45 -135 -45q-52 0 -107 23.5 t-94.5 53t-93.5 67.5t-94 57l-188 -375q-15 -27 -15 -55q0 -46 29.5 -80.5t77.5 -34.5h18v-37h-381zM547 649q42 -20 98 -60.5t97.5 -72.5t99 -55.5t112.5 -20.5q36 3 66 15l-287 563zM766 1264l221 231q39 41 72 41q24 0 39.5 -13t15.5 -36q0 -21 -19.5 -40t-72.5 -50 l-221 -133h-35z" />
<glyph unicode="&#xe2;" horiz-adv-x="1550" d="M51 0v37h137l287 559q-51 17 -96 14q-61 -2 -105.5 -40.5t-44.5 -98.5q0 -4 1 -13t1 -12l-28 -8q-2 8 -2 31q1 89 64.5 151t152.5 62q32 0 90 -16l285 555l20 -47q332 -660 528 -1031q56 -106 140 -106h18v-37h-401v37h131l-195 389q-53 -45 -135 -45q-52 0 -107 23.5 t-94.5 53t-93.5 67.5t-94 57l-188 -375q-15 -27 -15 -55q0 -46 29.5 -80.5t77.5 -34.5h18v-37h-381zM547 649q42 -20 98 -60.5t97.5 -72.5t99 -55.5t112.5 -20.5q36 3 66 15l-287 563zM563 1241l189 213q13 16 34 16q19 0 35 -16l189 -213h-37l-187 129l-186 -129h-37z" />
<glyph unicode="&#xe3;" horiz-adv-x="1550" d="M51 0v37h137l287 559q-51 17 -96 14q-61 -2 -105.5 -40.5t-44.5 -98.5q0 -4 1 -13t1 -12l-28 -8q-2 8 -2 31q1 89 64.5 151t152.5 62q32 0 90 -16l285 555l20 -47q332 -660 528 -1031q56 -106 140 -106h18v-37h-401v37h131l-195 389q-53 -45 -135 -45q-52 0 -107 23.5 t-94.5 53t-93.5 67.5t-94 57l-188 -375q-15 -27 -15 -55q0 -46 29.5 -80.5t77.5 -34.5h18v-37h-381zM516 1268q15 64 55 107.5t101 43.5q42 0 120 -31.5t121 -31.5q31 0 56.5 18.5t34.5 48.5h30q-15 -64 -55.5 -107.5t-99.5 -43.5q-43 0 -121.5 32.5t-120.5 32.5 q-32 0 -57.5 -19t-32.5 -50h-31zM547 649q42 -20 98 -60.5t97.5 -72.5t99 -55.5t112.5 -20.5q36 3 66 15l-287 563z" />
<glyph unicode="&#xe4;" horiz-adv-x="1550" d="M51 0v37h137l287 559q-51 17 -96 14q-61 -2 -105.5 -40.5t-44.5 -98.5q0 -4 1 -13t1 -12l-28 -8q-2 8 -2 31q1 89 64.5 151t152.5 62q32 0 90 -16l285 555l20 -47q332 -660 528 -1031q56 -106 140 -106h18v-37h-401v37h131l-195 389q-53 -45 -135 -45q-52 0 -107 23.5 t-94.5 53t-93.5 67.5t-94 57l-188 -375q-15 -27 -15 -55q0 -46 29.5 -80.5t77.5 -34.5h18v-37h-381zM506 1356q0 40 27 67t67 27q37 0 64.5 -27.5t27.5 -66.5q0 -37 -27.5 -63.5t-64.5 -26.5q-39 0 -66.5 26.5t-27.5 63.5zM547 649q42 -20 98 -60.5t97.5 -72.5t99 -55.5 t112.5 -20.5q36 3 66 15l-287 563zM893 1356q0 39 27.5 66.5t66.5 27.5q38 0 65 -27t27 -67q0 -37 -27 -63.5t-65 -26.5t-66 26.5t-28 63.5z" />
<glyph unicode="&#xe5;" horiz-adv-x="1550" d="M51 0v37h137l287 559q-51 17 -96 14q-61 -2 -105.5 -40.5t-44.5 -98.5q0 -4 1 -13t1 -12l-28 -8q-2 8 -2 31q1 89 64.5 151t152.5 62q32 0 90 -16l285 555l20 -47q332 -660 528 -1031q56 -106 140 -106h18v-37h-401v37h131l-195 389q-53 -45 -135 -45q-52 0 -107 23.5 t-94.5 53t-93.5 67.5t-94 57l-188 -375q-15 -27 -15 -55q0 -46 29.5 -80.5t77.5 -34.5h18v-37h-381zM547 649q42 -20 98 -60.5t97.5 -72.5t99 -55.5t112.5 -20.5q36 3 66 15l-287 563zM655 1395q0 55 40 94t96 39q54 0 92.5 -39t38.5 -94t-38.5 -94t-92.5 -39q-56 0 -96 39 t-40 94zM711 1395q0 -33 23.5 -56.5t56.5 -23.5q32 0 54.5 23.5t22.5 56.5t-22.5 56.5t-54.5 23.5q-33 0 -56.5 -23.5t-23.5 -56.5z" />
<glyph unicode="&#xe6;" horiz-adv-x="1994" d="M72 0v35h114l314 518q-19 14 -29 16q-80 41 -131 41q-59 0 -104.5 -39.5t-45.5 -97.5q0 -15 3 -27l-29 -8q-4 20 -4 31q2 89 66 151.5t153 61.5q54 0 129 -33q28 -14 37 -20l307 508h-55v37h839v38h37v-225h-37v29q0 56 -42.5 88.5t-100.5 32.5h-397q-6 -191 -6 -381 q59 47 139 47q63 0 178 -45t176 -45q50 0 86.5 26.5t36.5 73.5q0 21 -12 31l10 12q47 -44 47 -98q-1 -65 -50.5 -104.5t-115.5 -39.5q-47 0 -101 20.5t-95.5 45.5t-96 45.5t-102.5 19.5q-48 0 -100 -22q-3 -244 4 -557q2 -159 278 -154q194 0 316 74q120 75 118 168 q-2 41 -30.5 69.5t-69.5 28.5q-48 0 -78 -35q-20 20 -20 58q3 57 46 92t101 35q73 -1 120.5 -57t47.5 -132q0 -88 -56 -157t-143 -113q-135 -66 -331 -66q-86 0 -232 23h-338v35h123l4 352q-39 -16 -90 -16q-44 0 -91 17.5t-76 36t-82.5 57t-75.5 53.5l-181 -299 q-28 -47 -28 -84q0 -46 30 -81.5t76 -35.5h19v-35h-379zM582 608q20 -14 60 -44.5t66 -47.5t62 -37.5t72 -30t73 -8.5q17 0 35 6q3 252 -4 564q0 75 -55 112z" />
<glyph unicode="&#xe7;" horiz-adv-x="1300" d="M82 582q0 129 54 244t143.5 195t209 126.5t248.5 46.5q224 0 359 -121q108 -97 108 -231q-2 -71 -47 -123.5t-113 -52.5q-56 0 -96.5 36.5t-40.5 92.5q0 35 33 61q24 -47 82 -47q35 0 61 24.5t27 61.5q3 72 -63 145q-109 115 -285 115q-150 1 -271 -80.5t-185 -212 t-64 -278.5q0 -145 58.5 -270.5t172 -206t258.5 -84.5q142 -3 260.5 70.5t188.5 201.5q5 7 12.5 24.5t9.5 20.5l37 -21q-1 -2 -4.5 -11.5t-7.5 -14.5q-72 -143 -205.5 -229t-290.5 -87l-24 -55q9 2 28 2q39 0 70 -24t31 -62q0 -56 -47.5 -85t-108.5 -29q-49 0 -100 28l18 41 q41 -26 80 -26q32 0 56 17t24 46q0 24 -19 39.5t-43 15.5q-18 0 -37 -8l-12 10l45 90q-126 5 -239 54.5t-194.5 130t-129 190t-47.5 230.5z" />
<glyph unicode="&#xe8;" horiz-adv-x="1286" d="M113 0v35h123q8 456 2 973q0 50 -30 89.5t-77 39.5h-18v37h815v38h35v-225h-35v29q0 54 -44 87.5t-100 33.5h-397q-8 -258 -8 -383q61 49 141 49q63 0 178 -45.5t176 -46.5q49 0 86 27.5t37 72.5q0 19 -14 33l12 12q47 -47 47 -100q-1 -65 -50.5 -103.5t-117.5 -38.5 q-47 0 -101 20.5t-95.5 45t-95.5 45t-101 20.5q-53 0 -102 -24q0 -276 6 -555q2 -159 277 -154q196 0 317 72q121 78 119 168q-1 41 -31 69.5t-70 30.5q-48 0 -75 -37q-25 25 -25 58q3 57 47.5 93t102.5 36q73 -1 120 -57.5t47 -131.5q0 -88 -56 -157t-144 -113 q-132 -66 -332 -66q-106 0 -231 23h-338zM387 1442q0 22 14 36.5t37 14.5q19 0 33.5 -9t40.5 -36l221 -227h-35l-219 129q-53 32 -72.5 51.5t-19.5 40.5z" />
<glyph unicode="&#xe9;" horiz-adv-x="1286" d="M113 0v35h123q8 456 2 973q0 50 -30 89.5t-77 39.5h-18v37h815v38h35v-225h-35v29q0 54 -44 87.5t-100 33.5h-397q-8 -258 -8 -383q61 49 141 49q63 0 178 -45.5t176 -46.5q49 0 86 27.5t37 72.5q0 19 -14 33l12 12q47 -47 47 -100q-1 -65 -50.5 -103.5t-117.5 -38.5 q-47 0 -101 20.5t-95.5 45t-95.5 45t-101 20.5q-53 0 -102 -24q0 -276 6 -555q2 -159 277 -154q196 0 317 72q121 78 119 168q-1 41 -31 69.5t-70 30.5q-48 0 -75 -37q-25 25 -25 58q3 57 47.5 93t102.5 36q73 -1 120 -57.5t47 -131.5q0 -88 -56 -157t-144 -113 q-132 -66 -332 -66q-106 0 -231 23h-338zM481 1225l221 231q39 41 72 41q24 0 39.5 -13.5t15.5 -35.5q0 -21 -19 -40t-73 -52l-221 -131h-35z" />
<glyph unicode="&#xea;" horiz-adv-x="1286" d="M113 0v35h123q8 456 2 973q0 50 -30 89.5t-77 39.5h-18v37h815v38h35v-225h-35v29q0 54 -44 87.5t-100 33.5h-397q-8 -258 -8 -383q61 49 141 49q63 0 178 -45.5t176 -46.5q49 0 86 27.5t37 72.5q0 19 -14 33l12 12q47 -47 47 -100q-1 -65 -50.5 -103.5t-117.5 -38.5 q-47 0 -101 20.5t-95.5 45t-95.5 45t-101 20.5q-53 0 -102 -24q0 -276 6 -555q2 -159 277 -154q196 0 317 72q121 78 119 168q-1 41 -31 69.5t-70 30.5q-48 0 -75 -37q-25 25 -25 58q3 57 47.5 93t102.5 36q73 -1 120 -57.5t47 -131.5q0 -88 -56 -157t-144 -113 q-132 -66 -332 -66q-106 0 -231 23h-338zM375 1235l188 213q11 16 35 16q22 0 35 -16l188 -213h-37l-186 129l-186 -129h-37z" />
<glyph unicode="&#xeb;" horiz-adv-x="1286" d="M113 0v35h123q8 456 2 973q0 50 -30 89.5t-77 39.5h-18v37h815v38h35v-225h-35v29q0 54 -44 87.5t-100 33.5h-397q-8 -258 -8 -383q61 49 141 49q63 0 178 -45.5t176 -46.5q49 0 86 27.5t37 72.5q0 19 -14 33l12 12q47 -47 47 -100q-1 -65 -50.5 -103.5t-117.5 -38.5 q-47 0 -101 20.5t-95.5 45t-95.5 45t-101 20.5q-53 0 -102 -24q0 -276 6 -555q2 -159 277 -154q196 0 317 72q121 78 119 168q-1 41 -31 69.5t-70 30.5q-48 0 -75 -37q-25 25 -25 58q3 57 47.5 93t102.5 36q73 -1 120 -57.5t47 -131.5q0 -88 -56 -157t-144 -113 q-132 -66 -332 -66q-106 0 -231 23h-338zM350 1341q0 40 27 67.5t65 27.5t65.5 -27.5t27.5 -67.5q0 -37 -27.5 -64.5t-65.5 -27.5t-65 27.5t-27 64.5zM737 1341q0 40 27 67.5t67 27.5q38 0 65.5 -27.5t27.5 -67.5q0 -37 -27.5 -64.5t-65.5 -27.5q-39 0 -66.5 27.5 t-27.5 64.5z" />
<glyph unicode="&#xec;" horiz-adv-x="622" d="M113 0v37h125q9 695 0 973q-2 51 -31 89t-76 38h-18v37h397v-37h-123q-11 -462 -2 -969q0 -53 29 -92t80 -39h16v-37h-397zM115 1440q0 22 14 36.5t37 14.5q19 0 33.5 -8.5t40.5 -34.5l221 -229h-35l-219 129q-53 32 -72.5 51.5t-19.5 40.5z" />
<glyph unicode="&#xed;" horiz-adv-x="622" d="M113 0v37h125q9 695 0 973q-2 51 -31 89t-76 38h-18v37h397v-37h-123q-11 -462 -2 -969q0 -53 29 -92t80 -39h16v-37h-397zM158 1219l221 229q41 43 72 43q24 0 39.5 -13.5t15.5 -35.5t-19.5 -41.5t-72.5 -50.5l-221 -131h-35z" />
<glyph unicode="&#xee;" horiz-adv-x="669" d="M113 1260l186 213q16 16 35 16t35 -16l188 -213h-35l-188 126l-187 -126h-34zM141 0v37h125q9 695 0 973q-2 51 -30.5 89t-75.5 38h-19v37h398v-37h-123q-11 -462 -2 -969q0 -54 28.5 -92.5t79.5 -38.5h17v-37h-398z" />
<glyph unicode="&#xef;" horiz-adv-x="622" d="M45 1348q0 40 27 67t65 27t65 -27t27 -67q0 -38 -27 -65.5t-65 -27.5t-65 27.5t-27 65.5zM113 0v37h125q9 695 0 973q-2 51 -31 89t-76 38h-18v37h397v-37h-123q-11 -462 -2 -969q0 -53 29 -92t80 -39h16v-37h-397zM391 1348q0 40 27 67t67 27q39 0 66 -27t27 -67 q0 -38 -27.5 -65.5t-65.5 -27.5q-39 0 -66.5 27.5t-27.5 65.5z" />
<glyph unicode="&#xf0;" horiz-adv-x="1404" d="M102 0v35h123q1 86 3 259t3 259h-129l29 63h100q0 263 -6 392q-2 52 -30 90.5t-76 38.5h-17v34h299q98 23 220 23q255 0 434 -121q124 -87 196 -215.5t72 -282.5q0 -139 -63.5 -258.5t-172.5 -201.5q-180 -138 -415 -138q-119 0 -260 23h-310zM369 553q0 -129 4 -387 q1 -49 27 -82t70.5 -47.5t85 -19.5t91.5 -5q109 0 204 45.5t165 126.5q69 78 108 182t39 212q0 123 -47.5 235t-132.5 195q-154 151 -387 151q-95 0 -219 -31q-4 -172 -8 -512h379l-27 -63h-352z" />
<glyph unicode="&#xf1;" horiz-adv-x="1404" d="M102 0v37h125v971q0 50 -28.5 89.5t-77.5 39.5h-19v37h289v-37h-112q17 -147 155 -258q50 -39 119.5 -67.5t136.5 -47.5t134 -39.5t131 -55t110 -83.5q69 -71 92 -185v607q0 50 -29 89.5t-77 39.5h-17v37h289v-37h-125v-969q0 -53 29 -92t78 -39h18v-37h-166v156 q0 89 -43 168.5t-117 134.5q-61 46 -153 80.5t-169.5 53.5t-164 59.5t-141.5 99.5q-77 83 -101 221v-805q0 -53 28.5 -92t78.5 -39h16v-37h-289zM469 1276q15 64 56 107.5t100 43.5q42 0 120.5 -32.5t120.5 -32.5q32 0 57.5 19t32.5 51h31q-15 -64 -55.5 -108t-100.5 -44 q-42 0 -120 31.5t-121 31.5q-31 0 -56 -18.5t-34 -48.5h-31z" />
<glyph unicode="&#xf2;" horiz-adv-x="1429" d="M85.5 493q-11.5 121 23.5 233t114.5 212t192.5 166q152 88 320.5 93t311.5 -70.5t224 -215.5q61 -105 72.5 -226t-23.5 -233.5t-115 -213t-194 -166.5q-151 -87 -319 -92t-311 70.5t-224 215.5q-61 106 -72.5 227zM210 618q7 -143 83 -274q57 -97 141.5 -166t178 -100.5 t193 -24.5t185.5 56q115 66 175.5 186.5t53.5 264t-83 274.5q-56 97 -140.5 166.5t-178.5 101t-194 24.5t-186 -57q-115 -67 -175 -187.5t-53 -263.5zM535 1442q0 22 14 36.5t37 14.5q19 0 33 -8.5t40 -36.5l222 -227h-35l-219 129q-53 32 -72.5 51.5t-19.5 40.5z" />
<glyph unicode="&#xf3;" horiz-adv-x="1429" d="M85.5 493q-11.5 121 23.5 233t114.5 212t192.5 166q152 88 320.5 93t311.5 -70.5t224 -215.5q61 -105 72.5 -226t-23.5 -233.5t-115 -213t-194 -166.5q-151 -87 -319 -92t-311 70.5t-224 215.5q-61 106 -72.5 227zM210 618q7 -143 83 -274q57 -97 141.5 -166t178 -100.5 t193 -24.5t185.5 56q115 66 175.5 186.5t53.5 264t-83 274.5q-56 97 -140.5 166.5t-178.5 101t-194 24.5t-186 -57q-115 -67 -175 -187.5t-53 -263.5zM625 1221l221 229q41 43 72 43q24 0 39.5 -13.5t15.5 -35.5t-19.5 -41.5t-72.5 -50.5l-222 -131h-34z" />
<glyph unicode="&#xf4;" horiz-adv-x="1429" d="M85.5 493q-11.5 121 23.5 233t114.5 212t192.5 166q152 88 320.5 93t311.5 -70.5t224 -215.5q61 -105 72.5 -226t-23.5 -233.5t-115 -213t-194 -166.5q-151 -87 -319 -92t-311 70.5t-224 215.5q-61 106 -72.5 227zM210 618q7 -143 83 -274q57 -97 141.5 -166t178 -100.5 t193 -24.5t185.5 56q115 66 175.5 186.5t53.5 264t-83 274.5q-56 97 -140.5 166.5t-178.5 101t-194 24.5t-186 -57q-115 -67 -175 -187.5t-53 -263.5zM532 1235l187 213q14 14 35 14q20 0 34 -14l189 -213h-35l-188 127l-187 -127h-35z" />
<glyph unicode="&#xf5;" horiz-adv-x="1429" d="M85.5 493q-11.5 121 23.5 233t114.5 212t192.5 166q152 88 320.5 93t311.5 -70.5t224 -215.5q61 -105 72.5 -226t-23.5 -233.5t-115 -213t-194 -166.5q-151 -87 -319 -92t-311 70.5t-224 215.5q-61 106 -72.5 227zM210 618q7 -143 83 -274q57 -97 141.5 -166t178 -100.5 t193 -24.5t185.5 56q115 66 175.5 186.5t53.5 264t-83 274.5q-56 97 -140.5 166.5t-178.5 101t-194 24.5t-186 -57q-115 -67 -175 -187.5t-53 -263.5zM455 1274q15 64 55 107.5t100 43.5q42 0 120.5 -32.5t121.5 -32.5q32 0 57.5 19t32.5 51h31q-15 -64 -56 -108t-100 -44 q-42 0 -121 31.5t-121 31.5q-31 0 -57 -18.5t-33 -48.5h-30z" />
<glyph unicode="&#xf6;" horiz-adv-x="1429" d="M85.5 493q-11.5 121 23.5 233t114.5 212t192.5 166q152 88 320.5 93t311.5 -70.5t224 -215.5q61 -105 72.5 -226t-23.5 -233.5t-115 -213t-194 -166.5q-151 -87 -319 -92t-311 70.5t-224 215.5q-61 106 -72.5 227zM210 618q7 -143 83 -274q57 -97 141.5 -166t178 -100.5 t193 -24.5t185.5 56q115 66 175.5 186.5t53.5 264t-83 274.5q-56 97 -140.5 166.5t-178.5 101t-194 24.5t-186 -57q-115 -67 -175 -187.5t-53 -263.5zM432 1343q0 39 28 67t66 28t65 -27.5t27 -67.5q0 -37 -27 -64.5t-65 -27.5t-66 27.5t-28 64.5zM821 1343q0 40 27 67.5 t67 27.5q37 0 65 -28t28 -67q0 -37 -28 -64.5t-65 -27.5q-39 0 -66.5 27.5t-27.5 64.5z" />
<glyph unicode="&#xf7;" horiz-adv-x="784" d="M8 662v79h766v-79h-766zM324 397q0 28 19.5 48t47.5 20t47 -20t19 -48t-19 -46.5t-47 -18.5t-47.5 18.5t-19.5 46.5zM324 1006q0 28 19.5 46.5t47.5 18.5t47 -18.5t19 -46.5t-19 -48t-47 -20t-47.5 20t-19.5 48z" />
<glyph unicode="&#xf8;" horiz-adv-x="1478" d="M82 586q0 165 87.5 305t238.5 221.5t329 81.5q211 0 379 -111l162 191h76l-191 -223q110 -87 172 -207.5t62 -257.5q0 -165 -89 -305.5t-241 -222t-330 -81.5q-211 0 -379 111l-159 -190h-74l186 225q-108 86 -168.5 206.5t-60.5 256.5zM240 586q0 -222 135 -387l686 817 q-138 135 -324 135q-135 0 -249.5 -75.5t-181 -205.5t-66.5 -284zM416 156q136 -133 321 -133q136 0 250.5 75.5t181 205t66.5 282.5q0 229 -135 389z" />
<glyph unicode="&#xf9;" horiz-adv-x="1275" d="M92 1139v35h395v-35h-122q-7 -303 -7 -779q0 -139 101 -237t243 -98q137 0 237.5 92.5t100.5 228.5v662q0 51 -28.5 91t-77.5 40h-14v35h284v-35h-123v-793q0 -110 -63.5 -196t-161.5 -129.5t-207 -43.5q-111 0 -209.5 46.5t-161 136t-59.5 200.5q5 273 -2 650 q-2 51 -31 90t-77 39h-17zM369 1442q0 22 14 36.5t37 14.5q19 0 33.5 -9t40.5 -36l221 -227h-35l-219 129q-53 32 -72.5 51.5t-19.5 40.5z" />
<glyph unicode="&#xfa;" horiz-adv-x="1275" d="M92 1139v35h395v-35h-122q-10 -423 -7 -779q1 -139 102 -237t242 -98q137 0 237.5 92.5t100.5 228.5v662q0 51 -28.5 91t-77.5 40h-14v35h284v-35h-123v-793q0 -110 -63.5 -196t-161.5 -129.5t-207 -43.5q-111 0 -209.5 46.5t-161 136t-59.5 200.5q5 273 -2 650 q-2 51 -31 90t-77 39h-17zM555 1217l223 231q25 25 39.5 33t32.5 8q23 0 38 -13.5t15 -35.5t-19 -42t-71 -50l-221 -131h-37z" />
<glyph unicode="&#xfb;" horiz-adv-x="1275" d="M92 1139v35h395v-35h-122q-10 -423 -7 -779q1 -139 102 -237t242 -98q137 0 237.5 92.5t100.5 228.5v662q0 51 -28.5 91t-77.5 40h-14v35h284v-35h-123v-793q0 -110 -63.5 -196t-161.5 -129.5t-207 -43.5q-111 0 -209.5 46.5t-161 136t-59.5 200.5q5 273 -2 650 q-2 51 -31 90t-77 39h-17zM416 1235l186 213q14 14 35 14t35 -14l188 -213h-35l-188 127l-186 -127h-35z" />
<glyph unicode="&#xfc;" horiz-adv-x="1275" d="M92 1139v35h395v-35h-122q-10 -423 -7 -779q1 -139 102 -237t242 -98q137 0 237.5 92.5t100.5 228.5v662q0 51 -28.5 91t-77.5 40h-14v35h284v-35h-123v-793q0 -110 -63.5 -196t-161.5 -129.5t-207 -43.5q-111 0 -209.5 46.5t-161 136t-59.5 200.5q5 273 -2 650 q-2 51 -31 90t-77 39h-17zM371 1356q0 38 27 65t67 27q37 0 63.5 -27t26.5 -65t-26.5 -65t-63.5 -27q-40 0 -67 27t-27 65zM758 1356q0 38 27 65t67 27q38 0 65 -27t27 -65t-27 -65t-65 -27q-40 0 -67 27t-27 65z" />
<glyph unicode="&#xfd;" horiz-adv-x="1193" d="M51 1139v35h385v-35h-123q157 -261 328 -541l236 379q14 25 14 53q0 42 -32.5 75.5t-78.5 33.5h-16v35h379v-35h-123l-352 -580q0 -133 4 -391q0 -53 28.5 -92t77.5 -39h17v-37h-396v37h123q6 240 6 477q-223 367 -340 553q-47 72 -120 72h-17zM489 1212l222 232 q41 41 71 41q24 0 40 -14t16 -35t-19.5 -40.5t-73.5 -52.5l-221 -131h-35z" />
<glyph unicode="&#xff;" horiz-adv-x="1193" d="M51 1139v35h385v-35h-123q153 -259 328 -541l236 379q14 25 14 53q0 42 -32.5 75.5t-78.5 33.5h-18v35h381v-35h-123l-354 -580q0 -133 4 -391q2 -53 31 -93t77 -40h17v-35h-396v35h123q6 240 6 479q-223 367 -340 553q-47 72 -120 72h-17zM317 1348q0 40 27.5 67 t65.5 27t65 -27t27 -67q0 -38 -27 -65.5t-65 -27.5t-65.5 27.5t-27.5 65.5zM705 1348q0 40 27 67t67 27q37 0 64.5 -27.5t27.5 -66.5q0 -38 -27.5 -65.5t-64.5 -27.5q-39 0 -66.5 27.5t-27.5 65.5z" />
<glyph unicode="&#x152;" horiz-adv-x="3241" d="M97 484.5q-16 151.5 25 291t137.5 263.5t234.5 204q184 107 390.5 110t383.5 -94.5t280 -273.5q76 -132 91.5 -283t-25 -291t-137 -264t-234.5 -204q-184 -106 -390.5 -109t-383.5 94t-279 273q-77 132 -93 283.5zM232 639q11 -183 108 -350q73 -126 181 -216.5 t226.5 -132.5t244.5 -34.5t233 69.5q144 84 218 237t62.5 336t-108.5 351q-73 125 -180.5 215t-226 131.5t-244.5 34t-234 -69.5q-143 -83 -217 -235.5t-63 -335.5zM1769 592q0 160 67.5 303t179 242t260 155.5t307.5 53.5q200 -3 376 -107q102 -62 165.5 -151.5 t62.5 -196.5q-2 -79 -53 -138.5t-128 -60.5q-63 -2 -109 41t-46 107q0 51 43 75q11 -28 35.5 -45.5t56.5 -17.5q42 0 72 28.5t30 71.5q0 73 -43 136t-112 110q-164 112 -377 109q-136 -1 -252 -62.5t-192.5 -161.5t-120 -226t-45.5 -259q80 61 178 61q65 0 144 -28 t157.5 -56.5t142.5 -29.5q60 0 105 28t45 82q0 15 -11.5 30t-23.5 17q2 -4 2 -8q0 -17 -12 -28t-29 -11t-28 12t-11 29q0 24 18 38t41 14q54 0 84.5 -44.5t30.5 -101.5q-1 -82 -63 -129t-146 -47q-59 -1 -127 24.5t-120 56t-120 56t-128 25.5q-65 0 -129 -31 q5 -131 49.5 -253.5t121 -219.5t191 -156.5t248.5 -60.5q215 -3 377 108q155 105 155 246q0 41 -30.5 71t-71.5 30q-32 0 -56.5 -18t-35.5 -46q-43 24 -43 76q0 62 46 104.5t109 42.5q77 -1 128 -60.5t53 -137.5q1 -107 -62.5 -197t-165.5 -152q-174 -103 -376 -106 q-161 -3 -310 54t-260 157.5t-177.5 245t-66.5 307.5z" />
<glyph unicode="&#x153;" horiz-adv-x="1994" d="M87 499.5q-11 121.5 24 234.5t114.5 213.5t192.5 166.5q129 74 271.5 89t268.5 -29h676v40h35v-227h-35v31q0 54 -44 87.5t-101 33.5h-397q-1 -64 -3.5 -192t-3.5 -191q62 47 140 47q63 0 178 -45t178 -45q48 0 85.5 26.5t37.5 73.5q0 18 -12 33l10 10q47 -41 47 -98 q-1 -66 -50 -104t-116 -38q-48 0 -102.5 20.5t-96 45t-95.5 44.5t-101 19q-60 0 -103 -22q0 -325 5 -557q2 -159 278 -154q199 0 318 72q120 77 118 170q-1 40 -30.5 68t-69.5 30q-48 0 -78 -35q-23 23 -20 58q1 56 45 91.5t102 35.5q73 -1 120.5 -57.5t47.5 -131.5 q0 -89 -56.5 -159t-144.5 -111q-139 -69 -331 -66q-104 0 -232 23h-352q-195 -39 -373.5 34t-273.5 238q-60 106 -71 227.5zM211 625.5q7 -143.5 82 -273.5q107 -184 292.5 -258.5t356.5 -3.5q9 461 0 922q0 23 -6 41q-118 73 -248 81t-248 -57q-115 -66 -175.5 -187 t-53.5 -264.5z" />
<glyph unicode="&#x178;" horiz-adv-x="1646" d="M43 279q2 143 95 249.5t235 106.5q86 0 150.5 -53.5t64.5 -137.5q0 -56 -36 -97t-91 -40q-45 0 -64 37q25 9 39.5 30.5t14.5 47.5q1 49 -37.5 78.5t-91.5 29.5q-103 0 -169.5 -75t-68.5 -181q-1 -91 39 -168.5t106 -129t150 -80.5t174 -29q199 0 349.5 133t199.5 332 q9 34 20 92q-54 -14 -94 -14q-92 -2 -174 20.5t-151.5 76.5t-106.5 134q-23 48 -98 219.5t-109 231.5q-24 43 -40.5 69t-44 62.5t-57 54.5t-59.5 18h-16q-30 0 -47 -22q15 -1 25 -12.5t10 -26.5q0 -16 -11 -27.5t-28 -11.5q-22 0 -34.5 15.5t-12.5 37.5q0 37 29.5 59.5 t68.5 22.5h403v-35h-135l287 -626q47 -103 125.5 -164t183.5 -60q33 0 92 19q8 45 34.5 260t56.5 326q45 173 165 268q92 70 242 76v-29q-111 -16 -180 -109q-77 -103 -107 -253q-17 -90 -32 -233t-34 -267t-54 -225q-47 -139 -150.5 -243t-238.5 -156.5t-283 -51.5 q-130 0 -245 54.5t-188 159.5t-71 237zM608 1550q0 44 31.5 75.5t75.5 31.5q43 0 73.5 -31.5t30.5 -75.5q0 -43 -30.5 -73.5t-73.5 -30.5q-44 0 -75.5 30.5t-31.5 73.5zM1049 1550q0 44 31 75.5t75 31.5q43 0 74 -31.5t31 -75.5q0 -43 -31 -73.5t-74 -30.5q-44 0 -75 30.5 t-31 73.5z" />
<glyph unicode="&#x2c6;" horiz-adv-x="587" d="M41 1427l213 242q16 19 39 19t39 -19l215 -242h-41l-213 146l-211 -146h-41z" />
<glyph unicode="&#x2dc;" horiz-adv-x="669" d="M41 1493q16 72 62 122t114 50q48 0 137.5 -37t137.5 -37q36 0 64.5 21.5t37.5 56.5h35q-16 -72 -62 -122t-114 -50q-48 0 -137.5 37t-137.5 37q-36 0 -64.5 -21.5t-37.5 -56.5h-35z" />
<glyph unicode="&#x2000;" horiz-adv-x="850" />
<glyph unicode="&#x2001;" horiz-adv-x="1700" />
<glyph unicode="&#x2002;" horiz-adv-x="850" />
<glyph unicode="&#x2003;" horiz-adv-x="1700" />
<glyph unicode="&#x2004;" horiz-adv-x="566" />
<glyph unicode="&#x2005;" horiz-adv-x="425" />
<glyph unicode="&#x2006;" horiz-adv-x="283" />
<glyph unicode="&#x2007;" horiz-adv-x="283" />
<glyph unicode="&#x2008;" horiz-adv-x="212" />
<glyph unicode="&#x2009;" horiz-adv-x="340" />
<glyph unicode="&#x200a;" horiz-adv-x="94" />
<glyph unicode="&#x2010;" horiz-adv-x="849" d="M154 621v94h487v-94h-487z" />
<glyph unicode="&#x2011;" horiz-adv-x="849" d="M154 621v94h487v-94h-487z" />
<glyph unicode="&#x2012;" horiz-adv-x="849" d="M154 621v94h487v-94h-487z" />
<glyph unicode="&#x2013;" horiz-adv-x="1386" d="M154 621v94h1024v-94h-1024z" />
<glyph unicode="&#x2014;" horiz-adv-x="2410" d="M154 621v94h2048v-94h-2048z" />
<glyph unicode="&#x2018;" horiz-adv-x="280" d="M41 1288q0 74 53 137q40 49 92 70l23 -33q-63 -31 -88 -108q8 2 24 2q39 0 67 -27.5t28 -66.5q0 -38 -28.5 -66.5t-66.5 -28.5q-47 0 -75.5 36.5t-28.5 84.5z" />
<glyph unicode="&#x2019;" horiz-adv-x="278" d="M41 1399q0 40 27 68t67 28q45 0 74 -37t29 -84q0 -69 -54 -137q-39 -48 -90 -70l-24 33q66 32 88 109q-12 -4 -23 -4q-39 0 -66.5 27.5t-27.5 66.5z" />
<glyph unicode="&#x201a;" horiz-adv-x="278" d="M41 84q0 40 27 68t67 28q45 0 74 -37t29 -84q0 -66 -54 -137q-38 -47 -90 -69l-24 32q66 32 88 109q-12 -4 -23 -4q-39 0 -66.5 27.5t-27.5 66.5z" />
<glyph unicode="&#x201c;" horiz-adv-x="520" d="M41 1288q0 63 40.5 119t102.5 88l25 -33q-65 -32 -88 -108q6 2 22 2q40 0 67.5 -27t27.5 -67q0 -39 -28 -67t-67 -28q-45 0 -73.5 36.5t-28.5 84.5zM283 1288q0 63 41.5 120.5t101.5 86.5l25 -33q-66 -32 -89 -108q6 2 23 2q40 0 67 -27t27 -67q0 -39 -27.5 -67 t-66.5 -28q-45 0 -73.5 36.5t-28.5 84.5z" />
<glyph unicode="&#x201d;" horiz-adv-x="522" d="M41 1399q0 40 28 68t66 28q47 0 76 -37t29 -84q0 -64 -42 -121t-104 -86l-22 31q63 36 88 111q-16 -4 -25 -4q-38 0 -66 28t-28 66zM283 1399q0 40 28 68t66 28q47 0 75.5 -36.5t28.5 -84.5q0 -64 -41.5 -121t-103.5 -86l-23 31q63 36 88 111q-16 -4 -24 -4q-38 0 -66 28 t-28 66z" />
<glyph unicode="&#x201e;" horiz-adv-x="516" d="M41 84q0 40 27 68t67 28q45 0 74 -37t29 -84q0 -66 -54 -137q-38 -47 -90 -69l-24 32q66 32 88 109q-12 -4 -23 -4q-39 0 -66.5 27.5t-27.5 66.5zM279 84q0 40 27 68t67 28q45 0 73.5 -37t28.5 -84q0 -67 -53 -137q-38 -47 -90 -69l-25 32q66 32 88 109q-12 -4 -22 -4 q-39 0 -66.5 27.5t-27.5 66.5z" />
<glyph unicode="&#x2022;" horiz-adv-x="473" d="M41 668q0 82 57.5 139t139.5 57t138 -57t56 -139t-56.5 -139.5t-137.5 -57.5q-82 0 -139.5 57.5t-57.5 139.5z" />
<glyph unicode="&#x202f;" horiz-adv-x="340" />
<glyph unicode="&#x205f;" horiz-adv-x="425" />
<glyph unicode="&#x20ac;" horiz-adv-x="1445" d="M35 735l31 72h137q36 160 144.5 286t261.5 194.5t323 68.5q249 0 405 -137q33 -29 62 -72l-47 -100q-8 70 -70 135q-61 64 -146.5 96.5t-179.5 32.5q-217 1 -372.5 -143.5t-200.5 -360.5h858l-33 -72h-835q-8 -74 0 -141h770l-35 -70h-725q38 -209 183.5 -350t357.5 -147 q125 -4 234.5 46t193.5 144v-67q-87 -84 -199.5 -129.5t-234.5 -45.5q-265 0 -465.5 155.5t-251.5 393.5h-152l33 70h108q-12 70 0 141h-155z" />
<glyph unicode="&#xe000;" horiz-adv-x="1177" d="M0 0v1178h1178v-1178h-1178z" />
</font>
</defs>
</svg>
